<?xml version="1.0" encoding="UTF-8"?>
<svg xmlns="http://www.w3.org/2000/svg" xmlns:xlink="http://www.w3.org/1999/xlink" fill-opacity="1" color-rendering="auto" color-interpolation="auto" text-rendering="auto" stroke="black" stroke-linecap="square" width="434" stroke-miterlimit="10" shape-rendering="auto" stroke-opacity="1" fill="black" stroke-dasharray="none" font-weight="normal" stroke-width="1" height="60" font-family="'Dialog'" font-style="normal" stroke-linejoin="miter" font-size="12px" stroke-dashoffset="0" image-rendering="auto">
  <!--Generated by ySVG 2.5-->
  <defs id="genericDefs"/>
  <g>
    <defs id="defs1">
      <clipPath clipPathUnits="userSpaceOnUse" id="clipPath1">
        <path d="M0 0 L434 0 L434 60 L0 60 L0 0 Z"/>
      </clipPath>
      <clipPath clipPathUnits="userSpaceOnUse" id="clipPath2">
        <path d="M154 160 L588 160 L588 220 L154 220 L154 160 Z"/>
      </clipPath>
    </defs>
    <g fill="white" text-rendering="geometricPrecision" shape-rendering="geometricPrecision" transform="translate(-154,-160)" stroke="white">
      <rect x="154" width="434" height="60" y="160" clip-path="url(#clipPath2)" stroke="none"/>
    </g>
    <g fill="rgb(255,204,0)" text-rendering="geometricPrecision" shape-rendering="geometricPrecision" transform="matrix(1,0,0,1,-154,-160)" stroke="rgb(255,204,0)">
      <ellipse rx="50" ry="15" clip-path="url(#clipPath2)" cx="219" cy="190" stroke="none"/>
    </g>
    <g text-rendering="geometricPrecision" stroke-miterlimit="1.45" shape-rendering="geometricPrecision" transform="matrix(1,0,0,1,-154,-160)" stroke-linecap="butt">
      <ellipse rx="50" fill="none" ry="15" clip-path="url(#clipPath2)" cx="219" cy="190"/>
      <text x="205.6553" xml:space="preserve" y="194.7139" clip-path="url(#clipPath2)" font-family="sans-serif" stroke="none">Input</text>
    </g>
    <g fill="rgb(255,204,0)" text-rendering="geometricPrecision" shape-rendering="geometricPrecision" transform="matrix(1,0,0,1,-154,-160)" stroke="rgb(255,204,0)">
      <ellipse rx="50" ry="15" clip-path="url(#clipPath2)" cx="371" cy="190" stroke="none"/>
    </g>
    <g text-rendering="geometricPrecision" stroke-miterlimit="1.45" shape-rendering="geometricPrecision" transform="matrix(1,0,0,1,-154,-160)" stroke-linecap="butt">
      <ellipse rx="50" fill="none" ry="15" clip-path="url(#clipPath2)" cx="371" cy="190"/>
      <text x="327.6348" xml:space="preserve" y="194.7139" clip-path="url(#clipPath2)" font-family="sans-serif" stroke="none">verborgen lagen</text>
    </g>
    <g fill="rgb(255,204,0)" text-rendering="geometricPrecision" shape-rendering="geometricPrecision" transform="matrix(1,0,0,1,-154,-160)" stroke="rgb(255,204,0)">
      <ellipse rx="50" ry="15" clip-path="url(#clipPath2)" cx="523" cy="190" stroke="none"/>
    </g>
    <g text-rendering="geometricPrecision" stroke-miterlimit="1.45" shape-rendering="geometricPrecision" transform="matrix(1,0,0,1,-154,-160)" stroke-linecap="butt">
      <ellipse rx="50" fill="none" ry="15" clip-path="url(#clipPath2)" cx="523" cy="190"/>
      <text x="506.3184" xml:space="preserve" y="194.7139" clip-path="url(#clipPath2)" font-family="sans-serif" stroke="none">output</text>
      <path fill="none" d="M269 190 L313 190" clip-path="url(#clipPath2)"/>
      <path d="M321 190 L309 185 L312 190 L309 195 Z" clip-path="url(#clipPath2)" stroke="none"/>
      <path fill="none" d="M421 190 L465 190" clip-path="url(#clipPath2)"/>
      <path d="M473 190 L461 185 L464 190 L461 195 Z" clip-path="url(#clipPath2)" stroke="none"/>
    </g>
  </g>
</svg>
