<?xml version="1.0" encoding="UTF-8"?><svg xmlns="http://www.w3.org/2000/svg" xmlns:xlink="http://www.w3.org/1999/xlink" fill-opacity="1" color-rendering="auto" color-interpolation="auto" text-rendering="auto" stroke="black" stroke-linecap="square" width="315" stroke-miterlimit="10" shape-rendering="auto" stroke-opacity="1" fill="black" stroke-dasharray="none" font-weight="normal" stroke-width="1" height="234" font-family="'Dialog'" font-style="normal" stroke-linejoin="miter" font-size="12px" stroke-dashoffset="0" image-rendering="auto">
  <!--Generated by ySVG 2.5-->
  <defs id="genericDefs"/>
  <g>
    <defs id="defs1">
      <clipPath clipPathUnits="userSpaceOnUse" id="clipPath1">
        <path d="M0 0 L315 0 L315 234 L0 234 L0 0 Z"/>
      </clipPath>
      <clipPath clipPathUnits="userSpaceOnUse" id="clipPath2">
        <path d="M166 98 L481 98 L481 332 L166 332 L166 98 Z"/>
      </clipPath>
    </defs>
    <g fill="white" text-rendering="geometricPrecision" shape-rendering="geometricPrecision" transform="translate(-166,-98)" stroke="white">
      <rect x="166" width="315" height="234" y="98" clip-path="url(#clipPath2)" stroke="none"/>
    </g>
    <g fill="rgb(255,204,0)" text-rendering="geometricPrecision" shape-rendering="geometricPrecision" transform="matrix(1,0,0,1,-166,-98)" stroke="rgb(255,204,0)">
      <circle r="15" clip-path="url(#clipPath2)" cx="206" cy="182" stroke="none"/>
    </g>
    <g text-rendering="geometricPrecision" stroke-miterlimit="1.45" shape-rendering="geometricPrecision" transform="matrix(1,0,0,1,-166,-98)" stroke-linecap="butt">
      <circle fill="none" r="15" clip-path="url(#clipPath2)" cx="206" cy="182"/>
      <text x="197.9932" xml:space="preserve" y="186.7139" clip-path="url(#clipPath2)" font-family="sans-serif" stroke="none">in1</text>
    </g>
    <g fill="rgb(255,204,0)" text-rendering="geometricPrecision" shape-rendering="geometricPrecision" transform="matrix(1,0,0,1,-166,-98)" stroke="rgb(255,204,0)">
      <circle r="15" clip-path="url(#clipPath2)" cx="206" cy="244" stroke="none"/>
    </g>
    <g text-rendering="geometricPrecision" stroke-miterlimit="1.45" shape-rendering="geometricPrecision" transform="matrix(1,0,0,1,-166,-98)" stroke-linecap="butt">
      <circle fill="none" r="15" clip-path="url(#clipPath2)" cx="206" cy="244"/>
      <text x="197.9932" xml:space="preserve" y="248.7139" clip-path="url(#clipPath2)" font-family="sans-serif" stroke="none">in2</text>
    </g>
    <g fill="rgb(255,204,0)" text-rendering="geometricPrecision" shape-rendering="geometricPrecision" transform="matrix(1,0,0,1,-166,-98)" stroke="rgb(255,204,0)">
      <circle r="15" clip-path="url(#clipPath2)" cx="288" cy="149" stroke="none"/>
    </g>
    <g text-rendering="geometricPrecision" stroke-miterlimit="1.45" shape-rendering="geometricPrecision" transform="matrix(1,0,0,1,-166,-98)" stroke-linecap="butt">
      <circle fill="none" r="15" clip-path="url(#clipPath2)" cx="288" cy="149"/>
      <text x="277.9893" xml:space="preserve" y="153.7139" clip-path="url(#clipPath2)" font-family="sans-serif" stroke="none">h11</text>
    </g>
    <g fill="rgb(255,204,0)" text-rendering="geometricPrecision" shape-rendering="geometricPrecision" transform="matrix(1,0,0,1,-166,-98)" stroke="rgb(255,204,0)">
      <circle r="15" clip-path="url(#clipPath2)" cx="288" cy="215" stroke="none"/>
    </g>
    <g text-rendering="geometricPrecision" stroke-miterlimit="1.45" shape-rendering="geometricPrecision" transform="matrix(1,0,0,1,-166,-98)" stroke-linecap="butt">
      <circle fill="none" r="15" clip-path="url(#clipPath2)" cx="288" cy="215"/>
      <text x="277.9893" xml:space="preserve" y="219.7139" clip-path="url(#clipPath2)" font-family="sans-serif" stroke="none">h12</text>
    </g>
    <g fill="rgb(255,204,0)" text-rendering="geometricPrecision" shape-rendering="geometricPrecision" transform="matrix(1,0,0,1,-166,-98)" stroke="rgb(255,204,0)">
      <circle r="15" clip-path="url(#clipPath2)" cx="288" cy="281" stroke="none"/>
    </g>
    <g text-rendering="geometricPrecision" stroke-miterlimit="1.45" shape-rendering="geometricPrecision" transform="matrix(1,0,0,1,-166,-98)" stroke-linecap="butt">
      <circle fill="none" r="15" clip-path="url(#clipPath2)" cx="288" cy="281"/>
      <text x="277.9893" xml:space="preserve" y="285.7139" clip-path="url(#clipPath2)" font-family="sans-serif" stroke="none">h13</text>
    </g>
    <g fill="rgb(255,204,0)" text-rendering="geometricPrecision" shape-rendering="geometricPrecision" transform="matrix(1,0,0,1,-166,-98)" stroke="rgb(255,204,0)">
      <circle r="15" clip-path="url(#clipPath2)" cx="370" cy="182" stroke="none"/>
    </g>
    <g text-rendering="geometricPrecision" stroke-miterlimit="1.45" shape-rendering="geometricPrecision" transform="matrix(1,0,0,1,-166,-98)" stroke-linecap="butt">
      <circle fill="none" r="15" clip-path="url(#clipPath2)" cx="370" cy="182"/>
      <text x="359.9893" xml:space="preserve" y="186.7139" clip-path="url(#clipPath2)" font-family="sans-serif" stroke="none">h21</text>
    </g>
    <g fill="rgb(255,204,0)" text-rendering="geometricPrecision" shape-rendering="geometricPrecision" transform="matrix(1,0,0,1,-166,-98)" stroke="rgb(255,204,0)">
      <circle r="15" clip-path="url(#clipPath2)" cx="370" cy="244" stroke="none"/>
    </g>
    <g text-rendering="geometricPrecision" stroke-miterlimit="1.45" shape-rendering="geometricPrecision" transform="matrix(1,0,0,1,-166,-98)" stroke-linecap="butt">
      <circle fill="none" r="15" clip-path="url(#clipPath2)" cx="370" cy="244"/>
      <text x="359.9893" xml:space="preserve" y="248.7139" clip-path="url(#clipPath2)" font-family="sans-serif" stroke="none">h22</text>
    </g>
    <g fill="rgb(255,204,0)" text-rendering="geometricPrecision" shape-rendering="geometricPrecision" transform="matrix(1,0,0,1,-166,-98)" stroke="rgb(255,204,0)">
      <circle r="15" clip-path="url(#clipPath2)" cx="446" cy="215" stroke="none"/>
    </g>
    <g text-rendering="geometricPrecision" stroke-miterlimit="1.45" shape-rendering="geometricPrecision" transform="matrix(1,0,0,1,-166,-98)" stroke-linecap="butt">
      <circle fill="none" r="15" clip-path="url(#clipPath2)" cx="446" cy="215"/>
      <text x="434.3223" xml:space="preserve" y="219.7139" clip-path="url(#clipPath2)" font-family="sans-serif" stroke="none">out1</text>
    </g>
    <g stroke-linecap="round" transform="matrix(1,0,0,1,-166,-98)" stroke-dashoffset="2" text-rendering="geometricPrecision" shape-rendering="geometricPrecision" stroke-dasharray="0,8" stroke-width="2" stroke-miterlimit="1.45">
      <ellipse rx="80.2" fill="none" ry="101.8" clip-path="url(#clipPath2)" cx="321" cy="215"/>
      <rect fill="none" x="181.8" width="48.4" height="127.6" y="151.2" clip-path="url(#clipPath2)"/>
      <rect fill="none" x="426.2" width="39.6" height="59.4" y="185.3" clip-path="url(#clipPath2)"/>
    </g>
    <g stroke-linecap="butt" transform="matrix(1,0,0,1,-166,-98)" fill="blue" text-rendering="geometricPrecision" shape-rendering="geometricPrecision" stroke="blue" stroke-miterlimit="1.45">
      <path fill="none" d="M219.9154 176.3999 L266.663 157.5868" clip-path="url(#clipPath2)"/>
      <path d="M274.0846 154.6001 L261.0856 154.4417 L265.7354 157.9602 L264.819 163.7187 Z" clip-path="url(#clipPath2)" stroke="none"/>
      <path fill="none" d="M215.8012 232.645 L272.9715 166.411" clip-path="url(#clipPath2)" stroke="black"/>
      <path fill="black" d="M278.1988 160.355 L266.5729 166.172 L272.3181 167.168 L274.1429 172.7061 Z" clip-path="url(#clipPath2)" stroke="none"/>
      <path fill="none" d="M220.1417 238.9987 L266.3161 222.6687" clip-path="url(#clipPath2)" stroke="black"/>
      <path fill="black" d="M273.8583 220.0013 L260.8779 219.2885 L265.3733 223.0021 L264.2121 228.7163 Z" clip-path="url(#clipPath2)" stroke="none"/>
      <path fill="none" d="M219.9154 187.6001 L266.663 206.4132" clip-path="url(#clipPath2)"/>
      <path d="M274.0846 209.3999 L264.819 200.2813 L265.7354 206.0398 L261.0856 209.5583 Z" clip-path="url(#clipPath2)" stroke="none"/>
      <path fill="none" d="M219.6726 250.1693 L267.0354 271.5403" clip-path="url(#clipPath2)" stroke="black"/>
      <path fill="black" d="M274.3274 274.8307 L265.4458 265.3377 L266.1239 271.1291 L261.3329 274.4527 Z" clip-path="url(#clipPath2)" stroke="none"/>
      <path fill="none" d="M215.5683 193.552 L273.3286 263.287" clip-path="url(#clipPath2)"/>
      <path d="M278.4317 269.448 L274.6277 257.017 L272.6907 262.5168 L266.9264 263.3959 Z" clip-path="url(#clipPath2)" stroke="none"/>
      <path fill="none" d="M301.9154 154.6001 L348.663 173.4132" clip-path="url(#clipPath2)"/>
      <path d="M356.0846 176.3999 L346.819 167.2814 L347.7354 173.0398 L343.0856 176.5583 Z" clip-path="url(#clipPath2)" stroke="none"/>
      <path fill="none" d="M301.9154 209.3999 L348.663 190.5868" clip-path="url(#clipPath2)" stroke="red"/>
      <path fill="red" d="M356.0846 187.6001 L343.0856 187.4417 L347.7354 190.9602 L346.819 196.7186 Z" clip-path="url(#clipPath2)" stroke="none"/>
      <path fill="none" d="M297.5683 269.448 L355.3286 199.713" clip-path="url(#clipPath2)" stroke="black"/>
      <path fill="black" d="M360.4317 193.552 L348.9264 199.6041 L354.6907 200.4831 L356.6277 205.983 Z" clip-path="url(#clipPath2)" stroke="none"/>
      <path fill="none" d="M297.8012 160.355 L354.9715 226.589" clip-path="url(#clipPath2)"/>
      <path d="M360.1988 232.645 L356.1429 220.2939 L354.3181 225.832 L348.5729 226.828 Z" clip-path="url(#clipPath2)" stroke="none"/>
      <path fill="none" d="M302.1417 220.0013 L348.3161 236.3313" clip-path="url(#clipPath2)" stroke="red"/>
      <path fill="red" d="M355.8583 238.9987 L346.2121 230.2837 L347.3733 235.9979 L342.8779 239.7115 Z" clip-path="url(#clipPath2)" stroke="none"/>
      <path fill="none" d="M301.6726 274.8307 L349.0354 253.4596" clip-path="url(#clipPath2)" stroke="black"/>
      <path fill="black" d="M356.3274 250.1693 L343.3329 250.5473 L348.1239 253.8709 L347.4458 259.6623 Z" clip-path="url(#clipPath2)" stroke="none"/>
      <path fill="none" d="M383.7589 187.9743 L424.903 205.8394" clip-path="url(#clipPath2)"/>
      <path d="M432.2411 209.0257 L423.2253 199.66 L423.9857 205.4412 L419.2425 208.8326 Z" clip-path="url(#clipPath2)" stroke="none"/>
      <path fill="none" d="M384.0144 238.6524 L424.5113 223.1996" clip-path="url(#clipPath2)" stroke="black"/>
      <path fill="black" d="M431.9856 220.3476 L418.9915 219.9542 L423.577 223.5562 L422.5566 229.2971 Z" clip-path="url(#clipPath2)" stroke="none"/>
    </g>
  </g>
</svg>
