<?xml version="1.0" encoding="UTF-8"?><svg xmlns="http://www.w3.org/2000/svg" xmlns:xlink="http://www.w3.org/1999/xlink" fill-opacity="1" color-rendering="auto" color-interpolation="auto" text-rendering="auto" stroke="black" stroke-linecap="square" width="329" stroke-miterlimit="10" shape-rendering="auto" stroke-opacity="1" fill="black" stroke-dasharray="none" font-weight="normal" stroke-width="1" height="135" font-family="'Dialog'" font-style="normal" stroke-linejoin="miter" font-size="12px" stroke-dashoffset="0" image-rendering="auto">
  <!--Generated by ySVG 2.5-->
  <defs id="genericDefs"/>
  <g>
    <defs id="defs1">
      <clipPath clipPathUnits="userSpaceOnUse" id="clipPath1">
        <path d="M0 0 L329 0 L329 135 L0 135 L0 0 Z"/>
      </clipPath>
      <clipPath clipPathUnits="userSpaceOnUse" id="clipPath2">
        <path d="M261 145 L590 145 L590 280 L261 280 L261 145 Z"/>
      </clipPath>
      <clipPath clipPathUnits="userSpaceOnUse" id="clipPath3">
        <path d="M0 0 L0 25 L46 25 L46 0 Z"/>
      </clipPath>
      <clipPath clipPathUnits="userSpaceOnUse" id="clipPath4">
        <path d="M0 0 L0 22 L15 22 L15 0 Z"/>
      </clipPath>
    </defs>
    <g fill="white" text-rendering="geometricPrecision" shape-rendering="geometricPrecision" transform="translate(-261,-145)" stroke="white">
      <rect x="261" width="329" height="135" y="145" clip-path="url(#clipPath2)" stroke="none"/>
    </g>
    <g fill="rgb(255,204,0)" text-rendering="geometricPrecision" shape-rendering="geometricPrecision" transform="matrix(1,0,0,1,-261,-145)" stroke="rgb(255,204,0)">
      <circle r="37.5" clip-path="url(#clipPath2)" cx="426.2" cy="210.4" stroke="none"/>
    </g>
    <g text-rendering="geometricPrecision" stroke-miterlimit="1.45" shape-rendering="geometricPrecision" transform="matrix(1,0,0,1,-261,-145)" stroke-linecap="butt">
      <circle fill="none" r="37.5" clip-path="url(#clipPath2)" cx="426.2" cy="210.4"/>
      <text x="391.9588" font-size="14px" y="215.8995" clip-path="url(#clipPath2)" font-family="sans-serif" stroke="none" xml:space="preserve">Perceptron</text>
    </g>
    <g font-size="14px" stroke-linecap="butt" transform="matrix(1,0,0,1,-261,-145) translate(278,166)" text-rendering="geometricPrecision" font-family="sans-serif" shape-rendering="geometricPrecision" stroke-miterlimit="1.45">
      <text x="0" xml:space="preserve" y="15" clip-path="url(#clipPath3)" stroke="none">invoer</text>
      <text x="39" xml:space="preserve" font-size="12px" y="22" clip-path="url(#clipPath3)" stroke="none">1</text>
    </g>
    <g font-size="14px" stroke-linecap="butt" transform="matrix(1,0,0,1,-261,-145) translate(281,237)" text-rendering="geometricPrecision" font-family="sans-serif" shape-rendering="geometricPrecision" stroke-miterlimit="1.45">
      <text x="0" xml:space="preserve" y="15" clip-path="url(#clipPath3)" stroke="none">invoer</text>
      <text x="39" xml:space="preserve" font-size="12px" y="22" clip-path="url(#clipPath3)" stroke="none">2</text>
    </g>
    <g font-size="14px" stroke-linecap="butt" transform="matrix(1,0,0,1,-261,-145)" text-rendering="geometricPrecision" font-family="sans-serif" shape-rendering="geometricPrecision" stroke-miterlimit="1.45">
      <text x="519.0319" xml:space="preserve" y="215.8995" clip-path="url(#clipPath2)" stroke="none">uitvoer 1</text>
      <path fill="none" d="M330.6839 182.307 L382.5666 197.5667" clip-path="url(#clipPath2)"/>
      <path d="M390.2415 199.824 L380.14 191.6412 L381.6073 197.2845 L377.3183 201.2348 Z" stroke="none" clip-path="url(#clipPath2)"/>
    </g>
    <g text-rendering="geometricPrecision" stroke-miterlimit="1.45" shape-rendering="geometricPrecision" font-family="sans-serif" transform="matrix(1,0,0,1,-261,-145) translate(350,166)" stroke-linecap="butt">
      <text x="0" xml:space="preserve" y="12" clip-path="url(#clipPath4)" stroke="none">w</text>
      <text x="9" xml:space="preserve" font-size="10px" y="18" clip-path="url(#clipPath4)" stroke="none">1</text>
    </g>
    <g text-rendering="geometricPrecision" stroke-miterlimit="1.45" shape-rendering="geometricPrecision" transform="matrix(1,0,0,1,-261,-145)" stroke-linecap="butt">
      <path fill="none" d="M332.1649 243.3123 L383.2482 225.4331" clip-path="url(#clipPath2)"/>
      <path d="M390.7991 222.7903 L377.821 222.0352 L382.3044 225.7635 L381.1245 231.4738 Z" clip-path="url(#clipPath2)" stroke="none"/>
    </g>
    <g text-rendering="geometricPrecision" stroke-miterlimit="1.45" shape-rendering="geometricPrecision" font-family="sans-serif" transform="matrix(1,0,0,1,-261,-145) translate(358,234)" stroke-linecap="butt">
      <text x="0" xml:space="preserve" y="12" clip-path="url(#clipPath4)" stroke="none">w</text>
      <text x="9" xml:space="preserve" font-size="10px" y="18" clip-path="url(#clipPath4)" stroke="none">2</text>
    </g>
    <g text-rendering="geometricPrecision" stroke-miterlimit="1.45" shape-rendering="geometricPrecision" transform="matrix(1,0,0,1,-261,-145)" stroke-linecap="butt">
      <path fill="none" d="M463.6877 210.4 L510.3889 210.4" clip-path="url(#clipPath2)"/>
      <path d="M518.3889 210.4 L506.3889 205.4 L509.3889 210.4 L506.3889 215.4 Z" clip-path="url(#clipPath2)" stroke="none"/>
    </g>
  </g>
</svg>
