<?xml version="1.0" encoding="UTF-8"?><svg xmlns="http://www.w3.org/2000/svg" xmlns:xlink="http://www.w3.org/1999/xlink" fill-opacity="1" color-rendering="auto" color-interpolation="auto" text-rendering="auto" stroke="black" stroke-linecap="square" width="295" stroke-miterlimit="10" shape-rendering="auto" stroke-opacity="1" fill="black" stroke-dasharray="none" font-weight="normal" stroke-width="1" height="195" font-family="'Dialog'" font-style="normal" stroke-linejoin="miter" font-size="12px" stroke-dashoffset="0" image-rendering="auto">
  <!--Generated by ySVG 2.5-->
  <defs id="genericDefs"/>
  <g>
    <defs id="defs1">
      <clipPath clipPathUnits="userSpaceOnUse" id="clipPath1">
        <path d="M0 0 L295 0 L295 195 L0 195 L0 0 Z"/>
      </clipPath>
      <clipPath clipPathUnits="userSpaceOnUse" id="clipPath2">
        <path d="M289 113 L584 113 L584 308 L289 308 L289 113 Z"/>
      </clipPath>
      <clipPath clipPathUnits="userSpaceOnUse" id="clipPath3">
        <path d="M0 0 L0 22 L23 22 L23 0 Z"/>
      </clipPath>
      <clipPath clipPathUnits="userSpaceOnUse" id="clipPath4">
        <path d="M0 0 L0 22 L25 22 L25 0 Z"/>
      </clipPath>
      <clipPath clipPathUnits="userSpaceOnUse" id="clipPath5">
        <path d="M0 0 L0 22 L15 22 L15 0 Z"/>
      </clipPath>
    </defs>
    <g fill="white" text-rendering="geometricPrecision" shape-rendering="geometricPrecision" transform="translate(-289,-113)" stroke="white">
      <rect x="289" width="295" height="195" y="113" clip-path="url(#clipPath2)" stroke="none"/>
    </g>
    <g fill="rgb(255,204,0)" text-rendering="geometricPrecision" shape-rendering="geometricPrecision" transform="matrix(1,0,0,1,-289,-113)" stroke="rgb(255,204,0)">
      <circle r="37.5" clip-path="url(#clipPath2)" cx="426.2" cy="210.4" stroke="none"/>
    </g>
    <g text-rendering="geometricPrecision" stroke-miterlimit="1.45" shape-rendering="geometricPrecision" transform="matrix(1,0,0,1,-289,-113)" stroke-linecap="butt">
      <circle fill="none" r="37.5" clip-path="url(#clipPath2)" cx="426.2" cy="210.4"/>
      <text x="396.8504" xml:space="preserve" y="215.1139" clip-path="url(#clipPath2)" font-family="sans-serif" stroke="none">Perceptron</text>
    </g>
    <g text-rendering="geometricPrecision" stroke-miterlimit="1.45" shape-rendering="geometricPrecision" font-family="sans-serif" transform="matrix(1,0,0,1,-289,-113) translate(307,199)" stroke-linecap="butt">
      <text x="0" xml:space="preserve" y="12" clip-path="url(#clipPath3)" stroke="none">x</text>
      <text x="5" xml:space="preserve" font-size="10px" y="18" clip-path="url(#clipPath3)" stroke="none">1</text>
      <text x="11" xml:space="preserve" y="12" clip-path="url(#clipPath3)" stroke="none">=x</text>
    </g>
    <g text-rendering="geometricPrecision" stroke-miterlimit="1.45" shape-rendering="geometricPrecision" font-family="sans-serif" transform="matrix(1,0,0,1,-289,-113) translate(307,266)" stroke-linecap="butt">
      <text x="0" xml:space="preserve" y="12" clip-path="url(#clipPath3)" stroke="none">x</text>
      <text x="5" xml:space="preserve" font-size="10px" y="18" clip-path="url(#clipPath3)" stroke="none">2</text>
      <text x="11" xml:space="preserve" y="12" clip-path="url(#clipPath3)" stroke="none">=y</text>
    </g>
    <g text-rendering="geometricPrecision" stroke-miterlimit="1.45" shape-rendering="geometricPrecision" font-family="sans-serif" transform="matrix(1,0,0,1,-289,-113)" stroke-linecap="butt">
      <text x="519.9873" xml:space="preserve" y="215.1139" clip-path="url(#clipPath2)" stroke="none">uitvoer 1</text>
    </g>
    <g text-rendering="geometricPrecision" stroke-miterlimit="1.45" shape-rendering="geometricPrecision" font-family="sans-serif" transform="matrix(1,0,0,1,-289,-113) translate(306,132)" stroke-linecap="butt">
      <text x="0" xml:space="preserve" y="12" clip-path="url(#clipPath4)" stroke="none">x</text>
      <text x="5" xml:space="preserve" font-size="10px" y="18" clip-path="url(#clipPath4)" stroke="none">0</text>
      <text x="11" xml:space="preserve" y="12" clip-path="url(#clipPath4)" stroke="none">=1</text>
    </g>
    <g text-rendering="geometricPrecision" stroke-miterlimit="1.45" shape-rendering="geometricPrecision" font-family="sans-serif" transform="matrix(1,0,0,1,-289,-113) translate(366,209)" stroke-linecap="butt">
      <text x="0" xml:space="preserve" y="12" clip-path="url(#clipPath5)" stroke="none">w</text>
      <text x="9" xml:space="preserve" font-size="10px" y="18" clip-path="url(#clipPath5)" stroke="none">1</text>
    </g>
    <g text-rendering="geometricPrecision" stroke-miterlimit="1.45" shape-rendering="geometricPrecision" font-family="sans-serif" transform="matrix(1,0,0,1,-289,-113) translate(366,247)" stroke-linecap="butt">
      <text x="0" xml:space="preserve" y="12" clip-path="url(#clipPath5)" stroke="none">w</text>
      <text x="9" xml:space="preserve" font-size="10px" y="18" clip-path="url(#clipPath5)" stroke="none">2</text>
    </g>
    <g text-rendering="geometricPrecision" stroke-miterlimit="1.45" shape-rendering="geometricPrecision" font-family="sans-serif" transform="matrix(1,0,0,1,-289,-113) translate(366,158)" stroke-linecap="butt">
      <text x="0" xml:space="preserve" y="12" clip-path="url(#clipPath5)" stroke="none">w</text>
      <text x="9" xml:space="preserve" font-size="10px" y="18" clip-path="url(#clipPath5)" stroke="none">0</text>
    </g>
    <g text-rendering="geometricPrecision" stroke-miterlimit="1.45" shape-rendering="geometricPrecision" transform="matrix(1,0,0,1,-289,-113)" stroke-linecap="butt">
      <path fill="none" d="M333.9965 210.4 L380.6973 210.4" clip-path="url(#clipPath2)"/>
      <path d="M388.6973 210.4 L376.6973 205.4 L379.6973 210.4 L376.6973 215.4 Z" clip-path="url(#clipPath2)" stroke="none"/>
      <path fill="none" d="M331.6934 269.643 L387.6503 234.5655" clip-path="url(#clipPath2)"/>
      <path d="M394.4286 230.3164 L381.6055 232.4536 L386.803 235.0966 L386.9169 240.9265 Z" clip-path="url(#clipPath2)" stroke="none"/>
      <path fill="none" d="M463.6981 210.4 L510.4117 210.4" clip-path="url(#clipPath2)"/>
      <path d="M518.4117 210.4 L506.4117 205.4 L509.4117 210.4 L506.4117 215.4 Z" clip-path="url(#clipPath2)" stroke="none"/>
      <path fill="none" d="M331.6934 151.157 L387.6503 186.2345" clip-path="url(#clipPath2)"/>
      <path d="M394.4286 190.4836 L386.9169 179.8735 L386.803 185.7034 L381.6055 188.3464 Z" clip-path="url(#clipPath2)" stroke="none"/>
    </g>
  </g>
</svg>
