<?xml version="1.0" encoding="UTF-8"?><svg xmlns="http://www.w3.org/2000/svg" xmlns:xlink="http://www.w3.org/1999/xlink" fill-opacity="1" color-rendering="auto" color-interpolation="auto" text-rendering="auto" stroke="black" stroke-linecap="square" width="293" stroke-miterlimit="10" shape-rendering="auto" stroke-opacity="1" fill="black" stroke-dasharray="none" font-weight="normal" stroke-width="1" height="180" font-family="'Dialog'" font-style="normal" stroke-linejoin="miter" font-size="12px" stroke-dashoffset="0" image-rendering="auto">
  <!--Generated by ySVG 2.5-->
  <defs id="genericDefs"/>
  <g>
    <defs id="defs1">
      <clipPath clipPathUnits="userSpaceOnUse" id="clipPath1">
        <path d="M0 0 L293 0 L293 180 L0 180 L0 0 Z"/>
      </clipPath>
      <clipPath clipPathUnits="userSpaceOnUse" id="clipPath2">
        <path d="M288 128 L581 128 L581 308 L288 308 L288 128 Z"/>
      </clipPath>
    </defs>
    <g fill="white" text-rendering="geometricPrecision" shape-rendering="geometricPrecision" transform="translate(-288,-128)" stroke="white">
      <rect x="288" width="293" height="180" y="128" clip-path="url(#clipPath2)" stroke="none"/>
    </g>
    <g fill="rgb(255,204,0)" text-rendering="geometricPrecision" shape-rendering="geometricPrecision" transform="matrix(1,0,0,1,-288,-128)" stroke="rgb(255,204,0)">
      <circle r="37.5" clip-path="url(#clipPath2)" cx="426.2" cy="210.4" stroke="none"/>
    </g>
    <g text-rendering="geometricPrecision" stroke-miterlimit="1.45" shape-rendering="geometricPrecision" transform="matrix(1,0,0,1,-288,-128)" stroke-linecap="butt">
      <circle fill="none" r="37.5" clip-path="url(#clipPath2)" cx="426.2" cy="210.4"/>
      <text x="396.8504" xml:space="preserve" y="215.1139" clip-path="url(#clipPath2)" font-family="sans-serif" stroke="none">Perceptron</text>
      <text x="312.6631" xml:space="preserve" y="201.2739" clip-path="url(#clipPath2)" font-family="sans-serif" stroke="none">x1</text>
      <text x="312.6631" xml:space="preserve" y="239.0339" clip-path="url(#clipPath2)" font-family="sans-serif" stroke="none">x2</text>
      <text x="523.0712" xml:space="preserve" y="215.1139" clip-path="url(#clipPath2)" font-family="sans-serif" stroke="none">uitvoer</text>
      <text x="305.8223" xml:space="preserve" y="163.5139" clip-path="url(#clipPath2)" font-family="sans-serif" stroke="none">x0=1</text>
      <text x="346.3301" xml:space="preserve" y="195.7539" clip-path="url(#clipPath2)" font-family="sans-serif" stroke="none">w1</text>
      <text x="346.3301" xml:space="preserve" y="223.5139" clip-path="url(#clipPath2)" font-family="sans-serif" stroke="none">w2</text>
      <text x="346.3301" xml:space="preserve" y="163.5139" clip-path="url(#clipPath2)" font-family="sans-serif" stroke="none">w0</text>
      <text x="312.6631" xml:space="preserve" y="282.3139" clip-path="url(#clipPath2)" font-family="sans-serif" stroke="none">xn</text>
      <text x="346.3301" xml:space="preserve" y="252.3139" clip-path="url(#clipPath2)" font-family="sans-serif" stroke="none">wn</text>
      <path fill="none" d="M333.8918 198.4826 L381.0811 204.575" clip-path="url(#clipPath2)"/>
      <path d="M389.0153 205.5993 L377.7543 199.1039 L380.0894 204.4469 L376.4738 209.0216 Z" clip-path="url(#clipPath2)" stroke="none"/>
      <path fill="none" d="M333.6301 231.0555 L381.8251 220.3016" clip-path="url(#clipPath2)"/>
      <path d="M389.6331 218.5593 L376.8322 216.2927 L380.8491 220.5193 L379.01 226.0527 Z" clip-path="url(#clipPath2)" stroke="none"/>
      <path fill="none" d="M463.6987 210.4 L508.4827 210.4" clip-path="url(#clipPath2)"/>
      <path d="M516.4827 210.4 L504.4827 205.4 L507.4827 210.4 L504.4827 215.4 Z" clip-path="url(#clipPath2)" stroke="none"/>
      <path fill="none" d="M332.5309 165.313 L385.2149 190.6721" clip-path="url(#clipPath2)"/>
      <path d="M392.4233 194.1418 L383.7793 184.432 L384.3138 190.2384 L379.4421 193.4425 Z" clip-path="url(#clipPath2)" stroke="none"/>
      <path fill="none" d="M387.6484 234.5667 L331.7093 269.633" clip-path="url(#clipPath2)"/>
      <path d="M394.4267 230.3176 L381.6036 232.4548 L386.8011 235.0978 L386.915 240.9276 Z" clip-path="url(#clipPath2)" stroke="none"/>
      <path fill="none" stroke-dasharray="0,4" d="M319 249.32 L319 262.6" stroke-dashoffset="2" clip-path="url(#clipPath2)" stroke-linecap="round"/>
    </g>
  </g>
</svg>
