<?xml version="1.0" encoding="UTF-8"?><svg xmlns="http://www.w3.org/2000/svg" xmlns:xlink="http://www.w3.org/1999/xlink" fill-opacity="1" color-rendering="auto" color-interpolation="auto" text-rendering="auto" stroke="black" stroke-linecap="square" width="289" stroke-miterlimit="10" shape-rendering="auto" stroke-opacity="1" fill="black" stroke-dasharray="none" font-weight="normal" stroke-width="1" height="258" font-family="'Dialog'" font-style="normal" stroke-linejoin="miter" font-size="12px" stroke-dashoffset="0" image-rendering="auto">
  <!--Generated by ySVG 2.5-->
  <defs id="genericDefs"/>
  <g>
    <defs id="defs1">
      <clipPath clipPathUnits="userSpaceOnUse" id="clipPath1">
        <path d="M0 0 L289 0 L289 258 L0 258 L0 0 Z"/>
      </clipPath>
      <clipPath clipPathUnits="userSpaceOnUse" id="clipPath2">
        <path d="M176 119 L465 119 L465 377 L176 377 L176 119 Z"/>
      </clipPath>
    </defs>
    <g fill="white" text-rendering="geometricPrecision" shape-rendering="geometricPrecision" transform="translate(-176,-119)" stroke="white">
      <rect x="176" width="289" height="258" y="119" clip-path="url(#clipPath2)" stroke="none"/>
    </g>
    <g fill="rgb(255,204,0)" text-rendering="geometricPrecision" shape-rendering="geometricPrecision" transform="matrix(1,0,0,1,-176,-119)" stroke="rgb(255,204,0)">
      <circle r="15" clip-path="url(#clipPath2)" cx="206" cy="182" stroke="none"/>
    </g>
    <g text-rendering="geometricPrecision" stroke-miterlimit="1.45" shape-rendering="geometricPrecision" transform="matrix(1,0,0,1,-176,-119)" stroke-linecap="butt">
      <circle fill="none" r="15" clip-path="url(#clipPath2)" cx="206" cy="182"/>
      <text x="197.9932" xml:space="preserve" y="186.7139" clip-path="url(#clipPath2)" font-family="sans-serif" stroke="none">in1</text>
    </g>
    <g fill="rgb(255,204,0)" text-rendering="geometricPrecision" shape-rendering="geometricPrecision" transform="matrix(1,0,0,1,-176,-119)" stroke="rgb(255,204,0)">
      <circle r="15" clip-path="url(#clipPath2)" cx="206" cy="244" stroke="none"/>
    </g>
    <g text-rendering="geometricPrecision" stroke-miterlimit="1.45" shape-rendering="geometricPrecision" transform="matrix(1,0,0,1,-176,-119)" stroke-linecap="butt">
      <circle fill="none" r="15" clip-path="url(#clipPath2)" cx="206" cy="244"/>
      <text x="197.9932" xml:space="preserve" y="248.7139" clip-path="url(#clipPath2)" font-family="sans-serif" stroke="none">in2</text>
    </g>
    <g fill="rgb(255,204,0)" text-rendering="geometricPrecision" shape-rendering="geometricPrecision" transform="matrix(1,0,0,1,-176,-119)" stroke="rgb(255,204,0)">
      <circle r="15" clip-path="url(#clipPath2)" cx="288" cy="149" stroke="none"/>
    </g>
    <g text-rendering="geometricPrecision" stroke-miterlimit="1.45" shape-rendering="geometricPrecision" transform="matrix(1,0,0,1,-176,-119)" stroke-linecap="butt">
      <circle fill="none" r="15" clip-path="url(#clipPath2)" cx="288" cy="149"/>
      <text x="277.9893" xml:space="preserve" y="153.7139" clip-path="url(#clipPath2)" font-family="sans-serif" stroke="none">h11</text>
    </g>
    <g fill="rgb(255,204,0)" text-rendering="geometricPrecision" shape-rendering="geometricPrecision" transform="matrix(1,0,0,1,-176,-119)" stroke="rgb(255,204,0)">
      <circle r="15" clip-path="url(#clipPath2)" cx="288" cy="215" stroke="none"/>
    </g>
    <g text-rendering="geometricPrecision" stroke-miterlimit="1.45" shape-rendering="geometricPrecision" transform="matrix(1,0,0,1,-176,-119)" stroke-linecap="butt">
      <circle fill="none" r="15" clip-path="url(#clipPath2)" cx="288" cy="215"/>
      <text x="277.9893" xml:space="preserve" y="219.7139" clip-path="url(#clipPath2)" font-family="sans-serif" stroke="none">h12</text>
    </g>
    <g fill="rgb(255,204,0)" text-rendering="geometricPrecision" shape-rendering="geometricPrecision" transform="matrix(1,0,0,1,-176,-119)" stroke="rgb(255,204,0)">
      <circle r="15" clip-path="url(#clipPath2)" cx="288" cy="281" stroke="none"/>
    </g>
    <g text-rendering="geometricPrecision" stroke-miterlimit="1.45" shape-rendering="geometricPrecision" transform="matrix(1,0,0,1,-176,-119)" stroke-linecap="butt">
      <circle fill="none" r="15" clip-path="url(#clipPath2)" cx="288" cy="281"/>
      <text x="277.9893" xml:space="preserve" y="285.7139" clip-path="url(#clipPath2)" font-family="sans-serif" stroke="none">h13</text>
    </g>
    <g fill="rgb(255,204,0)" text-rendering="geometricPrecision" shape-rendering="geometricPrecision" transform="matrix(1,0,0,1,-176,-119)" stroke="rgb(255,204,0)">
      <circle r="15" clip-path="url(#clipPath2)" cx="370" cy="182" stroke="none"/>
    </g>
    <g text-rendering="geometricPrecision" stroke-miterlimit="1.45" shape-rendering="geometricPrecision" transform="matrix(1,0,0,1,-176,-119)" stroke-linecap="butt">
      <circle fill="none" r="15" clip-path="url(#clipPath2)" cx="370" cy="182"/>
      <text x="359.9893" xml:space="preserve" y="186.7139" clip-path="url(#clipPath2)" font-family="sans-serif" stroke="none">h21</text>
    </g>
    <g fill="rgb(255,204,0)" text-rendering="geometricPrecision" shape-rendering="geometricPrecision" transform="matrix(1,0,0,1,-176,-119)" stroke="rgb(255,204,0)">
      <circle r="15" clip-path="url(#clipPath2)" cx="370" cy="244" stroke="none"/>
    </g>
    <g text-rendering="geometricPrecision" stroke-miterlimit="1.45" shape-rendering="geometricPrecision" transform="matrix(1,0,0,1,-176,-119)" stroke-linecap="butt">
      <circle fill="none" r="15" clip-path="url(#clipPath2)" cx="370" cy="244"/>
      <text x="359.9893" xml:space="preserve" y="248.7139" clip-path="url(#clipPath2)" font-family="sans-serif" stroke="none">h22</text>
    </g>
    <g fill="rgb(255,204,0)" text-rendering="geometricPrecision" shape-rendering="geometricPrecision" transform="matrix(1,0,0,1,-176,-119)" stroke="rgb(255,204,0)">
      <circle r="15" clip-path="url(#clipPath2)" cx="435" cy="244" stroke="none"/>
    </g>
    <g text-rendering="geometricPrecision" stroke-miterlimit="1.45" shape-rendering="geometricPrecision" transform="matrix(1,0,0,1,-176,-119)" stroke-linecap="butt">
      <circle fill="none" r="15" clip-path="url(#clipPath2)" cx="435" cy="244"/>
      <text x="423.3223" xml:space="preserve" y="248.7139" clip-path="url(#clipPath2)" font-family="sans-serif" stroke="none">out1</text>
    </g>
    <g fill="rgb(255,204,0)" text-rendering="geometricPrecision" shape-rendering="geometricPrecision" transform="matrix(1,0,0,1,-176,-119)" stroke="rgb(255,204,0)">
      <circle r="15" clip-path="url(#clipPath2)" cx="206" cy="301.8" stroke="none"/>
    </g>
    <g text-rendering="geometricPrecision" stroke-miterlimit="1.45" shape-rendering="geometricPrecision" transform="matrix(1,0,0,1,-176,-119)" stroke-linecap="butt">
      <circle fill="none" r="15" clip-path="url(#clipPath2)" cx="206" cy="301.8"/>
      <text x="197.9932" xml:space="preserve" y="306.5139" clip-path="url(#clipPath2)" font-family="sans-serif" stroke="none">in3</text>
    </g>
    <g fill="rgb(255,204,0)" text-rendering="geometricPrecision" shape-rendering="geometricPrecision" transform="matrix(1,0,0,1,-176,-119)" stroke="rgb(255,204,0)">
      <circle r="15" clip-path="url(#clipPath2)" cx="288" cy="347" stroke="none"/>
    </g>
    <g text-rendering="geometricPrecision" stroke-miterlimit="1.45" shape-rendering="geometricPrecision" transform="matrix(1,0,0,1,-176,-119)" stroke-linecap="butt">
      <circle fill="none" r="15" clip-path="url(#clipPath2)" cx="288" cy="347"/>
      <text x="277.9893" xml:space="preserve" y="351.7139" clip-path="url(#clipPath2)" font-family="sans-serif" stroke="none">h14</text>
    </g>
    <g fill="rgb(255,204,0)" text-rendering="geometricPrecision" shape-rendering="geometricPrecision" transform="matrix(1,0,0,1,-176,-119)" stroke="rgb(255,204,0)">
      <circle r="15" clip-path="url(#clipPath2)" cx="370" cy="306" stroke="none"/>
    </g>
    <g text-rendering="geometricPrecision" stroke-miterlimit="1.45" shape-rendering="geometricPrecision" transform="matrix(1,0,0,1,-176,-119)" stroke-linecap="butt">
      <circle fill="none" r="15" clip-path="url(#clipPath2)" cx="370" cy="306"/>
      <text x="359.9893" xml:space="preserve" y="310.7139" clip-path="url(#clipPath2)" font-family="sans-serif" stroke="none">h22</text>
      <path fill="none" d="M219.9154 176.3999 L266.663 157.5868" clip-path="url(#clipPath2)" stroke="blue"/>
      <path fill="blue" d="M274.0846 154.6001 L261.0856 154.4417 L265.7354 157.9602 L264.819 163.7187 Z" clip-path="url(#clipPath2)" stroke="none"/>
      <path fill="none" d="M215.8012 232.645 L272.9715 166.411" clip-path="url(#clipPath2)"/>
      <path d="M278.1988 160.355 L266.5729 166.172 L272.3181 167.168 L274.1429 172.7061 Z" clip-path="url(#clipPath2)" stroke="none"/>
      <path fill="none" d="M220.1417 238.9987 L266.3161 222.6687" clip-path="url(#clipPath2)"/>
      <path d="M273.8583 220.0013 L260.8779 219.2885 L265.3733 223.0021 L264.2121 228.7163 Z" clip-path="url(#clipPath2)" stroke="none"/>
      <path fill="none" d="M219.9154 187.6001 L266.663 206.4132" clip-path="url(#clipPath2)" stroke="blue"/>
      <path fill="blue" d="M274.0846 209.3999 L264.819 200.2813 L265.7354 206.0398 L261.0856 209.5583 Z" clip-path="url(#clipPath2)" stroke="none"/>
      <path fill="none" d="M219.6726 250.1693 L267.0354 271.5403" clip-path="url(#clipPath2)"/>
      <path d="M274.3274 274.8307 L265.4458 265.3377 L266.1239 271.1291 L261.3329 274.4527 Z" clip-path="url(#clipPath2)" stroke="none"/>
      <path fill="none" d="M215.5683 193.552 L273.3286 263.287" clip-path="url(#clipPath2)" stroke="blue"/>
      <path fill="blue" d="M278.4317 269.448 L274.6277 257.017 L272.6907 262.5168 L266.9264 263.3959 Z" clip-path="url(#clipPath2)" stroke="none"/>
      <path fill="none" d="M301.9154 154.6001 L348.663 173.4132" clip-path="url(#clipPath2)" stroke="blue"/>
      <path fill="blue" d="M356.0846 176.3999 L346.819 167.2814 L347.7354 173.0398 L343.0856 176.5583 Z" clip-path="url(#clipPath2)" stroke="none"/>
      <path fill="none" d="M301.9154 209.3999 L348.663 190.5868" clip-path="url(#clipPath2)" stroke="red"/>
      <path fill="red" d="M356.0846 187.6001 L343.0856 187.4417 L347.7354 190.9602 L346.819 196.7186 Z" clip-path="url(#clipPath2)" stroke="none"/>
      <path fill="none" d="M297.5683 269.448 L355.3286 199.713" clip-path="url(#clipPath2)"/>
      <path d="M360.4317 193.552 L348.9264 199.6041 L354.6907 200.4831 L356.6277 205.983 Z" clip-path="url(#clipPath2)" stroke="none"/>
      <path fill="none" d="M297.8012 160.355 L354.9715 226.589" clip-path="url(#clipPath2)" stroke="blue"/>
      <path fill="blue" d="M360.1988 232.645 L356.1429 220.2939 L354.3181 225.832 L348.5729 226.828 Z" clip-path="url(#clipPath2)" stroke="none"/>
      <path fill="none" d="M302.1417 220.0013 L348.3161 236.3313" clip-path="url(#clipPath2)" stroke="red"/>
      <path fill="red" d="M355.8583 238.9987 L346.2121 230.2837 L347.3733 235.9979 L342.8779 239.7115 Z" clip-path="url(#clipPath2)" stroke="none"/>
      <path fill="none" d="M301.6726 274.8307 L349.0354 253.4596" clip-path="url(#clipPath2)"/>
      <path d="M356.3274 250.1693 L343.3329 250.5473 L348.1239 253.8709 L347.4458 259.6623 Z" clip-path="url(#clipPath2)" stroke="none"/>
      <path fill="none" d="M380.8541 192.3532 L418.357 228.1252" clip-path="url(#clipPath2)" stroke="blue"/>
      <path fill="blue" d="M424.1459 233.6468 L418.9136 221.7463 L417.6334 227.435 L412.0115 228.9824 Z" clip-path="url(#clipPath2)" stroke="none"/>
      <path fill="none" d="M385 244 L412 244" clip-path="url(#clipPath2)"/>
      <path d="M420 244 L408 239 L411 244 L408 249 Z" clip-path="url(#clipPath2)" stroke="none"/>
      <path fill="none" d="M220.5342 298.1133 L265.7061 286.6551" clip-path="url(#clipPath2)" stroke="fuchsia"/>
      <path fill="fuchsia" d="M273.4605 284.6881 L260.5995 282.792 L264.7368 286.9009 L263.0582 292.485 Z" clip-path="url(#clipPath2)" stroke="none"/>
      <path fill="none" d="M216.3101 290.8864 L272.2054 231.7192" clip-path="url(#clipPath2)" stroke="fuchsia"/>
      <path fill="fuchsia" d="M277.6992 225.9038 L265.8239 231.1933 L271.5187 232.4461 L273.0931 238.0605 Z" clip-path="url(#clipPath2)" stroke="none"/>
      <path fill="none" d="M213.1069 288.5568 L277.1242 169.2661" clip-path="url(#clipPath2)" stroke="fuchsia"/>
      <path fill="fuchsia" d="M280.9071 162.2171 L270.8271 170.4264 L276.6513 170.1473 L279.6384 175.155 Z" clip-path="url(#clipPath2)" stroke="none"/>
      <path fill="none" d="M219.1729 309.0611 L267.8574 335.897" clip-path="url(#clipPath2)" stroke="fuchsia"/>
      <path fill="fuchsia" d="M274.8635 339.7589 L266.7681 329.5872 L266.9817 335.4142 L261.9407 338.3448 Z" clip-path="url(#clipPath2)" stroke="none"/>
      <path fill="none" d="M215.3426 255.7352 L273.6747 329.006" clip-path="url(#clipPath2)"/>
      <path d="M278.6574 335.2648 L275.095 322.7624 L273.0518 328.2236 L267.2715 328.9908 Z" clip-path="url(#clipPath2)" stroke="none"/>
      <path fill="none" d="M212.6756 195.4326 L277.764 326.4033" clip-path="url(#clipPath2)" stroke="blue"/>
      <path fill="blue" d="M281.3244 333.5674 L280.4614 320.596 L277.319 325.5078 L271.5063 325.0464 Z" clip-path="url(#clipPath2)" stroke="none"/>
      <path fill="none" d="M297.3426 335.2648 L355.6747 261.994" clip-path="url(#clipPath2)" stroke="fuchsia"/>
      <path fill="fuchsia" d="M360.6574 255.7352 L349.2715 262.0092 L355.0518 262.7764 L357.095 268.2376 Z" clip-path="url(#clipPath2)" stroke="none"/>
      <path fill="none" d="M294.6756 333.5674 L359.764 202.5967" clip-path="url(#clipPath2)" stroke="fuchsia"/>
      <path fill="fuchsia" d="M363.3244 195.4326 L353.5063 203.9536 L359.319 203.4922 L362.4614 208.404 Z" clip-path="url(#clipPath2)" stroke="none"/>
      <path fill="none" d="M294.9443 162.2957 L359.3521 285.6132" clip-path="url(#clipPath2)" stroke="blue"/>
      <path fill="blue" d="M363.0557 292.7043 L361.9322 279.7529 L358.8892 284.7268 L353.0684 284.3824 Z" clip-path="url(#clipPath2)" stroke="none"/>
      <path fill="none" d="M298.0412 226.1433 L354.6035 288.9136" clip-path="url(#clipPath2)" stroke="red"/>
      <path fill="red" d="M359.9588 294.8567 L355.6403 282.5949 L353.9341 288.1707 L348.2114 289.2891 Z" clip-path="url(#clipPath2)" stroke="none"/>
      <path fill="none" d="M302.348 285.3744 L347.9998 299.2926" clip-path="url(#clipPath2)"/>
      <path d="M355.652 301.6256 L345.6317 293.3434 L347.0432 299.001 L342.7155 302.9088 Z" clip-path="url(#clipPath2)" stroke="none"/>
      <path fill="none" d="M301.4164 340.2918 L349.4282 316.2859" clip-path="url(#clipPath2)" stroke="fuchsia"/>
      <path fill="fuchsia" d="M356.5836 312.7082 L343.6144 313.6026 L348.5337 316.7331 L348.0865 322.5469 Z" clip-path="url(#clipPath2)" stroke="none"/>
      <path fill="none" d="M380.8541 295.6469 L418.357 259.8748" clip-path="url(#clipPath2)" stroke="fuchsia"/>
      <path fill="fuchsia" d="M424.1459 254.3532 L412.0115 259.0176 L417.6334 260.5651 L418.9136 266.2537 Z" clip-path="url(#clipPath2)" stroke="none"/>
    </g>
  </g>
</svg>
