<?xml version="1.0" encoding="UTF-8"?><svg xmlns="http://www.w3.org/2000/svg" xmlns:xlink="http://www.w3.org/1999/xlink" fill-opacity="1" color-rendering="auto" color-interpolation="auto" text-rendering="auto" stroke="black" stroke-linecap="square" width="930" stroke-miterlimit="10" shape-rendering="auto" stroke-opacity="1" fill="black" stroke-dasharray="none" font-weight="normal" stroke-width="1" height="374" font-family="'Dialog'" font-style="normal" stroke-linejoin="miter" font-size="12px" stroke-dashoffset="0" image-rendering="auto">
  <!--Generated by ySVG 2.5-->
  <defs id="genericDefs"/>
  <g>
    <defs id="defs1">
      <linearGradient x1="339.1" gradientUnits="userSpaceOnUse" x2="419.1" y1="102.7618" y2="142.7618" id="linearGradient1" spreadMethod="reflect">
        <stop stop-opacity="1" stop-color="rgb(232,238,247)" offset="0%"/>
        <stop stop-opacity="1" stop-color="rgb(183,201,227)" offset="100%"/>
      </linearGradient>
      <linearGradient x1="225.6" gradientUnits="userSpaceOnUse" x2="305.6" y1="196.7618" y2="236.7618" id="linearGradient2" spreadMethod="reflect">
        <stop stop-opacity="1" stop-color="rgb(232,238,247)" offset="0%"/>
        <stop stop-opacity="1" stop-color="rgb(183,201,227)" offset="100%"/>
      </linearGradient>
      <linearGradient x1="339.1" gradientUnits="userSpaceOnUse" x2="419.1" y1="290.7618" y2="330.7618" id="linearGradient3" spreadMethod="reflect">
        <stop stop-opacity="1" stop-color="rgb(232,238,247)" offset="0%"/>
        <stop stop-opacity="1" stop-color="rgb(183,201,227)" offset="100%"/>
      </linearGradient>
      <linearGradient x1="339.1" gradientUnits="userSpaceOnUse" x2="419.1" y1="196.7618" y2="236.7618" id="linearGradient4" spreadMethod="reflect">
        <stop stop-opacity="1" stop-color="rgb(232,238,247)" offset="0%"/>
        <stop stop-opacity="1" stop-color="rgb(183,201,227)" offset="100%"/>
      </linearGradient>
      <linearGradient x1="225.6" gradientUnits="userSpaceOnUse" x2="305.6" y1="283.7618" y2="323.7618" id="linearGradient5" spreadMethod="reflect">
        <stop stop-opacity="1" stop-color="rgb(232,238,247)" offset="0%"/>
        <stop stop-opacity="1" stop-color="rgb(183,201,227)" offset="100%"/>
      </linearGradient>
      <linearGradient x1="225.6" gradientUnits="userSpaceOnUse" x2="305.6" y1="102.7618" y2="142.7618" id="linearGradient6" spreadMethod="reflect">
        <stop stop-opacity="1" stop-color="rgb(232,238,247)" offset="0%"/>
        <stop stop-opacity="1" stop-color="rgb(183,201,227)" offset="100%"/>
      </linearGradient>
      <linearGradient x1="714.2667" gradientUnits="userSpaceOnUse" x2="794.2667" y1="109.7618" y2="149.7618" id="linearGradient7" spreadMethod="reflect">
        <stop stop-opacity="1" stop-color="rgb(232,238,247)" offset="0%"/>
        <stop stop-opacity="1" stop-color="rgb(183,201,227)" offset="100%"/>
      </linearGradient>
      <linearGradient x1="600.7667" gradientUnits="userSpaceOnUse" x2="680.7667" y1="196.7618" y2="236.7618" id="linearGradient8" spreadMethod="reflect">
        <stop stop-opacity="1" stop-color="rgb(232,238,247)" offset="0%"/>
        <stop stop-opacity="1" stop-color="rgb(183,201,227)" offset="100%"/>
      </linearGradient>
      <linearGradient x1="714.2667" gradientUnits="userSpaceOnUse" x2="794.2667" y1="290.7618" y2="330.7618" id="linearGradient9" spreadMethod="reflect">
        <stop stop-opacity="1" stop-color="rgb(232,238,247)" offset="0%"/>
        <stop stop-opacity="1" stop-color="rgb(183,201,227)" offset="100%"/>
      </linearGradient>
      <linearGradient x1="714.2667" gradientUnits="userSpaceOnUse" x2="794.2667" y1="196.7618" y2="236.7618" id="linearGradient10" spreadMethod="reflect">
        <stop stop-opacity="1" stop-color="rgb(232,238,247)" offset="0%"/>
        <stop stop-opacity="1" stop-color="rgb(183,201,227)" offset="100%"/>
      </linearGradient>
      <linearGradient x1="600.7667" gradientUnits="userSpaceOnUse" x2="680.7667" y1="283.7618" y2="323.7618" id="linearGradient11" spreadMethod="reflect">
        <stop stop-opacity="1" stop-color="rgb(232,238,247)" offset="0%"/>
        <stop stop-opacity="1" stop-color="rgb(183,201,227)" offset="100%"/>
      </linearGradient>
      <linearGradient x1="600.7667" gradientUnits="userSpaceOnUse" x2="680.7667" y1="109.7618" y2="149.7618" id="linearGradient12" spreadMethod="reflect">
        <stop stop-opacity="1" stop-color="rgb(232,238,247)" offset="0%"/>
        <stop stop-opacity="1" stop-color="rgb(183,201,227)" offset="100%"/>
      </linearGradient>
      <linearGradient x1="487.2667" gradientUnits="userSpaceOnUse" x2="567.2667" y1="196.7618" y2="236.7618" id="linearGradient13" spreadMethod="reflect">
        <stop stop-opacity="1" stop-color="rgb(232,238,247)" offset="0%"/>
        <stop stop-opacity="1" stop-color="rgb(183,201,227)" offset="100%"/>
      </linearGradient>
      <linearGradient x1="100.6" gradientUnits="userSpaceOnUse" x2="180.6" y1="109.7618" y2="149.7618" id="linearGradient14" spreadMethod="reflect">
        <stop stop-opacity="1" stop-color="rgb(232,238,247)" offset="0%"/>
        <stop stop-opacity="1" stop-color="rgb(183,201,227)" offset="100%"/>
      </linearGradient>
      <linearGradient x1="100.6" gradientUnits="userSpaceOnUse" x2="180.6" y1="203.7618" y2="243.7618" id="linearGradient15" spreadMethod="reflect">
        <stop stop-opacity="1" stop-color="rgb(232,238,247)" offset="0%"/>
        <stop stop-opacity="1" stop-color="rgb(183,201,227)" offset="100%"/>
      </linearGradient>
      <linearGradient x1="100.6" gradientUnits="userSpaceOnUse" x2="180.6" y1="290.7618" y2="330.7618" id="linearGradient16" spreadMethod="reflect">
        <stop stop-opacity="1" stop-color="rgb(232,238,247)" offset="0%"/>
        <stop stop-opacity="1" stop-color="rgb(183,201,227)" offset="100%"/>
      </linearGradient>
      <linearGradient x1="-16.0667" gradientUnits="userSpaceOnUse" x2="63.9333" y1="203.7618" y2="243.7618" id="linearGradient17" spreadMethod="reflect">
        <stop stop-opacity="1" stop-color="rgb(232,238,247)" offset="0%"/>
        <stop stop-opacity="1" stop-color="rgb(183,201,227)" offset="100%"/>
      </linearGradient>
      <clipPath clipPathUnits="userSpaceOnUse" id="clipPath1">
        <path d="M0 0 L930 0 L930 374 L0 374 L0 0 Z"/>
      </clipPath>
      <clipPath clipPathUnits="userSpaceOnUse" id="clipPath2">
        <path d="M-77 -1 L853 -1 L853 373 L-77 373 L-77 -1 Z"/>
      </clipPath>
    </defs>
    <g fill="white" text-rendering="geometricPrecision" shape-rendering="geometricPrecision" transform="translate(77,1)" stroke="white">
      <rect x="-77" width="930" height="374" y="-1" clip-path="url(#clipPath2)" stroke="none"/>
    </g>
    <g fill="rgb(245,245,245)" text-rendering="geometricPrecision" shape-rendering="geometricPrecision" transform="matrix(1,0,0,1,77,1)" stroke="rgb(245,245,245)">
      <rect x="210.6" y="14.2088" clip-path="url(#clipPath2)" width="252.4" rx="4" ry="4" height="343.4529" stroke="none"/>
      <rect x="210.6" y="14.2088" clip-path="url(#clipPath2)" fill="rgb(235,235,235)" width="252.4" height="22.3765" stroke="none"/>
    </g>
    <g font-size="15px" stroke-linecap="butt" transform="matrix(1,0,0,1,77,1)" text-rendering="geometricPrecision" font-family="sans-serif" shape-rendering="geometricPrecision" stroke-miterlimit="1.45">
      <text x="279.6821" xml:space="preserve" y="31.2894" clip-path="url(#clipPath2)" stroke="none">Machine learning</text>
      <rect x="210.6" y="14.2088" clip-path="url(#clipPath2)" fill="none" width="252.4" stroke-dasharray="6,2" rx="4" ry="4" height="343.4529"/>
    </g>
    <g fill="rgb(255,255,170)" text-rendering="geometricPrecision" shape-rendering="geometricPrecision" transform="matrix(1,0,0,1,77,1)" stroke="rgb(255,255,170)">
      <rect x="325.6" y="90.8618" clip-path="url(#clipPath2)" width="122.4" rx="4" ry="4" height="251.8" stroke="none"/>
    </g>
    <g stroke-linecap="round" transform="matrix(1,0,0,1,77,1)" stroke-dashoffset="2" text-rendering="geometricPrecision" shape-rendering="geometricPrecision" stroke-dasharray="0,8" stroke-width="2" stroke-miterlimit="1.45">
      <rect x="325.6" y="90.8618" clip-path="url(#clipPath2)" fill="none" width="122.4" rx="4" ry="4" height="251.8"/>
    </g>
    <g fill="url(#linearGradient1)" text-rendering="geometricPrecision" shape-rendering="geometricPrecision" transform="matrix(1,0,0,1,77,1)" stroke="url(#linearGradient1)">
      <path d="M339.1 112.7618 L419.1 102.7618 L419.1 142.7618 L339.1 142.7618 Z" stroke="none" clip-path="url(#clipPath2)"/>
    </g>
    <g text-rendering="geometricPrecision" stroke-miterlimit="1.45" shape-rendering="geometricPrecision" transform="matrix(1,0,0,1,77,1)" stroke-linecap="butt">
      <path fill="none" d="M339.1 112.7618 L419.1 102.7618 L419.1 142.7618 L339.1 142.7618 Z" clip-path="url(#clipPath2)"/>
      <text x="362.7582" xml:space="preserve" y="127.4756" clip-path="url(#clipPath2)" font-family="sans-serif" stroke="none">invoer</text>
    </g>
    <g fill="url(#linearGradient2)" text-rendering="geometricPrecision" shape-rendering="geometricPrecision" transform="matrix(1,0,0,1,77,1)" stroke="url(#linearGradient2)">
      <path d="M225.6 196.7618 L305.6 196.7618 L305.6 236.7618 L225.6 236.7618 Z" stroke="none" clip-path="url(#clipPath2)"/>
    </g>
    <g text-rendering="geometricPrecision" stroke-miterlimit="1.45" shape-rendering="geometricPrecision" transform="matrix(1,0,0,1,77,1)" stroke-linecap="butt">
      <path fill="none" d="M225.6 196.7618 L305.6 196.7618 L305.6 236.7618 L225.6 236.7618 Z" clip-path="url(#clipPath2)"/>
      <text x="240.9232" xml:space="preserve" y="214.125" clip-path="url(#clipPath2)" font-family="sans-serif" stroke="none">algoritme</text>
      <text x="245.9213" xml:space="preserve" y="228.8262" clip-path="url(#clipPath2)" font-family="sans-serif" stroke="none">training</text>
    </g>
    <g fill="url(#linearGradient3)" text-rendering="geometricPrecision" shape-rendering="geometricPrecision" transform="matrix(1,0,0,1,77,1)" stroke="url(#linearGradient3)">
      <rect x="339.1" y="290.7618" clip-path="url(#clipPath2)" width="80" rx="20" ry="20" height="40" stroke="none"/>
    </g>
    <g text-rendering="geometricPrecision" stroke-miterlimit="1.45" shape-rendering="geometricPrecision" transform="matrix(1,0,0,1,77,1)" stroke-linecap="butt">
      <rect x="339.1" y="290.7618" clip-path="url(#clipPath2)" fill="none" width="80" rx="20" ry="20" height="40"/>
      <text x="361.0912" xml:space="preserve" y="315.4756" clip-path="url(#clipPath2)" font-family="sans-serif" stroke="none">uitvoer</text>
    </g>
    <g fill="url(#linearGradient4)" text-rendering="geometricPrecision" shape-rendering="geometricPrecision" transform="matrix(1,0,0,1,77,1)" stroke="url(#linearGradient4)">
      <path d="M339.1 196.7618 L419.1 196.7618 L419.1 236.7618 L339.1 236.7618 Z" stroke="none" clip-path="url(#clipPath2)"/>
    </g>
    <g text-rendering="geometricPrecision" stroke-miterlimit="1.45" shape-rendering="geometricPrecision" transform="matrix(1,0,0,1,77,1)" stroke-linecap="butt">
      <path fill="none" d="M339.1 196.7618 L419.1 196.7618 L419.1 236.7618 L339.1 236.7618 Z" clip-path="url(#clipPath2)"/>
      <text x="354.4232" xml:space="preserve" y="214.125" clip-path="url(#clipPath2)" font-family="sans-serif" stroke="none">algoritme</text>
      <text x="364.0854" xml:space="preserve" y="228.8262" clip-path="url(#clipPath2)" font-family="sans-serif" stroke="none">agent</text>
    </g>
    <g fill="url(#linearGradient5)" text-rendering="geometricPrecision" shape-rendering="geometricPrecision" transform="matrix(1,0,0,1,77,1)" stroke="url(#linearGradient5)">
      <path d="M225.6 283.7618 L305.6 283.7618 L305.6 323.7618 L225.6 323.7618 Z" stroke="none" clip-path="url(#clipPath2)"/>
    </g>
    <g text-rendering="geometricPrecision" stroke-miterlimit="1.45" shape-rendering="geometricPrecision" transform="matrix(1,0,0,1,77,1)" stroke-linecap="butt">
      <path fill="none" d="M225.6 283.7618 L305.6 283.7618 L305.6 323.7618 L225.6 323.7618 Z" clip-path="url(#clipPath2)"/>
      <text x="240.9232" xml:space="preserve" y="301.1251" clip-path="url(#clipPath2)" font-family="sans-serif" stroke="none">algoritme</text>
      <text x="250.5854" xml:space="preserve" y="315.8262" clip-path="url(#clipPath2)" font-family="sans-serif" stroke="none">agent</text>
    </g>
    <g fill="url(#linearGradient6)" text-rendering="geometricPrecision" shape-rendering="geometricPrecision" transform="matrix(1,0,0,1,77,1)" stroke="url(#linearGradient6)">
      <path d="M235.8 102.7618 L305.6 102.7618 L295.4 142.7618 L225.6 142.7618 Z" stroke="none" clip-path="url(#clipPath2)"/>
    </g>
    <g text-rendering="geometricPrecision" stroke-miterlimit="1.45" shape-rendering="geometricPrecision" transform="matrix(1,0,0,1,77,1)" stroke-linecap="butt">
      <path fill="none" d="M235.8 102.7618 L305.6 102.7618 L295.4 142.7618 L225.6 142.7618 Z" clip-path="url(#clipPath2)"/>
      <text x="240.9232" xml:space="preserve" y="120.125" clip-path="url(#clipPath2)" font-family="sans-serif" stroke="none">trainings-</text>
      <text x="253.9223" xml:space="preserve" y="134.8262" clip-path="url(#clipPath2)" font-family="sans-serif" stroke="none">data</text>
    </g>
    <g fill="rgb(255,255,170)" text-rendering="geometricPrecision" shape-rendering="geometricPrecision" transform="matrix(1,0,0,1,77,1)" stroke="rgb(255,255,170)">
      <rect x="325.6" y="69.9618" clip-path="url(#clipPath2)" width="122.4" rx="4" ry="4" height="28.8" stroke="none"/>
    </g>
    <g stroke-linecap="round" transform="matrix(1,0,0,1,77,1)" stroke-dashoffset="2" text-rendering="geometricPrecision" shape-rendering="geometricPrecision" stroke-dasharray="0,8" stroke-width="2" stroke-miterlimit="1.45">
      <rect x="325.6" y="69.9618" clip-path="url(#clipPath2)" fill="none" width="122.4" rx="4" ry="4" height="28.8"/>
    </g>
    <g text-rendering="geometricPrecision" stroke-miterlimit="1.45" shape-rendering="geometricPrecision" font-family="sans-serif" transform="matrix(1,0,0,1,77,1)" stroke-linecap="butt">
      <text x="371.7853" xml:space="preserve" y="89.0756" clip-path="url(#clipPath2)" stroke="none">agent</text>
      <path fill="none" d="M379.1 142.7276 L379.1 188.7711" clip-path="url(#clipPath2)"/>
      <path d="M379.1 196.7711 L384.1 184.7711 L379.1 187.7711 L374.1 184.7711 Z" clip-path="url(#clipPath2)" stroke="none"/>
      <path fill="none" d="M379.1 236.7276 L379.1 282.7711" clip-path="url(#clipPath2)"/>
      <path d="M379.1 290.7711 L384.1 278.7711 L379.1 281.7711 L374.1 278.7711 Z" clip-path="url(#clipPath2)" stroke="none"/>
      <path fill="none" d="M265.6 236.7701 L265.6 275.7755" clip-path="url(#clipPath2)"/>
      <path d="M265.6 283.7755 L270.6 271.7755 L265.6 274.7755 L260.6 271.7755 Z" clip-path="url(#clipPath2)" stroke="none"/>
      <path fill="none" stroke-dasharray="6,2" d="M305.612 303.7618 L318.4333 303.7618 L318.4333 214.7618 L331.0759 214.7618" clip-path="url(#clipPath2)"/>
      <path stroke-dasharray="6,2" d="M339.0759 214.7618 L327.0759 209.7618 L330.0759 214.7618 L327.0759 219.7618 Z" clip-path="url(#clipPath2)" stroke="none"/>
      <path fill="none" d="M265.6 142.7349 L265.6 173.2618 L265.6 173.2618 L265.6 188.7535" clip-path="url(#clipPath2)"/>
      <path d="M265.6 196.7535 L270.6 184.7535 L265.6 187.7535 L260.6 184.7535 Z" clip-path="url(#clipPath2)" stroke="none"/>
    </g>
    <g fill="rgb(245,245,245)" text-rendering="geometricPrecision" shape-rendering="geometricPrecision" transform="matrix(1,0,0,1,77,1)" stroke="rgb(245,245,245)">
      <rect x="472.2667" y="14.2088" clip-path="url(#clipPath2)" width="365.2" rx="4" ry="4" height="343.4529" stroke="none"/>
      <rect x="472.2667" y="14.2088" clip-path="url(#clipPath2)" fill="rgb(235,235,235)" width="365.2" height="22.3765" stroke="none"/>
    </g>
    <g font-size="15px" stroke-linecap="butt" transform="matrix(1,0,0,1,77,1)" text-rendering="geometricPrecision" font-family="sans-serif" shape-rendering="geometricPrecision" stroke-miterlimit="1.45">
      <text x="591.915" xml:space="preserve" y="31.2894" clip-path="url(#clipPath2)" stroke="none">Neurale netwerken</text>
      <rect x="472.2667" y="14.2088" clip-path="url(#clipPath2)" fill="none" width="365.2" stroke-dasharray="6,2" rx="4" ry="4" height="343.4529"/>
    </g>
    <g fill="rgb(255,255,170)" text-rendering="geometricPrecision" shape-rendering="geometricPrecision" transform="matrix(1,0,0,1,77,1)" stroke="rgb(255,255,170)">
      <rect x="700.0667" y="90.8618" clip-path="url(#clipPath2)" width="122.4" rx="4" ry="4" height="251.8" stroke="none"/>
    </g>
    <g stroke-linecap="round" transform="matrix(1,0,0,1,77,1)" stroke-dashoffset="2" text-rendering="geometricPrecision" shape-rendering="geometricPrecision" stroke-dasharray="0,8" stroke-width="2" stroke-miterlimit="1.45">
      <rect x="700.0667" y="90.8618" clip-path="url(#clipPath2)" fill="none" width="122.4" rx="4" ry="4" height="251.8"/>
    </g>
    <g fill="url(#linearGradient7)" text-rendering="geometricPrecision" shape-rendering="geometricPrecision" transform="matrix(1,0,0,1,77,1)" stroke="url(#linearGradient7)">
      <path d="M714.2667 119.7618 L794.2667 109.7618 L794.2667 149.7618 L714.2667 149.7618 Z" stroke="none" clip-path="url(#clipPath2)"/>
    </g>
    <g text-rendering="geometricPrecision" stroke-miterlimit="1.45" shape-rendering="geometricPrecision" transform="matrix(1,0,0,1,77,1)" stroke-linecap="butt">
      <path fill="none" d="M714.2667 119.7618 L794.2667 109.7618 L794.2667 149.7618 L714.2667 149.7618 Z" clip-path="url(#clipPath2)"/>
      <text x="737.9249" xml:space="preserve" y="134.4756" clip-path="url(#clipPath2)" font-family="sans-serif" stroke="none">invoer</text>
    </g>
    <g fill="url(#linearGradient8)" text-rendering="geometricPrecision" shape-rendering="geometricPrecision" transform="matrix(1,0,0,1,77,1)" stroke="url(#linearGradient8)">
      <path d="M600.7667 196.7618 L680.7667 196.7618 L680.7667 236.7618 L600.7667 236.7618 Z" stroke="none" clip-path="url(#clipPath2)"/>
    </g>
    <g text-rendering="geometricPrecision" stroke-miterlimit="1.45" shape-rendering="geometricPrecision" transform="matrix(1,0,0,1,77,1)" stroke-linecap="butt">
      <path fill="none" d="M600.7667 196.7618 L680.7667 196.7618 L680.7667 236.7618 L600.7667 236.7618 Z" clip-path="url(#clipPath2)"/>
      <text x="616.0899" xml:space="preserve" y="214.125" clip-path="url(#clipPath2)" font-family="sans-serif" stroke="none">algoritme</text>
      <text x="621.088" xml:space="preserve" y="228.8262" clip-path="url(#clipPath2)" font-family="sans-serif" stroke="none">training</text>
    </g>
    <g fill="url(#linearGradient9)" text-rendering="geometricPrecision" shape-rendering="geometricPrecision" transform="matrix(1,0,0,1,77,1)" stroke="url(#linearGradient9)">
      <rect x="714.2667" y="290.7618" clip-path="url(#clipPath2)" width="80" rx="20" ry="20" height="40" stroke="none"/>
    </g>
    <g text-rendering="geometricPrecision" stroke-miterlimit="1.45" shape-rendering="geometricPrecision" transform="matrix(1,0,0,1,77,1)" stroke-linecap="butt">
      <rect x="714.2667" y="290.7618" clip-path="url(#clipPath2)" fill="none" width="80" rx="20" ry="20" height="40"/>
      <text x="736.2579" xml:space="preserve" y="315.4756" clip-path="url(#clipPath2)" font-family="sans-serif" stroke="none">uitvoer</text>
    </g>
    <g fill="url(#linearGradient10)" text-rendering="geometricPrecision" shape-rendering="geometricPrecision" transform="matrix(1,0,0,1,77,1)" stroke="url(#linearGradient10)">
      <path d="M714.2667 196.7618 L794.2667 196.7618 L794.2667 236.7618 L714.2667 236.7618 Z" stroke="none" clip-path="url(#clipPath2)"/>
    </g>
    <g text-rendering="geometricPrecision" stroke-miterlimit="1.45" shape-rendering="geometricPrecision" transform="matrix(1,0,0,1,77,1)" stroke-linecap="butt">
      <path fill="none" d="M714.2667 196.7618 L794.2667 196.7618 L794.2667 236.7618 L714.2667 236.7618 Z" clip-path="url(#clipPath2)"/>
      <text x="729.5899" xml:space="preserve" y="214.125" clip-path="url(#clipPath2)" font-family="sans-serif" stroke="none">algoritme</text>
      <text x="739.252" xml:space="preserve" y="228.8262" clip-path="url(#clipPath2)" font-family="sans-serif" stroke="none">agent</text>
    </g>
    <g fill="url(#linearGradient11)" text-rendering="geometricPrecision" shape-rendering="geometricPrecision" transform="matrix(1,0,0,1,77,1)" stroke="url(#linearGradient11)">
      <path d="M600.7667 283.7618 L680.7667 283.7618 L680.7667 323.7618 L600.7667 323.7618 Z" stroke="none" clip-path="url(#clipPath2)"/>
    </g>
    <g text-rendering="geometricPrecision" stroke-miterlimit="1.45" shape-rendering="geometricPrecision" transform="matrix(1,0,0,1,77,1)" stroke-linecap="butt">
      <path fill="none" d="M600.7667 283.7618 L680.7667 283.7618 L680.7667 323.7618 L600.7667 323.7618 Z" clip-path="url(#clipPath2)"/>
      <text x="616.0899" xml:space="preserve" y="301.1251" clip-path="url(#clipPath2)" font-family="sans-serif" stroke="none">algoritme</text>
      <text x="625.752" xml:space="preserve" y="315.8262" clip-path="url(#clipPath2)" font-family="sans-serif" stroke="none">agent</text>
    </g>
    <g fill="url(#linearGradient12)" text-rendering="geometricPrecision" shape-rendering="geometricPrecision" transform="matrix(1,0,0,1,77,1)" stroke="url(#linearGradient12)">
      <path d="M610.9667 109.7618 L680.7667 109.7618 L670.5667 149.7618 L600.7667 149.7618 Z" stroke="none" clip-path="url(#clipPath2)"/>
    </g>
    <g text-rendering="geometricPrecision" stroke-miterlimit="1.45" shape-rendering="geometricPrecision" transform="matrix(1,0,0,1,77,1)" stroke-linecap="butt">
      <path fill="none" d="M610.9667 109.7618 L680.7667 109.7618 L670.5667 149.7618 L600.7667 149.7618 Z" clip-path="url(#clipPath2)"/>
      <text x="619.4268" xml:space="preserve" y="127.125" clip-path="url(#clipPath2)" font-family="sans-serif" stroke="none">trainigs-</text>
      <text x="629.0889" xml:space="preserve" y="141.8262" clip-path="url(#clipPath2)" font-family="sans-serif" stroke="none">data</text>
    </g>
    <g fill="url(#linearGradient13)" text-rendering="geometricPrecision" shape-rendering="geometricPrecision" transform="matrix(1,0,0,1,77,1)" stroke="url(#linearGradient13)">
      <path d="M497.4667 196.7618 L567.2667 196.7618 L557.0667 236.7618 L487.2667 236.7618 Z" stroke="none" clip-path="url(#clipPath2)"/>
    </g>
    <g text-rendering="geometricPrecision" stroke-miterlimit="1.45" shape-rendering="geometricPrecision" transform="matrix(1,0,0,1,77,1)" stroke-linecap="butt">
      <path fill="none" d="M497.4667 196.7618 L567.2667 196.7618 L557.0667 236.7618 L487.2667 236.7618 Z" clip-path="url(#clipPath2)"/>
      <text x="505.921" xml:space="preserve" y="214.125" clip-path="url(#clipPath2)" font-family="sans-serif" stroke="none">ontwerp</text>
      <text x="506.2579" xml:space="preserve" y="228.8262" clip-path="url(#clipPath2)" font-family="sans-serif" stroke="none">netwerk</text>
    </g>
    <g fill="rgb(255,255,170)" text-rendering="geometricPrecision" shape-rendering="geometricPrecision" transform="matrix(1,0,0,1,77,1)" stroke="rgb(255,255,170)">
      <rect x="700.0667" y="69.9618" clip-path="url(#clipPath2)" width="122.4" rx="4" ry="4" height="28.8" stroke="none"/>
    </g>
    <g stroke-linecap="round" transform="matrix(1,0,0,1,77,1)" stroke-dashoffset="2" text-rendering="geometricPrecision" shape-rendering="geometricPrecision" stroke-dasharray="0,8" stroke-width="2" stroke-miterlimit="1.45">
      <rect x="700.0667" y="69.9618" clip-path="url(#clipPath2)" fill="none" width="122.4" rx="4" ry="4" height="28.8"/>
    </g>
    <g text-rendering="geometricPrecision" stroke-miterlimit="1.45" shape-rendering="geometricPrecision" font-family="sans-serif" transform="matrix(1,0,0,1,77,1)" stroke-linecap="butt">
      <text x="746.252" xml:space="preserve" y="89.0756" clip-path="url(#clipPath2)" stroke="none">agent</text>
      <path fill="none" d="M754.2667 149.7701 L754.2667 188.7755" clip-path="url(#clipPath2)"/>
      <path d="M754.2667 196.7755 L759.2667 184.7755 L754.2667 187.7755 L749.2667 184.7755 Z" clip-path="url(#clipPath2)" stroke="none"/>
      <path fill="none" d="M754.2667 236.7276 L754.2667 282.7711" clip-path="url(#clipPath2)"/>
      <path d="M754.2667 290.7711 L759.2667 278.7711 L754.2667 281.7711 L749.2667 278.7711 Z" clip-path="url(#clipPath2)" stroke="none"/>
      <path fill="none" d="M640.7667 236.7701 L640.7667 275.7755" clip-path="url(#clipPath2)"/>
      <path d="M640.7667 283.7755 L645.7667 271.7755 L640.7667 274.7755 L635.7667 271.7755 Z" clip-path="url(#clipPath2)" stroke="none"/>
      <path fill="none" stroke-dasharray="6,2" d="M680.7786 303.7618 L693.6 303.7618 L693.6 214.7618 L706.2426 214.7618" clip-path="url(#clipPath2)"/>
      <path stroke-dasharray="6,2" d="M714.2426 214.7618 L702.2426 209.7618 L705.2426 214.7618 L702.2426 219.7618 Z" clip-path="url(#clipPath2)" stroke="none"/>
      <path fill="none" d="M640.7667 149.7701 L640.7667 188.7755" clip-path="url(#clipPath2)"/>
      <path d="M640.7667 196.7755 L645.7667 184.7755 L640.7667 187.7755 L635.7667 184.7755 Z" clip-path="url(#clipPath2)" stroke="none"/>
      <path fill="none" d="M562.1949 216.7618 L592.7744 216.7618" clip-path="url(#clipPath2)"/>
      <path d="M600.7744 216.7618 L588.7744 211.7618 L591.7744 216.7618 L588.7744 221.7618 Z" clip-path="url(#clipPath2)" stroke="none"/>
    </g>
    <g fill="rgb(245,245,245)" text-rendering="geometricPrecision" shape-rendering="geometricPrecision" transform="matrix(1,0,0,1,77,1)" stroke="rgb(245,245,245)">
      <rect x="-61.5667" y="14.2088" clip-path="url(#clipPath2)" width="262.9" rx="4" ry="4" height="343.4529" stroke="none"/>
      <rect x="-61.5667" y="14.2088" clip-path="url(#clipPath2)" fill="rgb(235,235,235)" width="262.9" height="40.7529" stroke="none"/>
    </g>
    <g font-size="15px" stroke-linecap="butt" transform="matrix(1,0,0,1,77,1)" text-rendering="geometricPrecision" font-family="sans-serif" shape-rendering="geometricPrecision" stroke-miterlimit="1.45">
      <text x="17.3687" xml:space="preserve" y="31.2894" clip-path="url(#clipPath2)" stroke="none">Direct algoritme</text>
      <text x="-21.8415" xml:space="preserve" y="49.6659" clip-path="url(#clipPath2)" stroke="none">(geen AI en niet lerende AI)</text>
      <rect x="-61.5667" y="14.2088" clip-path="url(#clipPath2)" fill="none" width="262.9" stroke-dasharray="6,2" rx="4" ry="4" height="343.4529"/>
    </g>
    <g fill="rgb(255,255,170)" text-rendering="geometricPrecision" shape-rendering="geometricPrecision" transform="matrix(1,0,0,1,77,1)" stroke="rgb(255,255,170)">
      <rect x="-38.0667" y="95.8618" clip-path="url(#clipPath2)" width="224.4" rx="4" ry="4" height="246.8" stroke="none"/>
    </g>
    <g stroke-linecap="round" transform="matrix(1,0,0,1,77,1)" stroke-dashoffset="2" text-rendering="geometricPrecision" shape-rendering="geometricPrecision" stroke-dasharray="0,8" stroke-width="2" stroke-miterlimit="1.45">
      <rect x="-38.0667" y="95.8618" clip-path="url(#clipPath2)" fill="none" width="224.4" rx="4" ry="4" height="246.8"/>
    </g>
    <g fill="url(#linearGradient14)" text-rendering="geometricPrecision" shape-rendering="geometricPrecision" transform="matrix(1,0,0,1,77,1)" stroke="url(#linearGradient14)">
      <path d="M100.6 119.7618 L180.6 109.7618 L180.6 149.7618 L100.6 149.7618 Z" stroke="none" clip-path="url(#clipPath2)"/>
    </g>
    <g text-rendering="geometricPrecision" stroke-miterlimit="1.45" shape-rendering="geometricPrecision" transform="matrix(1,0,0,1,77,1)" stroke-linecap="butt">
      <path fill="none" d="M100.6 119.7618 L180.6 109.7618 L180.6 149.7618 L100.6 149.7618 Z" clip-path="url(#clipPath2)"/>
      <text x="124.2582" xml:space="preserve" y="134.4756" clip-path="url(#clipPath2)" font-family="sans-serif" stroke="none">invoer</text>
    </g>
    <g fill="url(#linearGradient15)" text-rendering="geometricPrecision" shape-rendering="geometricPrecision" transform="matrix(1,0,0,1,77,1)" stroke="url(#linearGradient15)">
      <path d="M100.6 203.7618 L180.6 203.7618 L180.6 243.7618 L100.6 243.7618 Z" stroke="none" clip-path="url(#clipPath2)"/>
    </g>
    <g text-rendering="geometricPrecision" stroke-miterlimit="1.45" shape-rendering="geometricPrecision" transform="matrix(1,0,0,1,77,1)" stroke-linecap="butt">
      <path fill="none" d="M100.6 203.7618 L180.6 203.7618 L180.6 243.7618 L100.6 243.7618 Z" clip-path="url(#clipPath2)"/>
      <text x="115.9232" xml:space="preserve" y="228.4756" clip-path="url(#clipPath2)" font-family="sans-serif" stroke="none">algoritme</text>
    </g>
    <g fill="url(#linearGradient16)" text-rendering="geometricPrecision" shape-rendering="geometricPrecision" transform="matrix(1,0,0,1,77,1)" stroke="url(#linearGradient16)">
      <rect x="100.6" y="290.7618" clip-path="url(#clipPath2)" width="80" rx="20" ry="20" height="40" stroke="none"/>
    </g>
    <g text-rendering="geometricPrecision" stroke-miterlimit="1.45" shape-rendering="geometricPrecision" transform="matrix(1,0,0,1,77,1)" stroke-linecap="butt">
      <rect x="100.6" y="290.7618" clip-path="url(#clipPath2)" fill="none" width="80" rx="20" ry="20" height="40"/>
      <text x="122.5912" xml:space="preserve" y="315.4756" clip-path="url(#clipPath2)" font-family="sans-serif" stroke="none">uitvoer</text>
    </g>
    <g text-rendering="geometricPrecision" stroke-miterlimit="1.45" stroke-dasharray="6,2" shape-rendering="geometricPrecision" transform="matrix(1,0,0,1,77,1)" stroke-linecap="butt">
      <circle fill="none" r="49.5" clip-path="url(#clipPath2)" cx="23.9333" cy="223.7618"/>
    </g>
    <g fill="url(#linearGradient17)" text-rendering="geometricPrecision" shape-rendering="geometricPrecision" transform="matrix(1,0,0,1,77,1)" stroke="url(#linearGradient17)">
      <path d="M-5.8667 203.7618 L63.9333 203.7618 L53.7333 243.7618 L-16.0667 243.7618 Z" stroke="none" clip-path="url(#clipPath2)"/>
    </g>
    <g text-rendering="geometricPrecision" stroke-miterlimit="1.45" shape-rendering="geometricPrecision" transform="matrix(1,0,0,1,77,1)" stroke-linecap="butt">
      <path fill="none" d="M-5.8667 203.7618 L63.9333 203.7618 L53.7333 243.7618 L-16.0667 243.7618 Z" clip-path="url(#clipPath2)"/>
      <text x="11.2595" xml:space="preserve" y="228.4756" clip-path="url(#clipPath2)" font-family="sans-serif" stroke="none">Data</text>
    </g>
    <g fill="rgb(255,255,170)" text-rendering="geometricPrecision" shape-rendering="geometricPrecision" transform="matrix(1,0,0,1,77,1)" stroke="rgb(255,255,170)">
      <rect x="-38.0667" y="69.9618" clip-path="url(#clipPath2)" width="224.4" rx="4" ry="4" height="32.8" stroke="none"/>
    </g>
    <g stroke-linecap="round" transform="matrix(1,0,0,1,77,1)" stroke-dashoffset="2" text-rendering="geometricPrecision" shape-rendering="geometricPrecision" stroke-dasharray="0,8" stroke-width="2" stroke-miterlimit="1.45">
      <rect x="-38.0667" y="69.9618" clip-path="url(#clipPath2)" fill="none" width="224.4" rx="4" ry="4" height="32.8"/>
    </g>
    <g text-rendering="geometricPrecision" stroke-miterlimit="1.45" shape-rendering="geometricPrecision" font-family="sans-serif" transform="matrix(1,0,0,1,77,1)" stroke-linecap="butt">
      <text x="64.1226" xml:space="preserve" y="91.0756" clip-path="url(#clipPath2)" stroke="none">app</text>
      <path fill="none" d="M140.6 149.7276 L140.6 195.7711" clip-path="url(#clipPath2)"/>
      <path d="M140.6 203.7711 L145.6 191.7711 L140.6 194.7711 L135.6 191.7711 Z" clip-path="url(#clipPath2)" stroke="none"/>
      <path fill="none" d="M140.6 243.7701 L140.6 282.7755" clip-path="url(#clipPath2)"/>
      <path d="M140.6 290.7755 L145.6 278.7755 L140.6 281.7755 L135.6 278.7755 Z" clip-path="url(#clipPath2)" stroke="none"/>
      <path fill="none" d="M92.5813 223.7618 L66.8516 223.7618" clip-path="url(#clipPath2)"/>
      <path d="M100.5813 223.7618 L88.5813 218.7618 L91.5813 223.7618 L88.5813 228.7618 Z" clip-path="url(#clipPath2)" stroke="none"/>
      <path d="M58.8516 223.7618 L70.8516 228.7618 L67.8516 223.7618 L70.8516 218.7618 Z" clip-path="url(#clipPath2)" stroke="none"/>
    </g>
  </g>
</svg>
