<?xml version="1.0" encoding="UTF-8"?><svg xmlns="http://www.w3.org/2000/svg" xmlns:xlink="http://www.w3.org/1999/xlink" fill-opacity="1" color-rendering="auto" color-interpolation="auto" text-rendering="auto" stroke="black" stroke-linecap="square" width="620" stroke-miterlimit="10" shape-rendering="auto" stroke-opacity="1" fill="black" stroke-dasharray="none" font-weight="normal" stroke-width="1" height="501" font-family="'Dialog'" font-style="normal" stroke-linejoin="miter" font-size="12px" stroke-dashoffset="0" image-rendering="auto">
  <!--Generated by ySVG 2.5-->
  <defs id="genericDefs"/>
  <g>
    <defs id="defs1">
      <clipPath clipPathUnits="userSpaceOnUse" id="clipPath1">
        <path d="M0 0 L620 0 L620 501 L0 501 L0 0 Z"/>
      </clipPath>
      <clipPath clipPathUnits="userSpaceOnUse" id="clipPath2">
        <path d="M25 4 L645 4 L645 505 L25 505 L25 4 Z"/>
      </clipPath>
    </defs>
    <g fill="aqua" text-rendering="geometricPrecision" shape-rendering="geometricPrecision" transform="matrix(1,0,0,1,-25,-4)" stroke="aqua">
      <rect x="68" width="200" height="30" y="61" clip-path="url(#clipPath2)" stroke="none"/>
    </g>
    <g text-rendering="geometricPrecision" stroke-miterlimit="1.45" shape-rendering="geometricPrecision" transform="matrix(1,0,0,1,-25,-4)" stroke-linecap="butt">
      <rect fill="none" x="68" width="200" height="30" y="61" clip-path="url(#clipPath2)"/>
      <text x="130.207" font-size="16px" y="82.2852" clip-path="url(#clipPath2)" font-family="sans-serif" stroke="none" xml:space="preserve">Turing test</text>
      <rect stroke-linecap="square" x="378.6719" y="193.9688" clip-path="url(#clipPath2)" width="250" height="30" stroke="none" stroke-miterlimit="10"/>
      <rect fill="none" x="378.6719" width="250" height="30" y="193.9688" clip-path="url(#clipPath2)"/>
    </g>
    <g stroke-linecap="butt" font-size="16px" transform="matrix(1,0,0,1,-25,-4)" fill="white" text-rendering="geometricPrecision" font-family="sans-serif" shape-rendering="geometricPrecision" stroke="white" stroke-miterlimit="1.45">
      <text x="463.2031" xml:space="preserve" y="215.2539" clip-path="url(#clipPath2)" stroke="none">Deep fakes</text>
    </g>
    <g fill="aqua" text-rendering="geometricPrecision" shape-rendering="geometricPrecision" transform="matrix(1,0,0,1,-25,-4)" stroke="aqua">
      <rect x="68" width="200" height="30" y="127.4844" clip-path="url(#clipPath2)" stroke="none"/>
    </g>
    <g text-rendering="geometricPrecision" stroke-miterlimit="1.45" shape-rendering="geometricPrecision" transform="matrix(1,0,0,1,-25,-4)" stroke-linecap="butt">
      <rect fill="none" x="68" width="200" height="30" y="127.4844" clip-path="url(#clipPath2)"/>
      <text x="150.6641" font-size="16px" y="148.7695" clip-path="url(#clipPath2)" font-family="sans-serif" stroke="none" xml:space="preserve">GAN</text>
      <rect stroke-linecap="square" x="378.6719" y="61" clip-path="url(#clipPath2)" width="250" height="30" stroke="none" stroke-miterlimit="10"/>
      <rect fill="none" x="378.6719" width="250" height="30" y="61" clip-path="url(#clipPath2)"/>
    </g>
    <g stroke-linecap="butt" font-size="16px" transform="matrix(1,0,0,1,-25,-4)" fill="white" text-rendering="geometricPrecision" font-family="sans-serif" shape-rendering="geometricPrecision" stroke="white" stroke-miterlimit="1.45">
      <text x="438.75" xml:space="preserve" y="82.2852" clip-path="url(#clipPath2)" stroke="none">Winnaar Jeopardy</text>
    </g>
    <g text-rendering="geometricPrecision" shape-rendering="geometricPrecision" transform="matrix(1,0,0,1,-25,-4)">
      <rect x="378.6719" width="250" height="30" y="127.4844" clip-path="url(#clipPath2)" stroke="none"/>
      <rect stroke-linecap="butt" x="378.6719" y="127.4844" clip-path="url(#clipPath2)" fill="none" width="250" height="30" stroke-miterlimit="1.45"/>
    </g>
    <g stroke-linecap="butt" font-size="16px" transform="matrix(1,0,0,1,-25,-4)" fill="white" text-rendering="geometricPrecision" font-family="sans-serif" shape-rendering="geometricPrecision" stroke="white" stroke-miterlimit="1.45">
      <text x="379.6016" xml:space="preserve" y="148.7695" clip-path="url(#clipPath2)" stroke="none">Verslaat schaker Kasparov in 1996</text>
    </g>
    <g fill="aqua" text-rendering="geometricPrecision" shape-rendering="geometricPrecision" transform="matrix(1,0,0,1,-25,-4)" stroke="aqua">
      <rect x="68" width="200" height="30" y="193.9688" clip-path="url(#clipPath2)" stroke="none"/>
    </g>
    <g text-rendering="geometricPrecision" stroke-miterlimit="1.45" shape-rendering="geometricPrecision" transform="matrix(1,0,0,1,-25,-4)" stroke-linecap="butt">
      <rect fill="none" x="68" width="200" height="30" y="193.9688" clip-path="url(#clipPath2)"/>
      <text x="130.6406" font-size="16px" y="215.2539" clip-path="url(#clipPath2)" font-family="sans-serif" stroke="none" xml:space="preserve">Deep Blue</text>
      <rect stroke-linecap="square" x="378.6719" y="260.4531" clip-path="url(#clipPath2)" width="250" height="30" stroke="none" stroke-miterlimit="10"/>
      <rect fill="none" x="378.6719" width="250" height="30" y="260.4531" clip-path="url(#clipPath2)"/>
    </g>
    <g stroke-linecap="butt" font-size="16px" transform="matrix(1,0,0,1,-25,-4)" fill="white" text-rendering="geometricPrecision" font-family="sans-serif" shape-rendering="geometricPrecision" stroke="white" stroke-miterlimit="1.45">
      <text x="395.1602" xml:space="preserve" y="281.7383" clip-path="url(#clipPath2)" stroke="none">wiskundige theorieën bewijzen</text>
    </g>
    <g fill="aqua" text-rendering="geometricPrecision" shape-rendering="geometricPrecision" transform="matrix(1,0,0,1,-25,-4)" stroke="aqua">
      <rect x="68" width="200" height="30" y="260.4531" clip-path="url(#clipPath2)" stroke="none"/>
    </g>
    <g text-rendering="geometricPrecision" stroke-miterlimit="1.45" shape-rendering="geometricPrecision" transform="matrix(1,0,0,1,-25,-4)" stroke-linecap="butt">
      <rect fill="none" x="68" width="200" height="30" y="260.4531" clip-path="url(#clipPath2)"/>
      <text x="99.082" font-size="16px" y="281.7383" clip-path="url(#clipPath2)" font-family="sans-serif" stroke="none" xml:space="preserve">Siri, Alexa, Cortana</text>
    </g>
    <g fill="aqua" text-rendering="geometricPrecision" shape-rendering="geometricPrecision" transform="matrix(1,0,0,1,-25,-4)" stroke="aqua">
      <rect x="68" width="200" height="30" y="326.9375" clip-path="url(#clipPath2)" stroke="none"/>
    </g>
    <g text-rendering="geometricPrecision" stroke-miterlimit="1.45" shape-rendering="geometricPrecision" transform="matrix(1,0,0,1,-25,-4)" stroke-linecap="butt">
      <rect fill="none" x="68" width="200" height="30" y="326.9375" clip-path="url(#clipPath2)"/>
      <text x="142.2227" font-size="16px" y="348.2227" clip-path="url(#clipPath2)" font-family="sans-serif" stroke="none" xml:space="preserve">MYCIN</text>
      <rect stroke-linecap="square" x="378.6719" y="326.9375" clip-path="url(#clipPath2)" width="250" height="30" stroke="none" stroke-miterlimit="10"/>
      <rect fill="none" x="378.6719" width="250" height="30" y="326.9375" clip-path="url(#clipPath2)"/>
    </g>
    <g stroke-linecap="butt" font-size="16px" transform="matrix(1,0,0,1,-25,-4)" fill="white" text-rendering="geometricPrecision" font-family="sans-serif" shape-rendering="geometricPrecision" stroke="white" stroke-miterlimit="1.45">
      <text x="394.2891" xml:space="preserve" y="348.2227" clip-path="url(#clipPath2)" stroke="none">Hoe menselijk is een computer</text>
    </g>
    <g fill="aqua" text-rendering="geometricPrecision" shape-rendering="geometricPrecision" transform="matrix(1,0,0,1,-25,-4)" stroke="aqua">
      <rect x="68" width="200" height="30" y="393.4219" clip-path="url(#clipPath2)" stroke="none"/>
    </g>
    <g text-rendering="geometricPrecision" stroke-miterlimit="1.45" shape-rendering="geometricPrecision" transform="matrix(1,0,0,1,-25,-4)" stroke-linecap="butt">
      <rect fill="none" x="68" width="200" height="30" y="393.4219" clip-path="url(#clipPath2)"/>
      <text x="123.9805" font-size="16px" y="414.707" clip-path="url(#clipPath2)" font-family="sans-serif" stroke="none" xml:space="preserve">Allen Newell</text>
      <rect stroke-linecap="square" x="378.6719" y="459.9062" clip-path="url(#clipPath2)" width="250" height="30" stroke="none" stroke-miterlimit="10"/>
      <rect fill="none" x="378.6719" width="250" height="30" y="459.9062" clip-path="url(#clipPath2)"/>
    </g>
    <g stroke-linecap="butt" font-size="16px" transform="matrix(1,0,0,1,-25,-4)" fill="white" text-rendering="geometricPrecision" font-family="sans-serif" shape-rendering="geometricPrecision" stroke="white" stroke-miterlimit="1.45">
      <text x="436.5156" xml:space="preserve" y="481.1914" clip-path="url(#clipPath2)" stroke="none">Spraak herkenning</text>
    </g>
    <g fill="aqua" text-rendering="geometricPrecision" shape-rendering="geometricPrecision" transform="matrix(1,0,0,1,-25,-4)" stroke="aqua">
      <rect x="68" width="200" height="30" y="459.9062" clip-path="url(#clipPath2)" stroke="none"/>
    </g>
    <g text-rendering="geometricPrecision" stroke-miterlimit="1.45" shape-rendering="geometricPrecision" transform="matrix(1,0,0,1,-25,-4)" stroke-linecap="butt">
      <rect fill="none" x="68" width="200" height="30" y="459.9062" clip-path="url(#clipPath2)"/>
      <text x="118.9062" font-size="16px" y="481.1914" clip-path="url(#clipPath2)" font-family="sans-serif" stroke="none" xml:space="preserve">IBM's Watson</text>
      <rect stroke-linecap="square" x="378.6719" y="393.4219" clip-path="url(#clipPath2)" width="250" height="30" stroke="none" stroke-miterlimit="10"/>
      <rect fill="none" x="378.6719" width="250" height="30" y="393.4219" clip-path="url(#clipPath2)"/>
    </g>
    <g stroke-linecap="butt" font-size="16px" transform="matrix(1,0,0,1,-25,-4)" fill="white" text-rendering="geometricPrecision" font-family="sans-serif" shape-rendering="geometricPrecision" stroke="white" stroke-miterlimit="1.45">
      <text x="419.6406" xml:space="preserve" y="414.707" clip-path="url(#clipPath2)" stroke="none">medisch expertsysteem</text>
    </g>
    <g stroke-linecap="butt" transform="matrix(1,0,0,1,-25,-4)" fill="red" text-rendering="geometricPrecision" shape-rendering="geometricPrecision" stroke="red" stroke-width="2" stroke-miterlimit="1.45">
      <path fill="none" d="M168 157.4844 L168 173.7875 L377.4625 173.7875 L377.4625 208.9688 L378.6719 208.9688" clip-path="url(#clipPath2)"/>
      <path d="M378.6719 208.9688 L365.1719 203.3438 L368.5469 208.9688 L365.1719 214.5938 Z" clip-path="url(#clipPath2)" stroke="none"/>
      <path fill="none" d="M268 208.9688 L292.4625 208.9688 L292.4625 142.4844 L369.6719 142.4844" clip-path="url(#clipPath2)" stroke="rgb(51,102,255)"/>
      <path fill="rgb(51,102,255)" d="M378.6719 142.4844 L365.1719 136.8594 L368.5469 142.4844 L365.1719 148.1094 Z" clip-path="url(#clipPath2)" stroke="none"/>
    </g>
    <g stroke-linecap="butt" transform="matrix(1,0,0,1,-25,-4)" fill="rgb(51,153,102)" text-rendering="geometricPrecision" shape-rendering="geometricPrecision" stroke-dasharray="6,2" stroke="rgb(51,153,102)" stroke-miterlimit="1.45">
      <path fill="none" d="M268 76 L341.4625 76 L341.4625 341.9375 L370.6719 341.9375" clip-path="url(#clipPath2)"/>
      <path d="M378.6719 341.9375 L366.6719 336.9375 L369.6719 341.9375 L366.6719 346.9375 Z" clip-path="url(#clipPath2)" stroke="none"/>
    </g>
    <g stroke-linecap="butt" transform="matrix(1,0,0,1,-25,-4)" fill="rgb(51,102,255)" text-rendering="geometricPrecision" shape-rendering="geometricPrecision" stroke="rgb(51,102,255)" stroke-width="2" stroke-miterlimit="1.45">
      <path fill="none" d="M268 408.4219 L291.4625 408.4219 L291.4625 275.4531 L369.6719 275.4531" clip-path="url(#clipPath2)"/>
      <path d="M378.6719 275.4531 L365.1719 269.8281 L368.5469 275.4531 L365.1719 281.0781 Z" clip-path="url(#clipPath2)" stroke="none"/>
      <path fill="none" d="M68 275.4531 L54.4625 275.4531 L54.4625 447.7875 L362.4625 447.7875 L362.4625 474.9062 L369.6719 474.9062" clip-path="url(#clipPath2)" stroke="red"/>
      <path fill="red" d="M378.6719 474.9062 L365.1719 469.2812 L368.5469 474.9062 L365.1719 480.5312 Z" clip-path="url(#clipPath2)" stroke="none"/>
      <path fill="none" d="M68 474.9062 L40.4625 474.9062 L40.4625 19.7875 L503.6719 19.7875 L503.6719 52" clip-path="url(#clipPath2)"/>
      <path d="M503.6719 61 L509.2969 47.5 L503.6719 50.875 L498.0469 47.5 Z" clip-path="url(#clipPath2)" stroke="none"/>
      <path fill="none" stroke-dasharray="12,4" d="M268 341.9375 L314.4625 341.9375 L314.4625 408.4219 L369.6719 408.4219" clip-path="url(#clipPath2)" stroke="rgb(51,153,102)"/>
      <path fill="rgb(51,153,102)" stroke-dasharray="12,4" d="M378.6719 408.4219 L365.1719 402.7969 L368.5469 408.4219 L365.1719 414.0469 Z" clip-path="url(#clipPath2)" stroke="none"/>
    </g>
  </g>
</svg>
