<?xml version="1.0" encoding="UTF-8"?><svg xmlns="http://www.w3.org/2000/svg" xmlns:xlink="http://www.w3.org/1999/xlink" fill-opacity="1" color-rendering="auto" color-interpolation="auto" text-rendering="auto" stroke="black" stroke-linecap="square" width="592" stroke-miterlimit="10" shape-rendering="auto" stroke-opacity="1" fill="black" stroke-dasharray="none" font-weight="normal" stroke-width="1" height="459" font-family="'Dialog'" font-style="normal" stroke-linejoin="miter" font-size="12px" stroke-dashoffset="0" image-rendering="auto">
  <!--Generated by ySVG 2.5-->
  <defs id="genericDefs"/>
  <g>
    <defs id="defs1">
      <clipPath clipPathUnits="userSpaceOnUse" id="clipPath1">
        <path d="M0 0 L592 0 L592 459 L0 459 L0 0 Z"/>
      </clipPath>
      <clipPath clipPathUnits="userSpaceOnUse" id="clipPath2">
        <path d="M53 46 L645 46 L645 505 L53 505 L53 46 Z"/>
      </clipPath>
    </defs>
    <g fill="aqua" text-rendering="geometricPrecision" shape-rendering="geometricPrecision" transform="matrix(1,0,0,1,-53,-46)" stroke="aqua">
      <rect x="68" width="200" height="30" y="61" clip-path="url(#clipPath2)" stroke="none"/>
    </g>
    <g text-rendering="geometricPrecision" stroke-miterlimit="1.45" shape-rendering="geometricPrecision" transform="matrix(1,0,0,1,-53,-46)" stroke-linecap="butt">
      <rect fill="none" x="68" width="200" height="30" y="61" clip-path="url(#clipPath2)"/>
      <text x="130.207" font-size="16px" y="82.2852" clip-path="url(#clipPath2)" font-family="sans-serif" stroke="none" xml:space="preserve">Turing test</text>
      <rect stroke-linecap="square" x="378.6719" y="193.9688" clip-path="url(#clipPath2)" width="250" height="30" stroke="none" stroke-miterlimit="10"/>
      <rect fill="none" x="378.6719" width="250" height="30" y="193.9688" clip-path="url(#clipPath2)"/>
    </g>
    <g stroke-linecap="butt" font-size="16px" transform="matrix(1,0,0,1,-53,-46)" fill="white" text-rendering="geometricPrecision" font-family="sans-serif" shape-rendering="geometricPrecision" stroke="white" stroke-miterlimit="1.45">
      <text x="463.2031" xml:space="preserve" y="215.2539" clip-path="url(#clipPath2)" stroke="none">Deep fakes</text>
    </g>
    <g fill="aqua" text-rendering="geometricPrecision" shape-rendering="geometricPrecision" transform="matrix(1,0,0,1,-53,-46)" stroke="aqua">
      <rect x="68" width="200" height="30" y="127.4844" clip-path="url(#clipPath2)" stroke="none"/>
    </g>
    <g text-rendering="geometricPrecision" stroke-miterlimit="1.45" shape-rendering="geometricPrecision" transform="matrix(1,0,0,1,-53,-46)" stroke-linecap="butt">
      <rect fill="none" x="68" width="200" height="30" y="127.4844" clip-path="url(#clipPath2)"/>
      <text x="150.6641" font-size="16px" y="148.7695" clip-path="url(#clipPath2)" font-family="sans-serif" stroke="none" xml:space="preserve">GAN</text>
      <rect stroke-linecap="square" x="378.6719" y="61" clip-path="url(#clipPath2)" width="250" height="30" stroke="none" stroke-miterlimit="10"/>
      <rect fill="none" x="378.6719" width="250" height="30" y="61" clip-path="url(#clipPath2)"/>
    </g>
    <g stroke-linecap="butt" font-size="16px" transform="matrix(1,0,0,1,-53,-46)" fill="white" text-rendering="geometricPrecision" font-family="sans-serif" shape-rendering="geometricPrecision" stroke="white" stroke-miterlimit="1.45">
      <text x="438.75" xml:space="preserve" y="82.2852" clip-path="url(#clipPath2)" stroke="none">Winnaar Jeopardy</text>
    </g>
    <g text-rendering="geometricPrecision" shape-rendering="geometricPrecision" transform="matrix(1,0,0,1,-53,-46)">
      <rect x="378.6719" width="250" height="30" y="127.4844" clip-path="url(#clipPath2)" stroke="none"/>
      <rect stroke-linecap="butt" x="378.6719" y="127.4844" clip-path="url(#clipPath2)" fill="none" width="250" height="30" stroke-miterlimit="1.45"/>
    </g>
    <g stroke-linecap="butt" font-size="16px" transform="matrix(1,0,0,1,-53,-46)" fill="white" text-rendering="geometricPrecision" font-family="sans-serif" shape-rendering="geometricPrecision" stroke="white" stroke-miterlimit="1.45">
      <text x="379.6016" xml:space="preserve" y="148.7695" clip-path="url(#clipPath2)" stroke="none">Verslaat schaker Kasparov in 1996</text>
    </g>
    <g fill="aqua" text-rendering="geometricPrecision" shape-rendering="geometricPrecision" transform="matrix(1,0,0,1,-53,-46)" stroke="aqua">
      <rect x="68" width="200" height="30" y="193.9688" clip-path="url(#clipPath2)" stroke="none"/>
    </g>
    <g text-rendering="geometricPrecision" stroke-miterlimit="1.45" shape-rendering="geometricPrecision" transform="matrix(1,0,0,1,-53,-46)" stroke-linecap="butt">
      <rect fill="none" x="68" width="200" height="30" y="193.9688" clip-path="url(#clipPath2)"/>
      <text x="130.6406" font-size="16px" y="215.2539" clip-path="url(#clipPath2)" font-family="sans-serif" stroke="none" xml:space="preserve">Deep Blue</text>
      <rect stroke-linecap="square" x="378.6719" y="260.4531" clip-path="url(#clipPath2)" width="250" height="30" stroke="none" stroke-miterlimit="10"/>
      <rect fill="none" x="378.6719" width="250" height="30" y="260.4531" clip-path="url(#clipPath2)"/>
    </g>
    <g stroke-linecap="butt" font-size="16px" transform="matrix(1,0,0,1,-53,-46)" fill="white" text-rendering="geometricPrecision" font-family="sans-serif" shape-rendering="geometricPrecision" stroke="white" stroke-miterlimit="1.45">
      <text x="395.1602" xml:space="preserve" y="281.7383" clip-path="url(#clipPath2)" stroke="none">wiskundige theorieën bewijzen</text>
    </g>
    <g fill="aqua" text-rendering="geometricPrecision" shape-rendering="geometricPrecision" transform="matrix(1,0,0,1,-53,-46)" stroke="aqua">
      <rect x="68" width="200" height="30" y="260.4531" clip-path="url(#clipPath2)" stroke="none"/>
    </g>
    <g text-rendering="geometricPrecision" stroke-miterlimit="1.45" shape-rendering="geometricPrecision" transform="matrix(1,0,0,1,-53,-46)" stroke-linecap="butt">
      <rect fill="none" x="68" width="200" height="30" y="260.4531" clip-path="url(#clipPath2)"/>
      <text x="99.082" font-size="16px" y="281.7383" clip-path="url(#clipPath2)" font-family="sans-serif" stroke="none" xml:space="preserve">Siri, Alexa, Cortana</text>
    </g>
    <g fill="aqua" text-rendering="geometricPrecision" shape-rendering="geometricPrecision" transform="matrix(1,0,0,1,-53,-46)" stroke="aqua">
      <rect x="68" width="200" height="30" y="326.9375" clip-path="url(#clipPath2)" stroke="none"/>
    </g>
    <g text-rendering="geometricPrecision" stroke-miterlimit="1.45" shape-rendering="geometricPrecision" transform="matrix(1,0,0,1,-53,-46)" stroke-linecap="butt">
      <rect fill="none" x="68" width="200" height="30" y="326.9375" clip-path="url(#clipPath2)"/>
      <text x="142.2227" font-size="16px" y="348.2227" clip-path="url(#clipPath2)" font-family="sans-serif" stroke="none" xml:space="preserve">MYCIN</text>
      <rect stroke-linecap="square" x="378.6719" y="326.9375" clip-path="url(#clipPath2)" width="250" height="30" stroke="none" stroke-miterlimit="10"/>
      <rect fill="none" x="378.6719" width="250" height="30" y="326.9375" clip-path="url(#clipPath2)"/>
    </g>
    <g stroke-linecap="butt" font-size="16px" transform="matrix(1,0,0,1,-53,-46)" fill="white" text-rendering="geometricPrecision" font-family="sans-serif" shape-rendering="geometricPrecision" stroke="white" stroke-miterlimit="1.45">
      <text x="394.2891" xml:space="preserve" y="348.2227" clip-path="url(#clipPath2)" stroke="none">Hoe menselijk is een computer</text>
    </g>
    <g fill="aqua" text-rendering="geometricPrecision" shape-rendering="geometricPrecision" transform="matrix(1,0,0,1,-53,-46)" stroke="aqua">
      <rect x="68" width="200" height="30" y="393.4219" clip-path="url(#clipPath2)" stroke="none"/>
    </g>
    <g text-rendering="geometricPrecision" stroke-miterlimit="1.45" shape-rendering="geometricPrecision" transform="matrix(1,0,0,1,-53,-46)" stroke-linecap="butt">
      <rect fill="none" x="68" width="200" height="30" y="393.4219" clip-path="url(#clipPath2)"/>
      <text x="123.9805" font-size="16px" y="414.707" clip-path="url(#clipPath2)" font-family="sans-serif" stroke="none" xml:space="preserve">Allen Newell</text>
      <rect stroke-linecap="square" x="378.6719" y="459.9062" clip-path="url(#clipPath2)" width="250" height="30" stroke="none" stroke-miterlimit="10"/>
      <rect fill="none" x="378.6719" width="250" height="30" y="459.9062" clip-path="url(#clipPath2)"/>
    </g>
    <g stroke-linecap="butt" font-size="16px" transform="matrix(1,0,0,1,-53,-46)" fill="white" text-rendering="geometricPrecision" font-family="sans-serif" shape-rendering="geometricPrecision" stroke="white" stroke-miterlimit="1.45">
      <text x="436.5156" xml:space="preserve" y="481.1914" clip-path="url(#clipPath2)" stroke="none">Spraak herkenning</text>
    </g>
    <g fill="aqua" text-rendering="geometricPrecision" shape-rendering="geometricPrecision" transform="matrix(1,0,0,1,-53,-46)" stroke="aqua">
      <rect x="68" width="200" height="30" y="459.9062" clip-path="url(#clipPath2)" stroke="none"/>
    </g>
    <g text-rendering="geometricPrecision" stroke-miterlimit="1.45" shape-rendering="geometricPrecision" transform="matrix(1,0,0,1,-53,-46)" stroke-linecap="butt">
      <rect fill="none" x="68" width="200" height="30" y="459.9062" clip-path="url(#clipPath2)"/>
      <text x="118.9062" font-size="16px" y="481.1914" clip-path="url(#clipPath2)" font-family="sans-serif" stroke="none" xml:space="preserve">IBM's Watson</text>
      <rect stroke-linecap="square" x="378.6719" y="393.4219" clip-path="url(#clipPath2)" width="250" height="30" stroke="none" stroke-miterlimit="10"/>
      <rect fill="none" x="378.6719" width="250" height="30" y="393.4219" clip-path="url(#clipPath2)"/>
    </g>
    <g stroke-linecap="butt" font-size="16px" transform="matrix(1,0,0,1,-53,-46)" fill="white" text-rendering="geometricPrecision" font-family="sans-serif" shape-rendering="geometricPrecision" stroke="white" stroke-miterlimit="1.45">
      <text x="419.6406" xml:space="preserve" y="414.707" clip-path="url(#clipPath2)" stroke="none">medisch expertsysteem</text>
    </g>
  </g>
</svg>
