<?xml version="1.0" encoding="UTF-8"?><svg xmlns="http://www.w3.org/2000/svg" xmlns:xlink="http://www.w3.org/1999/xlink" fill-opacity="1" color-rendering="auto" color-interpolation="auto" text-rendering="auto" stroke="black" stroke-linecap="square" width="358" stroke-miterlimit="10" shape-rendering="auto" stroke-opacity="1" fill="black" stroke-dasharray="none" font-weight="normal" stroke-width="1" height="244" font-family="'Dialog'" font-style="normal" stroke-linejoin="miter" font-size="12px" stroke-dashoffset="0" image-rendering="auto">
  <!--Generated by ySVG 2.5-->
  <defs id="genericDefs"/>
  <g>
    <defs id="defs1">
      <clipPath clipPathUnits="userSpaceOnUse" id="clipPath1">
        <path d="M0 0 L358 0 L358 244 L0 244 L0 0 Z"/>
      </clipPath>
      <clipPath clipPathUnits="userSpaceOnUse" id="clipPath2">
        <path d="M15 186 L492.3333 186 L492.3333 511.3333 L15 511.3333 L15 186 Z"/>
      </clipPath>
    </defs>
    <g fill="white" text-rendering="geometricPrecision" shape-rendering="geometricPrecision" transform="scale(0.75,0.75) translate(-15,-186)" stroke="white">
      <rect x="15" width="478" height="326" y="186" clip-path="url(#clipPath2)" stroke="none"/>
    </g>
    <g fill="rgb(255,204,0)" text-rendering="geometricPrecision" shape-rendering="geometricPrecision" transform="matrix(0.75,0,0,0.75,-11.25,-139.5)" stroke="rgb(255,204,0)">
      <rect x="35" width="30" height="30" y="462" clip-path="url(#clipPath2)" stroke="none"/>
    </g>
    <g text-rendering="geometricPrecision" stroke-miterlimit="1.45" shape-rendering="geometricPrecision" transform="matrix(0.75,0,0,0.75,-11.25,-139.5)" stroke-linecap="butt">
      <rect fill="none" x="35" width="30" height="30" y="462" clip-path="url(#clipPath2)"/>
      <text x="42.3301" xml:space="preserve" y="481.7139" clip-path="url(#clipPath2)" font-family="sans-serif" stroke="none">De</text>
    </g>
    <g fill="rgb(255,204,0)" text-rendering="geometricPrecision" shape-rendering="geometricPrecision" transform="matrix(0.75,0,0,0.75,-11.25,-139.5)" stroke="rgb(255,204,0)">
      <rect x="95" width="86" height="30" y="462" clip-path="url(#clipPath2)" stroke="none"/>
    </g>
    <g text-rendering="geometricPrecision" stroke-miterlimit="1.45" shape-rendering="geometricPrecision" transform="matrix(0.75,0,0,0.75,-11.25,-139.5)" stroke-linecap="butt">
      <rect fill="none" x="95" width="86" height="30" y="462" clip-path="url(#clipPath2)"/>
      <text x="115.6523" xml:space="preserve" y="481.7139" clip-path="url(#clipPath2)" font-family="sans-serif" stroke="none">techniek</text>
    </g>
    <g fill="rgb(255,204,0)" text-rendering="geometricPrecision" shape-rendering="geometricPrecision" transform="matrix(0.75,0,0,0.75,-11.25,-139.5)" stroke="rgb(255,204,0)">
      <rect x="211" width="42" height="30" y="462" clip-path="url(#clipPath2)" stroke="none"/>
    </g>
    <g text-rendering="geometricPrecision" stroke-miterlimit="1.45" shape-rendering="geometricPrecision" transform="matrix(0.75,0,0,0.75,-11.25,-139.5)" stroke-linecap="butt">
      <rect fill="none" x="211" width="42" height="30" y="462" clip-path="url(#clipPath2)"/>
      <text x="218.6553" xml:space="preserve" y="481.7139" clip-path="url(#clipPath2)" font-family="sans-serif" stroke="none">heeft</text>
    </g>
    <g fill="rgb(255,204,0)" text-rendering="geometricPrecision" shape-rendering="geometricPrecision" transform="matrix(0.75,0,0,0.75,-11.25,-139.5)" stroke="rgb(255,204,0)">
      <rect x="277" width="30" height="30" y="462" clip-path="url(#clipPath2)" stroke="none"/>
    </g>
    <g text-rendering="geometricPrecision" stroke-miterlimit="1.45" shape-rendering="geometricPrecision" transform="matrix(0.75,0,0,0.75,-11.25,-139.5)" stroke-linecap="butt">
      <rect fill="none" x="277" width="30" height="30" y="462" clip-path="url(#clipPath2)"/>
      <text x="281.9893" xml:space="preserve" y="481.7139" clip-path="url(#clipPath2)" font-family="sans-serif" stroke="none">een</text>
    </g>
    <g fill="rgb(255,204,0)" text-rendering="geometricPrecision" shape-rendering="geometricPrecision" transform="matrix(0.75,0,0,0.75,-11.25,-139.5)" stroke="rgb(255,204,0)">
      <rect x="331" width="49" height="30" y="462" clip-path="url(#clipPath2)" stroke="none"/>
    </g>
    <g text-rendering="geometricPrecision" stroke-miterlimit="1.45" shape-rendering="geometricPrecision" transform="matrix(0.75,0,0,0.75,-11.25,-139.5)" stroke-linecap="butt">
      <rect fill="none" x="331" width="49" height="30" y="462" clip-path="url(#clipPath2)"/>
      <text x="339.1582" xml:space="preserve" y="481.7139" clip-path="url(#clipPath2)" font-family="sans-serif" stroke="none">mooie</text>
    </g>
    <g fill="rgb(255,204,0)" text-rendering="geometricPrecision" shape-rendering="geometricPrecision" transform="matrix(0.75,0,0,0.75,-11.25,-139.5)" stroke="rgb(255,204,0)">
      <rect x="397" width="76" height="30" y="462" clip-path="url(#clipPath2)" stroke="none"/>
    </g>
    <g text-rendering="geometricPrecision" stroke-miterlimit="1.45" shape-rendering="geometricPrecision" transform="matrix(0.75,0,0,0.75,-11.25,-139.5)" stroke-linecap="butt">
      <rect fill="none" x="397" width="76" height="30" y="462" clip-path="url(#clipPath2)"/>
      <text x="410.6572" xml:space="preserve" y="481.7139" clip-path="url(#clipPath2)" font-family="sans-serif" stroke="none">toekomst</text>
    </g>
    <g fill="rgb(255,204,0)" text-rendering="geometricPrecision" shape-rendering="geometricPrecision" transform="matrix(0.75,0,0,0.75,-11.25,-139.5)" stroke="rgb(255,204,0)">
      <circle r="15" clip-path="url(#clipPath2)" cx="50" cy="410" stroke="none"/>
    </g>
    <g text-rendering="geometricPrecision" stroke-miterlimit="1.45" shape-rendering="geometricPrecision" transform="matrix(0.75,0,0,0.75,-11.25,-139.5)" stroke-linecap="butt">
      <circle fill="none" r="15" clip-path="url(#clipPath2)" cx="50" cy="410"/>
      <text x="45.667" xml:space="preserve" y="414.7139" clip-path="url(#clipPath2)" font-family="sans-serif" stroke="none">D</text>
    </g>
    <g fill="rgb(255,204,0)" text-rendering="geometricPrecision" shape-rendering="geometricPrecision" transform="matrix(0.75,0,0,0.75,-11.25,-139.5)" stroke="rgb(255,204,0)">
      <circle r="15" clip-path="url(#clipPath2)" cx="138" cy="410" stroke="none"/>
    </g>
    <g text-rendering="geometricPrecision" stroke-miterlimit="1.45" shape-rendering="geometricPrecision" transform="matrix(0.75,0,0,0.75,-11.25,-139.5)" stroke-linecap="butt">
      <circle fill="none" r="15" clip-path="url(#clipPath2)" cx="138" cy="410"/>
      <text x="133.667" xml:space="preserve" y="414.7139" clip-path="url(#clipPath2)" font-family="sans-serif" stroke="none">N</text>
    </g>
    <g fill="rgb(255,204,0)" text-rendering="geometricPrecision" shape-rendering="geometricPrecision" transform="matrix(0.75,0,0,0.75,-11.25,-139.5)" stroke="rgb(255,204,0)">
      <circle r="15" clip-path="url(#clipPath2)" cx="232" cy="410" stroke="none"/>
    </g>
    <g text-rendering="geometricPrecision" stroke-miterlimit="1.45" shape-rendering="geometricPrecision" transform="matrix(0.75,0,0,0.75,-11.25,-139.5)" stroke-linecap="butt">
      <circle fill="none" r="15" clip-path="url(#clipPath2)" cx="232" cy="410"/>
      <text x="227.998" xml:space="preserve" y="414.7139" clip-path="url(#clipPath2)" font-family="sans-serif" stroke="none">V</text>
    </g>
    <g fill="rgb(255,204,0)" text-rendering="geometricPrecision" shape-rendering="geometricPrecision" transform="matrix(0.75,0,0,0.75,-11.25,-139.5)" stroke="rgb(255,204,0)">
      <circle r="15" clip-path="url(#clipPath2)" cx="292" cy="410" stroke="none"/>
    </g>
    <g text-rendering="geometricPrecision" stroke-miterlimit="1.45" shape-rendering="geometricPrecision" transform="matrix(0.75,0,0,0.75,-11.25,-139.5)" stroke-linecap="butt">
      <circle fill="none" r="15" clip-path="url(#clipPath2)" cx="292" cy="410"/>
      <text x="287.667" xml:space="preserve" y="414.7139" clip-path="url(#clipPath2)" font-family="sans-serif" stroke="none">D</text>
    </g>
    <g fill="rgb(255,204,0)" text-rendering="geometricPrecision" shape-rendering="geometricPrecision" transform="matrix(0.75,0,0,0.75,-11.25,-139.5)" stroke="rgb(255,204,0)">
      <circle r="15" clip-path="url(#clipPath2)" cx="355.5" cy="410" stroke="none"/>
    </g>
    <g text-rendering="geometricPrecision" stroke-miterlimit="1.45" shape-rendering="geometricPrecision" transform="matrix(0.75,0,0,0.75,-11.25,-139.5)" stroke-linecap="butt">
      <circle fill="none" r="15" clip-path="url(#clipPath2)" cx="355.5" cy="410"/>
      <text x="351.498" xml:space="preserve" y="414.7139" clip-path="url(#clipPath2)" font-family="sans-serif" stroke="none">A</text>
    </g>
    <g fill="rgb(255,204,0)" text-rendering="geometricPrecision" shape-rendering="geometricPrecision" transform="matrix(0.75,0,0,0.75,-11.25,-139.5)" stroke="rgb(255,204,0)">
      <circle r="15" clip-path="url(#clipPath2)" cx="435" cy="410" stroke="none"/>
    </g>
    <g text-rendering="geometricPrecision" stroke-miterlimit="1.45" shape-rendering="geometricPrecision" transform="matrix(0.75,0,0,0.75,-11.25,-139.5)" stroke-linecap="butt">
      <circle fill="none" r="15" clip-path="url(#clipPath2)" cx="435" cy="410"/>
      <text x="430.667" xml:space="preserve" y="414.7139" clip-path="url(#clipPath2)" font-family="sans-serif" stroke="none">N</text>
    </g>
    <g fill="rgb(255,204,0)" text-rendering="geometricPrecision" shape-rendering="geometricPrecision" transform="matrix(0.75,0,0,0.75,-11.25,-139.5)" stroke="rgb(255,204,0)">
      <circle r="15" clip-path="url(#clipPath2)" cx="94" cy="343" stroke="none"/>
    </g>
    <g text-rendering="geometricPrecision" stroke-miterlimit="1.45" shape-rendering="geometricPrecision" transform="matrix(0.75,0,0,0.75,-11.25,-139.5)" stroke-linecap="butt">
      <circle fill="none" r="15" clip-path="url(#clipPath2)" cx="94" cy="343"/>
      <text x="85.665" xml:space="preserve" y="347.7139" clip-path="url(#clipPath2)" font-family="sans-serif" stroke="none">NP</text>
    </g>
    <g fill="rgb(255,204,0)" text-rendering="geometricPrecision" shape-rendering="geometricPrecision" transform="matrix(0.75,0,0,0.75,-11.25,-139.5)" stroke="rgb(255,204,0)">
      <circle r="15" clip-path="url(#clipPath2)" cx="292" cy="276" stroke="none"/>
    </g>
    <g text-rendering="geometricPrecision" stroke-miterlimit="1.45" shape-rendering="geometricPrecision" transform="matrix(0.75,0,0,0.75,-11.25,-139.5)" stroke-linecap="butt">
      <circle fill="none" r="15" clip-path="url(#clipPath2)" cx="292" cy="276"/>
      <text x="283.9961" xml:space="preserve" y="280.7139" clip-path="url(#clipPath2)" font-family="sans-serif" stroke="none">VP</text>
    </g>
    <g fill="rgb(255,204,0)" text-rendering="geometricPrecision" shape-rendering="geometricPrecision" transform="matrix(0.75,0,0,0.75,-11.25,-139.5)" stroke="rgb(255,204,0)">
      <circle r="15" clip-path="url(#clipPath2)" cx="355.5" cy="343" stroke="none"/>
    </g>
    <g text-rendering="geometricPrecision" stroke-miterlimit="1.45" shape-rendering="geometricPrecision" transform="matrix(0.75,0,0,0.75,-11.25,-139.5)" stroke-linecap="butt">
      <circle fill="none" r="15" clip-path="url(#clipPath2)" cx="355.5" cy="343"/>
      <text x="347.165" xml:space="preserve" y="347.7139" clip-path="url(#clipPath2)" font-family="sans-serif" stroke="none">NP</text>
    </g>
    <g fill="rgb(255,204,0)" text-rendering="geometricPrecision" shape-rendering="geometricPrecision" transform="matrix(0.75,0,0,0.75,-11.25,-139.5)" stroke="rgb(255,204,0)">
      <circle r="15" clip-path="url(#clipPath2)" cx="232" cy="221" stroke="none"/>
    </g>
    <g text-rendering="geometricPrecision" stroke-miterlimit="1.45" shape-rendering="geometricPrecision" transform="matrix(0.75,0,0,0.75,-11.25,-139.5)" stroke-linecap="butt">
      <circle fill="none" r="15" clip-path="url(#clipPath2)" cx="232" cy="221"/>
      <text x="227.998" xml:space="preserve" y="225.7139" clip-path="url(#clipPath2)" font-family="sans-serif" stroke="none">S</text>
      <path fill="none" d="M50 425 L50 454" clip-path="url(#clipPath2)"/>
      <path d="M50 462 L55 450 L50 453 L45 450 Z" clip-path="url(#clipPath2)" stroke="none"/>
      <path fill="none" d="M138 425 L138 454" clip-path="url(#clipPath2)"/>
      <path d="M138 462 L143 450 L138 453 L133 450 Z" clip-path="url(#clipPath2)" stroke="none"/>
      <path fill="none" d="M232 425 L232 454" clip-path="url(#clipPath2)"/>
      <path d="M232 462 L237 450 L232 453 L227 450 Z" clip-path="url(#clipPath2)" stroke="none"/>
      <path fill="none" d="M292 425 L292 454" clip-path="url(#clipPath2)"/>
      <path d="M292 462 L297 450 L292 453 L287 450 Z" clip-path="url(#clipPath2)" stroke="none"/>
      <path fill="none" d="M355.5 425 L355.5 454" clip-path="url(#clipPath2)"/>
      <path d="M355.5 462 L360.5 450 L355.5 453 L350.5 450 Z" clip-path="url(#clipPath2)" stroke="none"/>
      <path fill="none" d="M435 425 L435 454" clip-path="url(#clipPath2)"/>
      <path d="M435 462 L440 450 L435 453 L430 450 Z" clip-path="url(#clipPath2)" stroke="none"/>
      <path fill="none" d="M85.7661 355.538 L62.6254 390.775" clip-path="url(#clipPath2)"/>
      <path d="M58.2339 397.462 L69.0004 390.1762 L63.1743 389.9391 L60.6417 384.6869 Z" clip-path="url(#clipPath2)" stroke="none"/>
      <path fill="none" d="M102.2339 355.538 L125.3746 390.775" clip-path="url(#clipPath2)"/>
      <path d="M129.7661 397.462 L127.3583 384.6869 L124.8257 389.9391 L118.9996 390.1762 Z" clip-path="url(#clipPath2)" stroke="none"/>
      <path fill="none" d="M285.87 289.6903 L241.3993 389.0082" clip-path="url(#clipPath2)"/>
      <path d="M238.13 396.3097 L247.5974 387.4008 L241.808 388.0956 L238.4705 383.3142 Z" clip-path="url(#clipPath2)" stroke="none"/>
      <path fill="none" d="M302.3184 286.8871 L339.6784 326.3064" clip-path="url(#clipPath2)"/>
      <path d="M345.1816 332.1129 L340.5559 319.9637 L338.9905 325.5806 L333.2978 326.8426 Z" clip-path="url(#clipPath2)" stroke="none"/>
      <path fill="none" d="M366.9699 352.6665 L417.4128 395.1781" clip-path="url(#clipPath2)"/>
      <path d="M423.5301 400.3335 L417.5763 388.777 L416.6481 394.5336 L411.132 396.4236 Z" clip-path="url(#clipPath2)" stroke="none"/>
      <path fill="none" d="M355.5 358 L355.5 387" clip-path="url(#clipPath2)"/>
      <path d="M355.5 395 L360.5 383 L355.5 386 L350.5 383 Z" clip-path="url(#clipPath2)" stroke="none"/>
      <path fill="none" d="M345.1816 353.8871 L307.8216 393.3064" clip-path="url(#clipPath2)"/>
      <path d="M302.3184 399.1129 L314.2022 393.8426 L308.5095 392.5806 L306.9441 386.9637 Z" clip-path="url(#clipPath2)" stroke="none"/>
      <path fill="none" d="M220.7619 230.9351 L111.2317 327.7662" clip-path="url(#clipPath2)"/>
      <path d="M105.2381 333.0649 L117.5402 328.8629 L111.9809 327.1039 L110.9168 321.3708 Z" clip-path="url(#clipPath2)" stroke="none"/>
      <path fill="none" d="M243.0573 231.1359 L275.0454 260.4583" clip-path="url(#clipPath2)"/>
      <path d="M280.9427 265.8641 L275.4754 254.0697 L274.3083 259.7826 L268.7182 261.4412 Z" clip-path="url(#clipPath2)" stroke="none"/>
    </g>
  </g>
</svg>
