<svg version="1.1" xmlns="http://www.w3.org/2000/svg" xmlns:xlink="http://www.w3.org/1999/xlink" width="600" height="530"><defs><clipPath id="bHxXnwFasSms"><path fill="none" stroke="none" d=" M 0 0 L 600 0 L 600 530 L 0 530 L 0 0 Z"/></clipPath></defs><g transform="scale(1,1)" clip-path="url(#bHxXnwFasSms)"><g><rect fill="rgb(255,255,255)" stroke="none" x="0" y="0" width="600" height="530" fill-opacity="1"/><path fill="none" stroke="rgb(192,192,192)" paint-order="fill stroke markers" d=" M 146.5 0.5 L 146.5 530.5 M 238.5 0.5 L 238.5 530.5 M 331.5 0.5 L 331.5 530.5 M 424.5 0.5 L 424.5 530.5 M 516.5 0.5 L 516.5 530.5" stroke-opacity="1" stroke-linecap="round" stroke-linejoin="round" stroke-miterlimit="10"/><path fill="none" stroke="rgb(192,192,192)" paint-order="fill stroke markers" d=" M 16.5 0.5 L 16.5 530.5 M 35.5 0.5 L 35.5 530.5 M 72.5 0.5 L 72.5 530.5 M 90.5 0.5 L 90.5 530.5 M 109.5 0.5 L 109.5 530.5 M 127.5 0.5 L 127.5 530.5 M 164.5 0.5 L 164.5 530.5 M 183.5 0.5 L 183.5 530.5 M 201.5 0.5 L 201.5 530.5 M 220.5 0.5 L 220.5 530.5 M 257.5 0.5 L 257.5 530.5 M 276.5 0.5 L 276.5 530.5 M 294.5 0.5 L 294.5 530.5 M 313.5 0.5 L 313.5 530.5 M 350.5 0.5 L 350.5 530.5 M 368.5 0.5 L 368.5 530.5 M 387.5 0.5 L 387.5 530.5 M 405.5 0.5 L 405.5 530.5 M 442.5 0.5 L 442.5 530.5 M 461.5 0.5 L 461.5 530.5 M 479.5 0.5 L 479.5 530.5 M 498.5 0.5 L 498.5 530.5 M 535.5 0.5 L 535.5 530.5 M 553.5 0.5 L 553.5 530.5 M 572.5 0.5 L 572.5 530.5 M 590.5 0.5 L 590.5 530.5" stroke-opacity="0.23529411764705882" stroke-linecap="round" stroke-linejoin="round" stroke-miterlimit="10"/><path fill="none" stroke="rgb(192,192,192)" paint-order="fill stroke markers" d=" M 0.5 19.5 L 600.5 19.5 M 0.5 19.5 L 600.5 19.5 M 0.5 111.5 L 600.5 111.5 M 0.5 204.5 L 600.5 204.5 M 0.5 296.5 L 600.5 296.5 M 0.5 389.5 L 600.5 389.5" stroke-opacity="1" stroke-linecap="round" stroke-linejoin="round" stroke-miterlimit="10"/><path fill="none" stroke="rgb(192,192,192)" paint-order="fill stroke markers" d=" M 0.5 0.5 L 600.5 0.5 M 0.5 0.5 L 600.5 0.5 M 0.5 37.5 L 600.5 37.5 M 0.5 56.5 L 600.5 56.5 M 0.5 74.5 L 600.5 74.5 M 0.5 93.5 L 600.5 93.5 M 0.5 130.5 L 600.5 130.5 M 0.5 148.5 L 600.5 148.5 M 0.5 167.5 L 600.5 167.5 M 0.5 185.5 L 600.5 185.5 M 0.5 222.5 L 600.5 222.5 M 0.5 241.5 L 600.5 241.5 M 0.5 259.5 L 600.5 259.5 M 0.5 278.5 L 600.5 278.5 M 0.5 315.5 L 600.5 315.5 M 0.5 333.5 L 600.5 333.5 M 0.5 352.5 L 600.5 352.5 M 0.5 370.5 L 600.5 370.5 M 0.5 407.5 L 600.5 407.5 M 0.5 426.5 L 600.5 426.5 M 0.5 444.5 L 600.5 444.5 M 0.5 463.5 L 600.5 463.5 M 0.5 500.5 L 600.5 500.5 M 0.5 519.5 L 600.5 519.5" stroke-opacity="0.23529411764705882" stroke-linecap="round" stroke-linejoin="round" stroke-miterlimit="10"/><path fill="none" stroke="rgb(0,0,0)" paint-order="fill stroke markers" d=" M 53.5 2.5 L 53.5 530.5" stroke-opacity="1" stroke-miterlimit="10"/><path fill="none" stroke="rgb(0,0,0)" paint-order="fill stroke markers" d=" M 53.5 1.5 L 47.5 7.5" stroke-opacity="1" stroke-miterlimit="10"/><path fill="none" stroke="rgb(0,0,0)" paint-order="fill stroke markers" d=" M 53.5 1.5 L 59.5 7.5" stroke-opacity="1" stroke-miterlimit="10"/><path fill="none" stroke="rgb(0,0,0)" paint-order="fill stroke markers" d=" M 0.5 481.5 L 598.5 481.5" stroke-opacity="1" stroke-miterlimit="10"/><path fill="none" stroke="rgb(0,0,0)" paint-order="fill stroke markers" d=" M 599.5 481.5 L 593.5 475.5" stroke-opacity="1" stroke-miterlimit="10"/><path fill="none" stroke="rgb(0,0,0)" paint-order="fill stroke markers" d=" M 599.5 481.5 L 593.5 487.5" stroke-opacity="1" stroke-miterlimit="10"/><text fill="rgb(0,0,0)" stroke="none" font-family="geogebra-sans-serif, sans-serif" font-size="18px" font-style="normal" font-weight="normal" text-decoration="normal" x="129" y="503" text-anchor="start" dominant-baseline="alphabetic" fill-opacity="1">0.02</text><text fill="none" stroke="rgb(255,255,255)" font-family="geogebra-sans-serif, sans-serif" font-size="18px" font-style="normal" font-weight="normal" text-decoration="normal" x="129" y="503" text-anchor="start" dominant-baseline="alphabetic" stroke-opacity="1" stroke-linejoin="bevel" stroke-miterlimit="10" stroke-width="3">0.02</text><text fill="rgb(0,0,0)" stroke="none" font-family="geogebra-sans-serif, sans-serif" font-size="18px" font-style="normal" font-weight="normal" text-decoration="normal" x="129" y="503" text-anchor="start" dominant-baseline="alphabetic" fill-opacity="1">0.02</text><text fill="rgb(0,0,0)" stroke="none" font-family="geogebra-sans-serif, sans-serif" font-size="18px" font-style="normal" font-weight="normal" text-decoration="normal" x="221" y="503" text-anchor="start" dominant-baseline="alphabetic" fill-opacity="1">0.04</text><text fill="none" stroke="rgb(255,255,255)" font-family="geogebra-sans-serif, sans-serif" font-size="18px" font-style="normal" font-weight="normal" text-decoration="normal" x="221" y="503" text-anchor="start" dominant-baseline="alphabetic" stroke-opacity="1" stroke-linejoin="bevel" stroke-miterlimit="10" stroke-width="3">0.04</text><text fill="rgb(0,0,0)" stroke="none" font-family="geogebra-sans-serif, sans-serif" font-size="18px" font-style="normal" font-weight="normal" text-decoration="normal" x="221" y="503" text-anchor="start" dominant-baseline="alphabetic" fill-opacity="1">0.04</text><text fill="rgb(0,0,0)" stroke="none" font-family="geogebra-sans-serif, sans-serif" font-size="18px" font-style="normal" font-weight="normal" text-decoration="normal" x="314" y="503" text-anchor="start" dominant-baseline="alphabetic" fill-opacity="1">0.06</text><text fill="none" stroke="rgb(255,255,255)" font-family="geogebra-sans-serif, sans-serif" font-size="18px" font-style="normal" font-weight="normal" text-decoration="normal" x="314" y="503" text-anchor="start" dominant-baseline="alphabetic" stroke-opacity="1" stroke-linejoin="bevel" stroke-miterlimit="10" stroke-width="3">0.06</text><text fill="rgb(0,0,0)" stroke="none" font-family="geogebra-sans-serif, sans-serif" font-size="18px" font-style="normal" font-weight="normal" text-decoration="normal" x="314" y="503" text-anchor="start" dominant-baseline="alphabetic" fill-opacity="1">0.06</text><text fill="rgb(0,0,0)" stroke="none" font-family="geogebra-sans-serif, sans-serif" font-size="18px" font-style="normal" font-weight="normal" text-decoration="normal" x="407" y="503" text-anchor="start" dominant-baseline="alphabetic" fill-opacity="1">0.08</text><text fill="none" stroke="rgb(255,255,255)" font-family="geogebra-sans-serif, sans-serif" font-size="18px" font-style="normal" font-weight="normal" text-decoration="normal" x="407" y="503" text-anchor="start" dominant-baseline="alphabetic" stroke-opacity="1" stroke-linejoin="bevel" stroke-miterlimit="10" stroke-width="3">0.08</text><text fill="rgb(0,0,0)" stroke="none" font-family="geogebra-sans-serif, sans-serif" font-size="18px" font-style="normal" font-weight="normal" text-decoration="normal" x="407" y="503" text-anchor="start" dominant-baseline="alphabetic" fill-opacity="1">0.08</text><text fill="rgb(0,0,0)" stroke="none" font-family="geogebra-sans-serif, sans-serif" font-size="18px" font-style="normal" font-weight="normal" text-decoration="normal" x="504" y="503" text-anchor="start" dominant-baseline="alphabetic" fill-opacity="1">0.1</text><text fill="none" stroke="rgb(255,255,255)" font-family="geogebra-sans-serif, sans-serif" font-size="18px" font-style="normal" font-weight="normal" text-decoration="normal" x="504" y="503" text-anchor="start" dominant-baseline="alphabetic" stroke-opacity="1" stroke-linejoin="bevel" stroke-miterlimit="10" stroke-width="3">0.1</text><text fill="rgb(0,0,0)" stroke="none" font-family="geogebra-sans-serif, sans-serif" font-size="18px" font-style="normal" font-weight="normal" text-decoration="normal" x="504" y="503" text-anchor="start" dominant-baseline="alphabetic" fill-opacity="1">0.1</text><text fill="rgb(0,0,0)" stroke="none" font-family="geogebra-sans-serif, sans-serif" font-size="18px" font-style="normal" font-weight="normal" text-decoration="normal" x="11" y="397" text-anchor="start" dominant-baseline="alphabetic" fill-opacity="1">2000</text><text fill="none" stroke="rgb(255,255,255)" font-family="geogebra-sans-serif, sans-serif" font-size="18px" font-style="normal" font-weight="normal" text-decoration="normal" x="11" y="397" text-anchor="start" dominant-baseline="alphabetic" stroke-opacity="1" stroke-linejoin="bevel" stroke-miterlimit="10" stroke-width="3">2000</text><text fill="rgb(0,0,0)" stroke="none" font-family="geogebra-sans-serif, sans-serif" font-size="18px" font-style="normal" font-weight="normal" text-decoration="normal" x="11" y="397" text-anchor="start" dominant-baseline="alphabetic" fill-opacity="1">2000</text><text fill="rgb(0,0,0)" stroke="none" font-family="geogebra-sans-serif, sans-serif" font-size="18px" font-style="normal" font-weight="normal" text-decoration="normal" x="11" y="304" text-anchor="start" dominant-baseline="alphabetic" fill-opacity="1">4000</text><text fill="none" stroke="rgb(255,255,255)" font-family="geogebra-sans-serif, sans-serif" font-size="18px" font-style="normal" font-weight="normal" text-decoration="normal" x="11" y="304" text-anchor="start" dominant-baseline="alphabetic" stroke-opacity="1" stroke-linejoin="bevel" stroke-miterlimit="10" stroke-width="3">4000</text><text fill="rgb(0,0,0)" stroke="none" font-family="geogebra-sans-serif, sans-serif" font-size="18px" font-style="normal" font-weight="normal" text-decoration="normal" x="11" y="304" text-anchor="start" dominant-baseline="alphabetic" fill-opacity="1">4000</text><text fill="rgb(0,0,0)" stroke="none" font-family="geogebra-sans-serif, sans-serif" font-size="18px" font-style="normal" font-weight="normal" text-decoration="normal" x="11" y="212" text-anchor="start" dominant-baseline="alphabetic" fill-opacity="1">6000</text><text fill="none" stroke="rgb(255,255,255)" font-family="geogebra-sans-serif, sans-serif" font-size="18px" font-style="normal" font-weight="normal" text-decoration="normal" x="11" y="212" text-anchor="start" dominant-baseline="alphabetic" stroke-opacity="1" stroke-linejoin="bevel" stroke-miterlimit="10" stroke-width="3">6000</text><text fill="rgb(0,0,0)" stroke="none" font-family="geogebra-sans-serif, sans-serif" font-size="18px" font-style="normal" font-weight="normal" text-decoration="normal" x="11" y="212" text-anchor="start" dominant-baseline="alphabetic" fill-opacity="1">6000</text><text fill="rgb(0,0,0)" stroke="none" font-family="geogebra-sans-serif, sans-serif" font-size="18px" font-style="normal" font-weight="normal" text-decoration="normal" x="11" y="119" text-anchor="start" dominant-baseline="alphabetic" fill-opacity="1">8000</text><text fill="none" stroke="rgb(255,255,255)" font-family="geogebra-sans-serif, sans-serif" font-size="18px" font-style="normal" font-weight="normal" text-decoration="normal" x="11" y="119" text-anchor="start" dominant-baseline="alphabetic" stroke-opacity="1" stroke-linejoin="bevel" stroke-miterlimit="10" stroke-width="3">8000</text><text fill="rgb(0,0,0)" stroke="none" font-family="geogebra-sans-serif, sans-serif" font-size="18px" font-style="normal" font-weight="normal" text-decoration="normal" x="11" y="119" text-anchor="start" dominant-baseline="alphabetic" fill-opacity="1">8000</text><text fill="rgb(0,0,0)" stroke="none" font-family="geogebra-sans-serif, sans-serif" font-size="18px" font-style="normal" font-weight="normal" text-decoration="normal" x="1" y="27" text-anchor="start" dominant-baseline="alphabetic" fill-opacity="1">10000</text><text fill="none" stroke="rgb(255,255,255)" font-family="geogebra-sans-serif, sans-serif" font-size="18px" font-style="normal" font-weight="normal" text-decoration="normal" x="1" y="27" text-anchor="start" dominant-baseline="alphabetic" stroke-opacity="1" stroke-linejoin="bevel" stroke-miterlimit="10" stroke-width="3">10000</text><text fill="rgb(0,0,0)" stroke="none" font-family="geogebra-sans-serif, sans-serif" font-size="18px" font-style="normal" font-weight="normal" text-decoration="normal" x="1" y="27" text-anchor="start" dominant-baseline="alphabetic" fill-opacity="1">10000</text><text fill="rgb(0,0,0)" stroke="none" font-family="geogebra-sans-serif, sans-serif" font-size="18px" font-style="normal" font-weight="normal" text-decoration="normal" x="35" y="503" text-anchor="start" dominant-baseline="alphabetic" fill-opacity="1">0</text><text fill="none" stroke="rgb(255,255,255)" font-family="geogebra-sans-serif, sans-serif" font-size="18px" font-style="normal" font-weight="normal" text-decoration="normal" x="35" y="503" text-anchor="start" dominant-baseline="alphabetic" stroke-opacity="1" stroke-linejoin="bevel" stroke-miterlimit="10" stroke-width="3">0</text><text fill="rgb(0,0,0)" stroke="none" font-family="geogebra-sans-serif, sans-serif" font-size="18px" font-style="normal" font-weight="normal" text-decoration="normal" x="35" y="503" text-anchor="start" dominant-baseline="alphabetic" fill-opacity="1">0</text><path fill="none" stroke="rgb(0,0,0)" paint-order="fill stroke markers" d=" M 600 -10.000000000000002 L 55.57039576252088 -10 L 55.66943496645007 27.652415040315134 L 56.00893954702195 103.23302480798566 L 56.37267779053553 157.22421318367634 L 56.75210257954103 197.7209812271318 L 57.14246833738861 229.22096272430807 L 57.54093047813484 254.4229229274903 L 57.94568142349516 275.0443496585948 L 58.35551857452327 292.2302838801544 L 58.769611665417585 306.77347415439783 L 59.18736981569754 319.24018611934383 L 59.608361758042236 330.0456916232979 L 60.03226597895144 339.501451252727 L 60.45883845589714 347.8456452102376 L 60.887891148313145 355.2635278144494 L 61.31927728067757 361.90135461084793 L 61.75288104057853 367.8761315641406 L 62.18861022020036 373.2825789034435 L 62.6263908646967 378.19819582571074 L 63.06616331671529 382.687004031239 L 63.507879249874065 386.8023554153865 L 63.951499414286616 390.5890659419887 L 64.39699190245955 394.08505710392046 L 64.8443308006319 397.32263262853513 L 65.29349512922653 400.3294816134121 L 65.74446800261165 403.1294741241368 L 66.1972359570147 405.74329767797883 L 66.65178840861853 408.18897054126774 L 67.10811721335966 410.4822587866041 L 67.56621630686476 412.637017523851 L 68.02608140802539 414.6654719157135 L 68.48770977348198 416.57845002063567 L 68.95109999312302 418.38557682965745 L 69.41625181883904 420.0954368387112 L 69.88316602041135 421.7157109523041 L 70.35184426365453 423.2532923256521 L 70.8222890069398 424.71438483094187 L 71.29450341293881 426.1045871142584 L 71.76849127307236 427.4289646446757 L 72.24425694258088 428.6921117102273 L 72.72180528454436 429.8982049600799 L 73.20114162144108 431.05104980791486 L 73.68227169312007 432.15412078283134 L 74.16520162021556 433.21059672918426 L 74.64993787222096 434.2233916065379 L 75.1364872395547 435.1951815182773 L 75.62485680906042 436.128428496854 L 76.1150539424695 437.02540149082535 L 76.60708625743354 437.8881949303614 L 77.10096161077848 438.7187451910386 L 77.59668808370742 439.51884522835854 L 78.09427396868904 440.29015761580547 L 78.5937277578359 441.03422618599564 L 79.09505813258346 441.7524864464656 L 79.59827395451356 442.4462749179859 L 80.10338425719164 443.1168375232334 L 80.61039823889627 443.7653371366117 L 81.11932525614333 444.3928603914802 L 81.63017481791161 445.0004238286309 L 82.14295658049849 445.5889794592074 L 82.65768034293222 446.1594198061088 L 83.17435604288545 446.7125824800428 L 83.6929937530378 447.24925433958083 L 84.21360367783865 447.7701752786783 L 84.73619615063336 448.27604168000795 L 85.26078163111441 448.76750956800896 L 85.78737070306812 449.2451974916799 L 86.31597407238763 449.7096891637601 L 86.84660256532646 450.16153587998355 L 87.37926712697202 450.6012587394938 L 87.9139788199198 451.02935068522925 L 88.45074882312787 451.4462783810806 L 88.98958843093902 451.8524839408552 L 89.53050905225342 452.2483865225197 L 90.07352220984279 452.63438379981136 L 90.61863953979099 453.01085332208413 L 91.16587279105414 453.37815377216896 L 91.71523382512743 453.73662613106114 L 92.26673461581441 454.08659475738943 L 92.8203872490887 454.4283683888529 L 93.37620392304126 454.76224107212886 L 93.93419694790879 455.0884930271425 L 94.494378746177 455.40739145103964 L 95.05676185275291 455.7191912667164 L 95.6213589152025 456.0241358203128 L 96.1881826940508 456.32245753168746 L 96.75724606313719 456.6143785015282 L 97.32856201002659 456.9001110784356 L 97.90214363647232 457.1798583890237 L 98.4780041589242 457.4538148338231 L 99.05615690908638 457.7221665515316 L 99.63661533451426 457.9850918539454 L 100.21939299925765 458.242761633709 L 100.80450358453885 458.49533974684425 L 101.39196088947148 458.74298337186156 L 101.98177883181478 458.98584334710716 L 102.57397144876217 459.2240644878723 L 103.16855289776282 459.4577858846644 L 103.76553745737732 459.6871411839354 L 104.36493952816335 459.9122588524573 L 104.96677363359191 460.13326242644786 L 105.57105442099163 460.35027074646075 L 106.17779666252449 460.5633981789826 L 106.78701525618686 460.7727548256042 L 107.39872522683953 460.97844672057363 L 108.01294172726244 461.18057601747563 L 108.62968003923828 461.37924116572975 L 109.24895557465908 461.57453707755 L 109.87078387666031 461.76655528596126 L 110.49518062077851 461.9553840944266 L 111.12216161613355 462.1411087186014 L 111.75174280663686 462.32381142069266 L 112.38394027222148 462.5035716368701 L 113.01877023009831 462.6804660981449 L 113.65624903603378 462.8545689451034 L 114.2963931856537 463.02595183685696 L 114.93921931576864 463.1946840545467 L 115.58474420572418 463.360832599716 L 116.23298477877279 463.52446228784714 L 116.88395810347214 463.68563583733675 L 117.5376813951031 463.8444139541668 L 118.19417201711417 464.0008554125133 L 118.85344748258836 464.1550171315178 L 119.51552545573276 464.30695424843356 L 120.18042375339331 464.4567201883439 L 120.84816034659218 464.6043667306401 L 121.51875336208929 464.74994407243173 L 122.19222108396832 464.89350088905496 L 122.86858195524542 465.0350843918315 L 123.54785457950521 465.17474038322354 L 124.23005772255681 465.31251330952057 L 124.91521031411895 465.44844631118616 L 125.60333144952722 465.58258127098503 L 126.29444039146762 465.71495886000395 L 126.9885565717351 465.84561858167325 L 127.68569959301738 465.9745988138898 L 128.38588923070557 466.1019368493362 L 129.08914543473014 466.22766893408595 L 129.79548833142314 466.35183030457904 L 130.50493822540795 466.47445522304747 L 131.2175156015158 466.59557701146696 L 131.93324112672906 466.7152280841045 L 132.65213565215225 466.8334399787311 L 133.37422021501237 466.9502433865613 L 134.09951604068584 467.0656681809809 L 134.82804454475547 467.1797434451198 L 135.55982733509512 467.2924974983236 L 136.29488621398588 467.4039579215747 L 137.03324318026029 467.51415158191224 L 137.77492043147748 467.6231046558955 L 138.519940366129 467.7308426521557 L 139.26832558587643 467.83739043307605 L 140.0200988978193 467.9427722356401 L 140.77528331679514 468.04701169148484 L 141.53390206771405 468.1501318461945 L 142.29597858792334 468.25215517786773 L 143.061536529607 468.353103614991 L 143.83059976221938 468.4529985536474 L 144.60319237495293 468.5518608740895 L 145.37933867924022 468.64971095670575 L 146.1590632112921 468.74656869740244 L 146.9423907346723 468.8424535224304 L 147.72934624290724 468.93738440267634 L 148.51995496213408 469.03137986744355 L 149.3142423537858 469.1244580177421 L 150.11223411731515 469.2166365391093 L 150.91395619295605 469.30793271398 L 151.71943476452702 469.3983634336246 L 152.52869626227167 469.487945209673 L 153.34176736574207 469.57669418524097 L 154.15867500672223 469.6646261456748 L 154.97944637219504 469.7517565289302 L 155.80410890734998 469.8381004355991 L 156.63269031863595 469.9236726385992 L 157.465218576857 470.0084875925391 L 158.30172192031353 470.09255944277123 L 159.14222885798895 470.1759020341465 L 159.98676817278226 470.2585289194798 L 160.83536892478838 470.3404533677397 L 161.68806045462537 470.4216883719718 L 162.54487238681085 470.50224665696567 L 163.40583463318796 470.5821406866763 L 164.27097739640138 470.66138267140815 L 165.14033117342427 470.73998457477137 L 166.01392675913735 470.81795812041844 L 166.89179524996072 470.8953147985697 L 167.77396804754002 470.9720658723353 L 168.660476862486 471.048222383841 L 169.55135371817065 471.1237951601656 L 170.44663095457958 471.1987948190961 L 171.34634123222182 471.2732317747079 L 172.25051753609816 471.3471162427755 L 173.1591931797289 471.4204582460213 L 174.07240180924228 471.49326761920656 L 174.99017740752436 471.565554014071 L 175.9125542984311 471.6373269041268 L 176.83956715106555 471.7085955893114 L 177.7712509841178 471.7793692005046 L 178.7076411702731 471.84965670391404 L 179.6487734406854 471.9194669053345 L 180.5946838895202 471.98880845428505 L 181.54540897856677 472.05768984802796 L 182.50098554192058 472.1261194354739 L 183.46145079073872 472.19410542097705 L 184.42684231806783 472.26165586802404 L 185.3971981037473 472.3287787028201 L 186.37255651938764 472.39548171777665 L 187.3529563334274 472.46177257490217 L 188.33843671626747 472.52765880910135 L 189.3290372454865 472.5931478313843 L 190.32479791113795 472.6582469319895 L 191.32575912112947 472.72296328342304 L 192.33196170668782 472.78730394341716 L 193.34344692790927 472.85127585781044 L 194.36025647939846 472.91488586335277 L 195.38243249599597 472.9781406904368 L 196.41001755859736 473.04104696575905 L 197.4430547000647 473.1036112149126 L 198.4815874112329 473.16583986491315 L 199.5256596470117 473.22773924666205 L 200.57531583258634 473.28931559734633 L 201.63060086971726 473.3505750627795 L 202.69156014314225 473.41152369968404 L 203.75823952708174 473.47216747791805 L 204.83068539185035 473.5325122826471 L 205.90894461057474 473.592563916464 L 206.99306456602287 473.65232810145733 L 208.08309315754306 473.711810481231 L 209.17907880811873 473.7710166228756 L 210.2810704715376 473.8299520188941 L 211.38911763968053 473.8886220890826 L 212.50327034992955 473.9470321823677 L 213.6235791927001 474.00518757860203 L 214.75009531909762 474.0630934903193 L 215.88287044870182 474.1207550644501 L 217.02195687748178 474.17817738399907 L 218.16740748584334 474.235365469686 L 219.31927574681163 474.29232428155075 L 220.47761573435187 474.349058720524 L 221.642482131831 474.40557362996395 L 222.8139302406222 474.46187379716133 L 223.99201598885642 474.5179639548128 L 225.17679594032262 474.5738487824636 L 226.36832730352054 474.62953290792154 L 227.5666679408685 474.68502090864206 L 228.77187637806983 474.7403173130858 L 229.98401181363997 474.7954266020499 L 231.2031341286002 474.8503532099729 L 232.4293038963374 474.9051015262156 L 233.66258239263624 474.9596758963167 L 234.9030316058874 475.0140806232261 L 236.1507142474726 475.0683199685151 L 237.40569376233267 475.1223981535649 L 238.66803433972234 475.1763193607341 L 239.93780092415352 475.2300877345059 L 241.21505922653336 475.28370738261503 L 242.49987573549953 475.3371823771567 L 243.7923177289574 475.39051675567634 L 245.09245328582384 475.4437145222419 L 246.40035129798002 475.4967796484991 L 247.7160814824411 475.5497160747102 L 249.039714393743 475.6025277107767 L 250.37132143655452 475.6552184372471 L 251.71097487851762 475.7077921063093 L 253.0587478633213 475.76025254276954 L 254.41471442401365 475.812603545017 L 255.778949496558 475.8648488859758 L 257.15152893363734 475.91699231404397 L 258.5325295187129 475.9690375540205 L 259.92202898034276 476.020988308021 L 261.32010600676483 476.0728482563817 L 262.7268402607517 476.1246210585532 L 264.1423123947416 476.17631035398404 L 265.56660406625247 476.2279197629942 L 266.999797953585 476.27945288763976 L 268.44197777182126 476.33091331256844 L 269.8932282891249 476.3823046058667 L 271.35363534335016 476.433630319899 L 272.8232858589662 476.48489399213975 L 274.30226786430336 476.53609914599747 L 275.7906705091302 476.5872492916327 L 277.2885840825661 476.63834792676977 L 278.7961000313388 476.689398537502 L 280.3133109783951 476.7404045990918 L 281.84031074187044 476.79136957676576 L 283.37719435442756 476.8422969265046 L 284.924058082972 476.89319009582886 L 286.4809994487526 476.9440525245808 L 288.04811724785634 476.9948876457024 L 289.625511572106 477.0456988860102 L 291.2132838303713 477.09648966696733 L 292.8115367703006 477.147263405453 L 294.42037450048565 477.19802351452967 L 296.0399025130673 477.2487734042085 L 297.6702277067945 477.29951648221373 L 299.3114584105439 477.3502561547452 L 300.9637044073156 477.4009958272408 L 302.6270769587119 477.45173890513877 L 304.3016888299128 477.5024887946389 L 305.9876543151596 477.5532489034652 L 307.6850892637584 477.604022641629 L 309.3941111066163 477.65481342219266 L 311.1148388833226 477.70562466203523 L 312.8473932697886 477.7564597826199 L 314.59189660645933 477.8073222107631 L 316.34847292711066 477.8582153794068 L 318.11724798824685 477.909142728393 L 319.8983492991123 477.9601077052423 L 321.6919061523331 478.01111376593525 L 323.49804965520366 478.0621643756983 L 325.31691276163406 478.1132630097937 L 327.1486303047756 478.16441315431473 L 328.9933390303393 478.2156183069855 L 330.85117763062664 478.26688197796636 L 332.7222867792896 478.3182076906658 L 334.60680916683765 478.3695989825579 L 336.5048895369116 478.4210594060069 L 338.4166747233431 478.47259252909924 L 340.3423136880194 478.5242019364823 L 342.2819575595748 478.575891230212 L 344.23575967292885 478.627664030608 L 346.2038756096944 478.67952397711866 L 348.1864632394755 478.7314747291943 L 350.18368276208133 478.78351996717095 L 352.19569675067686 478.8356633931638 L 354.22267019589725 478.8879087319717 L 356.2647705509484 478.94025973199234 L 358.3221677777225 478.9927201661495 L 360.39503439395276 479.0452938328321 L 362.48354552143616 479.097984556846 L 364.5878789353523 479.15079619037874 L 366.70821511470723 479.2037326139785 L 368.84473729393227 479.25679773754644 L 370.9976315156694 479.3099955013444 L 373.16708668477503 479.36332987701775 L 375.3532946235737 479.416804868634 L 377.55645012839796 479.4704245137382 L 379.77675102744763 479.524192884425 L 382.0143982400055 479.5781140884289 L 384.2695958370457 479.63219227023257 L 386.54255110327443 479.68643161219404 L 388.8334746006421 479.74083633569415 L 391.14258023336663 479.7954107023037 L 393.4700853145121 479.850159014972 L 395.81621063416577 479.90508561923747 L 398.1811805292555 479.96019490446 L 400.5652229550595 480.01549130507794 L 402.9685695584507 480.07097930188763 L 405.39145575292883 480.1266634233492 L 407.8341207954896 480.18254824691763 L 410.2968078653839 480.23863840039996 L 412.77976414482237 480.2949385633409 L 415.28324090168013 480.35145346843643 L 417.8074935742611 480.40818790297664 L 420.35278185818095 480.4651467103191 L 422.91936979543163 480.5223347913938 L 425.5075258656912 480.57975710623987 L 428.11752307994465 480.6374186755763 L 430.7496390764862 480.6953245824073 L 433.40415621937115 480.7534799736624 L 436.08136169939326 480.81189006187464 L 438.7815476376621 480.8705601268959 L 441.50501119185896 480.92949551765196 L 444.25205466525284 480.9887016539381 L 447.02298561855997 481.04818402825646 L 449.81811698473473 481.10794820769684 L 452.63776718678105 481.16799983586213 L 455.48226025867746 481.22834463484 L 458.35192596951316 481.28898840722246 L 461.24709995093355 481.3499370381742 L 464.1681238280009 481.41119649755217 L 467.11534535357396 481.4727728420779 L 470.08911854632106 481.5346722175641 L 473.0898038324794 481.59690086119656 L 476.11776819148076 481.65946510387556 L 479.17338530556657 481.72237137261595 L 482.2570357135213 481.78562619300953 L 485.36910696865647 481.84923619175174 L 488.50999380118265 481.91320809923417 L 491.6800982851128 481.9775487522054 L 494.879830009846 482.0422650965029 L 498.1096062565834 482.10736418985766 L 501.3698521797375 482.1728532047746 L 504.6610009935003 482.2387394314908 L 507.9834941637411 482.30503028101515 L 511.3377816054146 482.37173328825094 L 514.7243218856615 482.4388561152054 L 518.1435824327991 482.5064065542884 L 521.5960397513945 482.57439253170384 L 525.0821796436378 482.64282211093695 L 528.6024974372215 482.71170349634036 L 532.1574982199595 482.7810450368232 L 535.7476970813702 482.8508552296462 L 539.3736193614764 482.92114272432684 L 543.035800907064 482.99191632665827 L 546.7347883356706 483.0631850028466 L 550.4711393075734 483.13495788376974 L 554.2454228060576 483.20724426936346 L 558.0582194262695 483.28005363313815 L 561.9101216729532 483.35339562683185 L 565.8017342673975 483.4272800852039 L 569.7336744639256 483.50171703097465 L 573.7065723762726 483.57671667991684 L 577.721071314219 483.6522894461038 L 581.7778281308517 483.7284459473206 L 585.8775135808517 483.80519701064384 L 590.0208126902132 483.8825536781973 L 594.2084251378292 483.9605272130889 L 598.4410656493833 484.03912910553663 L 602.7194644040173 484.11837107919087 L 607.0443674542594 484.19826509765943 L 608.9860734817471 484.23404149608893" stroke-opacity="0.6980392156862745" stroke-linecap="round" stroke-linejoin="round" stroke-miterlimit="10" stroke-width="2.5"/><path fill="none" stroke="rgb(0,0,0)" paint-order="fill stroke markers" d=" M -10 539.9999999999999 L -10 491.1753217443615 L -9.997052063714477 491.17605161966793 L -9.348811490665867 491.3396813077991 L -8.703286600710328 491.50582985296836 L -8.060460470595388 491.6745620706581 L -7.4203163209754734 491.8459449624117 L -6.782837515040001 492.02004780937017 L -6.148007557163169 492.19694227064497 L -5.515810091578544 492.3767024868224 L -4.886228901075242 492.5594051889137 L -4.259247905720201 492.74512981308845 L -3.6348511616020005 492.9339586215538 L -3.013022859600767 493.12597682996505 L -2.3937473241799694 493.3212727417853 L -1.7770090122041324 493.51993789003944 L -1.1627925117812197 493.72206718694144 L -0.5510825411285509 493.9277590819109 L 0.05813605253382548 494.1371157285325 L 0.664878294066682 494.3502431610543 L 1.2691590814663982 494.5672514810672 L 1.8709931868949639 494.7882550550578 L 2.470395257680991 495.01337272357966 L 3.067379817295489 495.24272802285066 L 3.661961266296146 495.4764494196428 L 4.254153883243532 495.7146705604079 L 4.843971825586834 495.9575305356535 L 5.4314291305194615 496.2051741606708 L 6.016539715800661 496.4577522738061 L 6.599317380544051 496.7154220535697 L 7.1797758059719285 496.9783473559835 L 7.757928556134118 497.24669907369196 L 8.333789078585994 497.52065551849137 L 8.907370705031724 497.8004028290795 L 9.478686651921123 498.08613540598685 L 10.047750021007516 498.3780563758276 L 10.614573799855805 498.6763780872023 L 11.179170862305398 498.9813226407987 L 11.741553968881306 499.29312245647543 L 12.301735767149523 499.6120208803726 L 12.859728792017052 499.9382728353862 L 13.415545465969615 500.27214551866217 L 13.969198099243897 500.61391915012564 L 14.520698889930884 500.96388777645393 L 15.07005992400417 501.3223601353461 L 15.61729317526732 501.68966058543094 L 16.16241050521552 502.0661301077037 L 16.70542366280489 502.4521273849954 L 17.24634428411929 502.84802996665985 L 17.785183891930444 503.25423552643446 L 18.321953895138506 503.6711632222858 L 18.856665588086287 504.0992551680213 L 19.389330149731848 504.5389780275315 L 19.91995864267068 504.99082474375496 L 20.44856201199019 505.45531641583517 L 20.9751510839439 505.9330043395061 L 21.49973656442495 506.4244722275071 L 22.022329037219663 506.93033862883675 L 22.542938962020514 507.45125956793424 L 23.061576672172862 507.9879314274723 L 23.578252372126087 508.54109410140626 L 24.09297613455982 509.1115344483077 L 24.605757897146702 509.70009007888416 L 25.116607458914984 510.30765351603486 L 25.625534476162045 510.93517677090335 L 26.132548457866676 511.58367638428166 L 26.637658760544753 512.2542389895292 L 27.14087458247485 512.9480274610495 L 27.642204957222418 513.6662877215194 L 28.141658746369274 514.4103562917096 L 28.63924463135089 515.1816686791566 L 29.134971104279828 515.9817687164765 L 29.628846457624775 516.8123189771537 L 30.12087877258881 517.6751124166898 L 30.611075905997893 518.5720854106611 L 31.099445475503614 519.5053323892378 L 31.58599484283735 520.4771223009772 L 32.070731094842756 521.4899171783308 L 32.55366102193824 522.5463931246837 L 33.03479109361723 523.6494640996002 L 33.51412743051395 524.8023089474352 L 33.991675772477436 526.0084021972878 L 34.467441441985954 527.2715492628394 L 34.9414293021195 528.5959267932567 L 35.413643708118514 529.9861290765732 L 35.884088451403784 531.447221581863 L 36.35276669464696 532.984802955211 L 36.81968089621927 534.6050770688039 L 37.28483272193529 536.3149370778576 L 37.74822294157633 538.1220638868793 L 38.20139518442699 540" stroke-opacity="0.6980392156862745" stroke-linecap="round" stroke-linejoin="round" stroke-miterlimit="10" stroke-width="2.5"/><text fill="rgb(0,0,0)" stroke="none" font-family="geogebra-sans-serif, sans-serif" font-size="24px" font-style="normal" font-weight="normal" text-decoration="normal" x="-669" y="470" text-anchor="start" dominant-baseline="alphabetic" fill-opacity="1">c</text><text fill="none" stroke="rgb(255,255,255)" font-family="geogebra-sans-serif, sans-serif" font-size="24px" font-style="normal" font-weight="normal" text-decoration="normal" x="-669" y="470" text-anchor="start" dominant-baseline="alphabetic" stroke-opacity="1" stroke-linejoin="bevel" stroke-miterlimit="10" stroke-width="3">c</text><text fill="rgb(0,0,0)" stroke="none" font-family="geogebra-sans-serif, sans-serif" font-size="24px" font-style="normal" font-weight="normal" text-decoration="normal" x="-669" y="470" text-anchor="start" dominant-baseline="alphabetic" fill-opacity="1">c</text><path fill="rgb(77,77,255)" stroke="none" paint-order="stroke fill markers" d=" M 290.2843473355803 476.90499214555894 C 290.2843473355803 479.6664158947129 288.04577108473427 481.90499214555894 285.2843473355803 481.90499214555894 C 282.5229235864264 481.90499214555894 280.2843473355803 479.6664158947129 280.2843473355803 476.90499214555894 C 280.2843473355803 474.143568396405 282.5229235864264 471.90499214555894 285.2843473355803 471.90499214555894 C 288.04577108473427 471.90499214555894 290.2843473355803 474.143568396405 290.2843473355803 476.90499214555894 Z" fill-opacity="1"/><path fill="none" stroke="rgb(0,0,0)" paint-order="fill stroke markers" d=" M 290.2843473355803 476.90499214555894 C 290.2843473355803 479.6664158947129 288.04577108473427 481.90499214555894 285.2843473355803 481.90499214555894 C 282.5229235864264 481.90499214555894 280.2843473355803 479.6664158947129 280.2843473355803 476.90499214555894 C 280.2843473355803 474.143568396405 282.5229235864264 471.90499214555894 285.2843473355803 471.90499214555894 C 288.04577108473427 471.90499214555894 290.2843473355803 474.143568396405 290.2843473355803 476.90499214555894 Z" stroke-opacity="1" stroke-linecap="round" stroke-linejoin="round" stroke-miterlimit="10"/><text fill="rgb(77,77,255)" stroke="none" font-family="geogebra-sans-serif, sans-serif" font-size="24px" font-style="normal" font-weight="normal" text-decoration="normal" x="289" y="467" text-anchor="start" dominant-baseline="alphabetic" fill-opacity="1">A</text><text fill="none" stroke="rgb(255,255,255)" font-family="geogebra-sans-serif, sans-serif" font-size="24px" font-style="normal" font-weight="normal" text-decoration="normal" x="289" y="467" text-anchor="start" dominant-baseline="alphabetic" stroke-opacity="1" stroke-linejoin="bevel" stroke-miterlimit="10" stroke-width="3">A</text><text fill="rgb(77,77,255)" stroke="none" font-family="geogebra-sans-serif, sans-serif" font-size="24px" font-style="normal" font-weight="normal" text-decoration="normal" x="289" y="467" text-anchor="start" dominant-baseline="alphabetic" fill-opacity="1">A</text><path fill="rgb(77,77,255)" stroke="none" paint-order="stroke fill markers" d=" M 105.13226675889281 458.20463200731353 C 105.13226675889281 460.9660557564675 102.89369050804677 463.20463200731353 100.13226675889281 463.20463200731353 C 97.37084300973885 463.20463200731353 95.13226675889281 460.9660557564675 95.13226675889281 458.20463200731353 C 95.13226675889281 455.4432082581596 97.37084300973885 453.20463200731353 100.13226675889281 453.20463200731353 C 102.89369050804677 453.20463200731353 105.13226675889281 455.4432082581596 105.13226675889281 458.20463200731353 Z" fill-opacity="1"/><path fill="none" stroke="rgb(0,0,0)" paint-order="fill stroke markers" d=" M 105.13226675889281 458.20463200731353 C 105.13226675889281 460.9660557564675 102.89369050804677 463.20463200731353 100.13226675889281 463.20463200731353 C 97.37084300973885 463.20463200731353 95.13226675889281 460.9660557564675 95.13226675889281 458.20463200731353 C 95.13226675889281 455.4432082581596 97.37084300973885 453.20463200731353 100.13226675889281 453.20463200731353 C 102.89369050804677 453.20463200731353 105.13226675889281 455.4432082581596 105.13226675889281 458.20463200731353 Z" stroke-opacity="1" stroke-linecap="round" stroke-linejoin="round" stroke-miterlimit="10"/><text fill="rgb(77,77,255)" stroke="none" font-family="geogebra-sans-serif, sans-serif" font-size="24px" font-style="normal" font-weight="normal" text-decoration="normal" x="104" y="448" text-anchor="start" dominant-baseline="alphabetic" fill-opacity="1">B</text><text fill="none" stroke="rgb(255,255,255)" font-family="geogebra-sans-serif, sans-serif" font-size="24px" font-style="normal" font-weight="normal" text-decoration="normal" x="104" y="448" text-anchor="start" dominant-baseline="alphabetic" stroke-opacity="1" stroke-linejoin="bevel" stroke-miterlimit="10" stroke-width="3">B</text><text fill="rgb(77,77,255)" stroke="none" font-family="geogebra-sans-serif, sans-serif" font-size="24px" font-style="normal" font-weight="normal" text-decoration="normal" x="104" y="448" text-anchor="start" dominant-baseline="alphabetic" fill-opacity="1">B</text><path fill="rgb(77,77,255)" stroke="none" paint-order="stroke fill markers" d=" M 81.98825668680688 438.5322234460405 C 81.98825668680688 441.29364719519447 79.74968043596084 443.5322234460405 76.98825668680688 443.5322234460405 C 74.22683293765292 443.5322234460405 71.98825668680688 441.29364719519447 71.98825668680688 438.5322234460405 C 71.98825668680688 435.77079969688657 74.22683293765292 433.5322234460405 76.98825668680688 433.5322234460405 C 79.74968043596084 433.5322234460405 81.98825668680688 435.77079969688657 81.98825668680688 438.5322234460405 Z" fill-opacity="1"/><path fill="none" stroke="rgb(0,0,0)" paint-order="fill stroke markers" d=" M 81.98825668680688 438.5322234460405 C 81.98825668680688 441.29364719519447 79.74968043596084 443.5322234460405 76.98825668680688 443.5322234460405 C 74.22683293765292 443.5322234460405 71.98825668680688 441.29364719519447 71.98825668680688 438.5322234460405 C 71.98825668680688 435.77079969688657 74.22683293765292 433.5322234460405 76.98825668680688 433.5322234460405 C 79.74968043596084 433.5322234460405 81.98825668680688 435.77079969688657 81.98825668680688 438.5322234460405 Z" stroke-opacity="1" stroke-linecap="round" stroke-linejoin="round" stroke-miterlimit="10"/><text fill="rgb(77,77,255)" stroke="none" font-family="geogebra-sans-serif, sans-serif" font-size="24px" font-style="normal" font-weight="normal" text-decoration="normal" x="81" y="429" text-anchor="start" dominant-baseline="alphabetic" fill-opacity="1">C</text><text fill="none" stroke="rgb(255,255,255)" font-family="geogebra-sans-serif, sans-serif" font-size="24px" font-style="normal" font-weight="normal" text-decoration="normal" x="81" y="429" text-anchor="start" dominant-baseline="alphabetic" stroke-opacity="1" stroke-linejoin="bevel" stroke-miterlimit="10" stroke-width="3">C</text><text fill="rgb(77,77,255)" stroke="none" font-family="geogebra-sans-serif, sans-serif" font-size="24px" font-style="normal" font-weight="normal" text-decoration="normal" x="81" y="429" text-anchor="start" dominant-baseline="alphabetic" fill-opacity="1">C</text><path fill="rgb(77,77,255)" stroke="none" paint-order="stroke fill markers" d=" M 63.473048629138134 296.6131536840097 C 63.473048629138134 299.37457743316367 61.2344723782921 301.6131536840097 58.473048629138134 301.6131536840097 C 55.711624879984164 301.6131536840097 53.473048629138134 299.37457743316367 53.473048629138134 296.6131536840097 C 53.473048629138134 293.85172993485577 55.711624879984164 291.6131536840097 58.473048629138134 291.6131536840097 C 61.2344723782921 291.6131536840097 63.473048629138134 293.85172993485577 63.473048629138134 296.6131536840097 Z" fill-opacity="1"/><path fill="none" stroke="rgb(0,0,0)" paint-order="fill stroke markers" d=" M 63.473048629138134 296.6131536840097 C 63.473048629138134 299.37457743316367 61.2344723782921 301.6131536840097 58.473048629138134 301.6131536840097 C 55.711624879984164 301.6131536840097 53.473048629138134 299.37457743316367 53.473048629138134 296.6131536840097 C 53.473048629138134 293.85172993485577 55.711624879984164 291.6131536840097 58.473048629138134 291.6131536840097 C 61.2344723782921 291.6131536840097 63.473048629138134 293.85172993485577 63.473048629138134 296.6131536840097 Z" stroke-opacity="1" stroke-linecap="round" stroke-linejoin="round" stroke-miterlimit="10"/><text fill="rgb(77,77,255)" stroke="none" font-family="geogebra-sans-serif, sans-serif" font-size="24px" font-style="normal" font-weight="normal" text-decoration="normal" x="62" y="287" text-anchor="start" dominant-baseline="alphabetic" fill-opacity="1">D</text><text fill="none" stroke="rgb(255,255,255)" font-family="geogebra-sans-serif, sans-serif" font-size="24px" font-style="normal" font-weight="normal" text-decoration="normal" x="62" y="287" text-anchor="start" dominant-baseline="alphabetic" stroke-opacity="1" stroke-linejoin="bevel" stroke-miterlimit="10" stroke-width="3">D</text><text fill="rgb(77,77,255)" stroke="none" font-family="geogebra-sans-serif, sans-serif" font-size="24px" font-style="normal" font-weight="normal" text-decoration="normal" x="62" y="287" text-anchor="start" dominant-baseline="alphabetic" fill-opacity="1">D</text><path fill="rgb(77,77,255)" stroke="none" paint-order="stroke fill markers" d=" M 61.15864762192954 127.8470322383593 C 61.15864762192954 130.60845598751328 58.92007137108351 132.8470322383593 56.15864762192954 132.8470322383593 C 53.39722387277557 132.8470322383593 51.15864762192954 130.60845598751328 51.15864762192954 127.8470322383593 C 51.15864762192954 125.08560848920534 53.39722387277557 122.8470322383593 56.15864762192954 122.8470322383593 C 58.92007137108351 122.8470322383593 61.15864762192954 125.08560848920534 61.15864762192954 127.8470322383593 Z" fill-opacity="1"/><path fill="none" stroke="rgb(0,0,0)" paint-order="fill stroke markers" d=" M 61.15864762192954 127.8470322383593 C 61.15864762192954 130.60845598751328 58.92007137108351 132.8470322383593 56.15864762192954 132.8470322383593 C 53.39722387277557 132.8470322383593 51.15864762192954 130.60845598751328 51.15864762192954 127.8470322383593 C 51.15864762192954 125.08560848920534 53.39722387277557 122.8470322383593 56.15864762192954 122.8470322383593 C 58.92007137108351 122.8470322383593 61.15864762192954 125.08560848920534 61.15864762192954 127.8470322383593 Z" stroke-opacity="1" stroke-linecap="round" stroke-linejoin="round" stroke-miterlimit="10"/><text fill="rgb(77,77,255)" stroke="none" font-family="geogebra-sans-serif, sans-serif" font-size="24px" font-style="normal" font-weight="normal" text-decoration="normal" x="60" y="118" text-anchor="start" dominant-baseline="alphabetic" fill-opacity="1">E</text><text fill="none" stroke="rgb(255,255,255)" font-family="geogebra-sans-serif, sans-serif" font-size="24px" font-style="normal" font-weight="normal" text-decoration="normal" x="60" y="118" text-anchor="start" dominant-baseline="alphabetic" stroke-opacity="1" stroke-linejoin="bevel" stroke-miterlimit="10" stroke-width="3">E</text><text fill="rgb(77,77,255)" stroke="none" font-family="geogebra-sans-serif, sans-serif" font-size="24px" font-style="normal" font-weight="normal" text-decoration="normal" x="60" y="118" text-anchor="start" dominant-baseline="alphabetic" fill-opacity="1">E</text></g></g></svg>