<?xml version="1.0" encoding="UTF-8"?><svg xmlns="http://www.w3.org/2000/svg" xmlns:xlink="http://www.w3.org/1999/xlink" fill-opacity="1" color-rendering="auto" color-interpolation="auto" text-rendering="auto" stroke="black" stroke-linecap="square" width="348" stroke-miterlimit="10" shape-rendering="auto" stroke-opacity="1" fill="black" stroke-dasharray="none" font-weight="normal" stroke-width="1" height="216" font-family="'Dialog'" font-style="normal" stroke-linejoin="miter" font-size="12px" stroke-dashoffset="0" image-rendering="auto">
  <!--Generated by ySVG 2.5-->
  <defs id="genericDefs"/>
  <g>
    <defs id="defs1">
      <clipPath clipPathUnits="userSpaceOnUse" id="clipPath1">
        <path d="M0 0 L348 0 L348 216 L0 216 L0 0 Z"/>
      </clipPath>
      <clipPath clipPathUnits="userSpaceOnUse" id="clipPath2">
        <path d="M124 111 L472 111 L472 327 L124 327 L124 111 Z"/>
      </clipPath>
      <clipPath clipPathUnits="userSpaceOnUse" id="clipPath3">
        <path d="M169.1758 -21.6494 L169.1758 326.3506 L-46.8242 326.3506 L-46.8242 -21.6494 L169.1758 -21.6494 Z"/>
      </clipPath>
    </defs>
    <g fill="white" text-rendering="geometricPrecision" shape-rendering="geometricPrecision" transform="translate(-124,-111)" stroke="white">
      <rect x="124" width="348" height="216" y="111" clip-path="url(#clipPath2)" stroke="none"/>
    </g>
    <g fill="rgb(232,238,247)" text-rendering="geometricPrecision" shape-rendering="geometricPrecision" transform="matrix(1,0,0,1,-124,-111)" stroke="rgb(232,238,247)">
      <path d="M139 126 L457 126 L457 174 L139 174 Z" stroke="none" clip-path="url(#clipPath2)"/>
    </g>
    <g text-rendering="geometricPrecision" stroke-miterlimit="1.45" shape-rendering="geometricPrecision" transform="matrix(1,0,0,1,-124,-111)" stroke-linecap="butt">
      <path fill="none" d="M139 126 L457 126 L457 174 L139 174 Z" clip-path="url(#clipPath2)"/>
      <text x="223.5225" font-size="20px" y="157.8564" clip-path="url(#clipPath2)" font-family="sans-serif" stroke="none" xml:space="preserve">Alice versus Bob</text>
    </g>
    <g fill="rgb(232,238,247)" text-rendering="geometricPrecision" shape-rendering="geometricPrecision" transform="matrix(1,0,0,1,-124,-111)" stroke="rgb(232,238,247)">
      <path d="M139 173.5 L219 173.5 L219 223.5 L139 223.5 Z" stroke="none" clip-path="url(#clipPath2)"/>
    </g>
    <g text-rendering="geometricPrecision" stroke-miterlimit="1.45" shape-rendering="geometricPrecision" transform="matrix(1,0,0,1,-124,-111)" stroke-linecap="butt">
      <path fill="none" d="M139 173.5 L219 173.5 L219 223.5 L139 223.5 Z" clip-path="url(#clipPath2)"/>
      <text x="154.4873" font-size="18px" y="205.5708" clip-path="url(#clipPath2)" font-family="sans-serif" stroke="none" xml:space="preserve">speler</text>
    </g>
    <g fill="rgb(232,238,247)" text-rendering="geometricPrecision" shape-rendering="geometricPrecision" transform="matrix(1,0,0,1,-124,-111)" stroke="rgb(232,238,247)">
      <path d="M219 174 L457 174 L457 199 L219 199 Z" stroke="none" clip-path="url(#clipPath2)"/>
    </g>
    <g text-rendering="geometricPrecision" stroke-miterlimit="1.45" shape-rendering="geometricPrecision" transform="matrix(1,0,0,1,-124,-111)" stroke-linecap="butt">
      <path fill="none" d="M219 174 L457 174 L457 199 L219 199 Z" clip-path="url(#clipPath2)"/>
      <text x="324.9951" xml:space="preserve" y="191.2139" clip-path="url(#clipPath2)" font-family="sans-serif" stroke="none">Alice</text>
    </g>
    <g fill="rgb(232,238,247)" text-rendering="geometricPrecision" shape-rendering="geometricPrecision" transform="matrix(1,0,0,1,-124,-111)" stroke="rgb(232,238,247)">
      <path d="M139 223.5 L171 223.5 L171 311.5 L139 311.5 Z" stroke="none" clip-path="url(#clipPath2)"/>
    </g>
    <g text-rendering="geometricPrecision" stroke-miterlimit="1.45" shape-rendering="geometricPrecision" transform="matrix(1,0,0,1,-124,-111)" stroke-linecap="butt">
      <path fill="none" d="M139 223.5 L171 223.5 L171 311.5 L139 311.5 Z" clip-path="url(#clipPath2)"/>
    </g>
    <g text-rendering="geometricPrecision" stroke-miterlimit="1.45" shape-rendering="geometricPrecision" font-family="sans-serif" transform="matrix(-0,-1,1,-0,21.6494,169.1758)" stroke-linecap="butt">
      <text x="2" xml:space="preserve" y="14.0645" clip-path="url(#clipPath3)" stroke="none">Bob</text>
    </g>
    <g fill="rgb(232,238,247)" text-rendering="geometricPrecision" shape-rendering="geometricPrecision" transform="matrix(1,0,0,1,-124,-111)" stroke="rgb(232,238,247)">
      <path d="M219 198.5 L338 198.5 L338 223.5 L219 223.5 Z" stroke="none" clip-path="url(#clipPath2)"/>
    </g>
    <g text-rendering="geometricPrecision" stroke-miterlimit="1.45" shape-rendering="geometricPrecision" transform="matrix(1,0,0,1,-124,-111)" stroke-linecap="butt">
      <path fill="none" d="M219 198.5 L338 198.5 L338 223.5 L219 223.5 Z" clip-path="url(#clipPath2)"/>
      <text x="258.8154" xml:space="preserve" y="215.7139" clip-path="url(#clipPath2)" font-family="sans-serif" stroke="none">getuigd</text>
    </g>
    <g fill="rgb(232,238,247)" text-rendering="geometricPrecision" shape-rendering="geometricPrecision" transform="matrix(1,0,0,1,-124,-111)" stroke="rgb(232,238,247)">
      <path d="M338 198.5 L457 198.5 L457 223.5 L338 223.5 Z" stroke="none" clip-path="url(#clipPath2)"/>
    </g>
    <g text-rendering="geometricPrecision" stroke-miterlimit="1.45" shape-rendering="geometricPrecision" transform="matrix(1,0,0,1,-124,-111)" stroke-linecap="butt">
      <path fill="none" d="M338 198.5 L457 198.5 L457 223.5 L338 223.5 Z" clip-path="url(#clipPath2)"/>
      <text x="378.1582" xml:space="preserve" y="215.7139" clip-path="url(#clipPath2)" font-family="sans-serif" stroke="none">weigert</text>
    </g>
    <g fill="rgb(232,238,247)" text-rendering="geometricPrecision" shape-rendering="geometricPrecision" transform="matrix(1,0,0,1,-124,-111)" stroke="rgb(232,238,247)">
      <path d="M219 223.5 L338 223.5 L338 267.5 L219 267.5 Z" stroke="none" clip-path="url(#clipPath2)"/>
    </g>
    <g text-rendering="geometricPrecision" stroke-miterlimit="1.45" shape-rendering="geometricPrecision" transform="matrix(1,0,0,1,-124,-111)" stroke-linecap="butt">
      <path fill="none" d="M219 223.5 L338 223.5 L338 267.5 L219 267.5 Z" clip-path="url(#clipPath2)"/>
      <text x="232.8145" xml:space="preserve" y="242.8633" clip-path="url(#clipPath2)" font-family="sans-serif" stroke="none">Straf Alice: 5 jaar</text>
      <text x="232.8145" xml:space="preserve" y="257.5645" clip-path="url(#clipPath2)" font-family="sans-serif" stroke="none">Straf Bob: 5 jaar</text>
    </g>
    <g fill="rgb(232,238,247)" text-rendering="geometricPrecision" shape-rendering="geometricPrecision" transform="matrix(1,0,0,1,-124,-111)" stroke="rgb(232,238,247)">
      <path d="M171 223.5 L219 223.5 L219 267.5 L171 267.5 Z" stroke="none" clip-path="url(#clipPath2)"/>
    </g>
    <g text-rendering="geometricPrecision" stroke-miterlimit="1.45" shape-rendering="geometricPrecision" transform="matrix(1,0,0,1,-124,-111)" stroke-linecap="butt">
      <path fill="none" d="M171 223.5 L219 223.5 L219 267.5 L171 267.5 Z" clip-path="url(#clipPath2)"/>
      <text x="175.3154" xml:space="preserve" y="250.2139" clip-path="url(#clipPath2)" font-family="sans-serif" stroke="none">getuigd</text>
    </g>
    <g fill="rgb(232,238,247)" text-rendering="geometricPrecision" shape-rendering="geometricPrecision" transform="matrix(1,0,0,1,-124,-111)" stroke="rgb(232,238,247)">
      <path d="M171 267.5 L219 267.5 L219 311.5 L171 311.5 Z" stroke="none" clip-path="url(#clipPath2)"/>
    </g>
    <g text-rendering="geometricPrecision" stroke-miterlimit="1.45" shape-rendering="geometricPrecision" transform="matrix(1,0,0,1,-124,-111)" stroke-linecap="butt">
      <path fill="none" d="M171 267.5 L219 267.5 L219 311.5 L171 311.5 Z" clip-path="url(#clipPath2)"/>
      <text x="175.6582" xml:space="preserve" y="294.2139" clip-path="url(#clipPath2)" font-family="sans-serif" stroke="none">weigert</text>
    </g>
    <g fill="rgb(232,238,247)" text-rendering="geometricPrecision" shape-rendering="geometricPrecision" transform="matrix(1,0,0,1,-124,-111)" stroke="rgb(232,238,247)">
      <path d="M338 223.5 L457 223.5 L457 267.5 L338 267.5 Z" stroke="none" clip-path="url(#clipPath2)"/>
    </g>
    <g text-rendering="geometricPrecision" stroke-miterlimit="1.45" shape-rendering="geometricPrecision" transform="matrix(1,0,0,1,-124,-111)" stroke-linecap="butt">
      <path fill="none" d="M338 223.5 L457 223.5 L457 267.5 L338 267.5 Z" clip-path="url(#clipPath2)"/>
      <text x="348.4775" xml:space="preserve" y="242.8633" clip-path="url(#clipPath2)" font-family="sans-serif" stroke="none">Straf Alice: 10 jaar</text>
      <text x="348.4775" xml:space="preserve" y="257.5645" clip-path="url(#clipPath2)" font-family="sans-serif" stroke="none">Straf Bob: 0 jaar</text>
    </g>
    <g fill="rgb(232,238,247)" text-rendering="geometricPrecision" shape-rendering="geometricPrecision" transform="matrix(1,0,0,1,-124,-111)" stroke="rgb(232,238,247)">
      <path d="M219 267.5 L338 267.5 L338 311.5 L219 311.5 Z" stroke="none" clip-path="url(#clipPath2)"/>
    </g>
    <g text-rendering="geometricPrecision" stroke-miterlimit="1.45" shape-rendering="geometricPrecision" transform="matrix(1,0,0,1,-124,-111)" stroke-linecap="butt">
      <path fill="none" d="M219 267.5 L338 267.5 L338 311.5 L219 311.5 Z" clip-path="url(#clipPath2)"/>
      <text x="231.8066" xml:space="preserve" y="286.8633" clip-path="url(#clipPath2)" font-family="sans-serif" stroke="none">Straf Alice: 0 jaar</text>
      <text x="231.8066" xml:space="preserve" y="301.5645" clip-path="url(#clipPath2)" font-family="sans-serif" stroke="none">Straf Bob: 10 jaar</text>
    </g>
    <g fill="rgb(232,238,247)" text-rendering="geometricPrecision" shape-rendering="geometricPrecision" transform="matrix(1,0,0,1,-124,-111)" stroke="rgb(232,238,247)">
      <path d="M338 267.5 L457 267.5 L457 311.5 L338 311.5 Z" stroke="none" clip-path="url(#clipPath2)"/>
    </g>
    <g text-rendering="geometricPrecision" stroke-miterlimit="1.45" shape-rendering="geometricPrecision" transform="matrix(1,0,0,1,-124,-111)" stroke-linecap="butt">
      <path fill="none" d="M338 267.5 L457 267.5 L457 311.5 L338 311.5 Z" clip-path="url(#clipPath2)"/>
      <text x="351.8145" xml:space="preserve" y="286.8633" clip-path="url(#clipPath2)" font-family="sans-serif" stroke="none">Straf Alice: 1 jaar</text>
      <text x="351.8145" xml:space="preserve" y="301.5645" clip-path="url(#clipPath2)" font-family="sans-serif" stroke="none">Straf Bob: 1 jaar</text>
    </g>
  </g>
</svg>
