<?xml version="1.0" encoding="UTF-8"?><svg xmlns="http://www.w3.org/2000/svg" xmlns:xlink="http://www.w3.org/1999/xlink" fill-opacity="1" color-rendering="auto" color-interpolation="auto" text-rendering="auto" stroke="black" stroke-linecap="square" width="511" stroke-miterlimit="10" shape-rendering="auto" stroke-opacity="1" fill="black" stroke-dasharray="none" font-weight="normal" stroke-width="1" height="260" font-family="'Dialog'" font-style="normal" stroke-linejoin="miter" font-size="12px" stroke-dashoffset="0" image-rendering="auto">
  <!--Generated by ySVG 2.5-->
  <defs id="genericDefs"/>
  <g>
    <defs id="defs1">
      <clipPath clipPathUnits="userSpaceOnUse" id="clipPath1">
        <path d="M0 0 L511 0 L511 260 L0 260 L0 0 Z"/>
      </clipPath>
      <clipPath clipPathUnits="userSpaceOnUse" id="clipPath2">
        <path d="M124 138 L635 138 L635 398 L124 398 L124 138 Z"/>
      </clipPath>
    </defs>
    <g fill="white" text-rendering="geometricPrecision" shape-rendering="geometricPrecision" transform="translate(-124,-138)" stroke="white">
      <rect x="124" width="511" height="260" y="138" clip-path="url(#clipPath2)" stroke="none"/>
    </g>
    <g fill="rgb(232,238,247)" text-rendering="geometricPrecision" shape-rendering="geometricPrecision" transform="matrix(1,0,0,1,-124,-138)" stroke="rgb(232,238,247)">
      <path d="M139 153.56 L619 153.56 L619 223 L139 223 Z" stroke="none" clip-path="url(#clipPath2)"/>
    </g>
    <g text-rendering="geometricPrecision" stroke-miterlimit="1.45" shape-rendering="geometricPrecision" transform="matrix(1,0,0,1,-124,-138)" stroke-linecap="butt">
      <path fill="none" d="M139 153.56 L619 153.56 L619 223 L139 223 Z" clip-path="url(#clipPath2)"/>
      <text x="330.0742" font-size="20px" y="183.8855" clip-path="url(#clipPath2)" font-family="sans-serif" stroke="none" xml:space="preserve">1 en 0 spel</text>
      <text x="322.2861" font-size="20px" y="208.3874" clip-path="url(#clipPath2)" font-family="sans-serif" stroke="none" xml:space="preserve">puntentelling</text>
    </g>
    <g fill="rgb(232,238,247)" text-rendering="geometricPrecision" shape-rendering="geometricPrecision" transform="matrix(1,0,0,1,-124,-138)" stroke="rgb(232,238,247)">
      <path d="M139 303 L379 303 L379 343 L139 343 Z" stroke="none" clip-path="url(#clipPath2)"/>
    </g>
    <g text-rendering="geometricPrecision" stroke-miterlimit="1.45" shape-rendering="geometricPrecision" transform="matrix(1,0,0,1,-124,-138)" stroke-linecap="butt">
      <path fill="none" d="M139 303 L379 303 L379 343 L139 343 Z" clip-path="url(#clipPath2)"/>
      <text x="148.9141" xml:space="preserve" y="327.7139" clip-path="url(#clipPath2)" font-family="sans-serif" stroke="none">alle groepsleden hebben 0 opgeschreven</text>
    </g>
    <g fill="rgb(232,238,247)" text-rendering="geometricPrecision" shape-rendering="geometricPrecision" transform="matrix(1,0,0,1,-124,-138)" stroke="rgb(232,238,247)">
      <path d="M139 223 L379 223 L379 263 L139 263 Z" stroke="none" clip-path="url(#clipPath2)"/>
    </g>
    <g text-rendering="geometricPrecision" stroke-miterlimit="1.45" shape-rendering="geometricPrecision" transform="matrix(1,0,0,1,-124,-138)" stroke-linecap="butt">
      <path fill="none" d="M139 223 L379 223 L379 263 L139 263 Z" clip-path="url(#clipPath2)"/>
      <text x="239.9893" xml:space="preserve" y="247.7139" clip-path="url(#clipPath2)" font-family="sans-serif" stroke="none">situatie</text>
    </g>
    <g fill="rgb(232,238,247)" text-rendering="geometricPrecision" shape-rendering="geometricPrecision" transform="matrix(1,0,0,1,-124,-138)" stroke="rgb(232,238,247)">
      <path d="M139 263 L379 263 L379 303 L139 303 Z" stroke="none" clip-path="url(#clipPath2)"/>
    </g>
    <g text-rendering="geometricPrecision" stroke-miterlimit="1.45" shape-rendering="geometricPrecision" transform="matrix(1,0,0,1,-124,-138)" stroke-linecap="butt">
      <path fill="none" d="M139 263 L379 263 L379 303 L139 303 Z" clip-path="url(#clipPath2)"/>
      <text x="148.9141" xml:space="preserve" y="287.7139" clip-path="url(#clipPath2)" font-family="sans-serif" stroke="none">alle groepsleden hebben 1 opgeschreven</text>
    </g>
    <g fill="rgb(232,238,247)" text-rendering="geometricPrecision" shape-rendering="geometricPrecision" transform="matrix(1,0,0,1,-124,-138)" stroke="rgb(232,238,247)">
      <path d="M379 223 L619 223 L619 263 L379 263 Z" stroke="none" clip-path="url(#clipPath2)"/>
    </g>
    <g text-rendering="geometricPrecision" stroke-miterlimit="1.45" shape-rendering="geometricPrecision" transform="matrix(1,0,0,1,-124,-138)" stroke-linecap="butt">
      <path fill="none" d="M379 223 L619 223 L619 263 L379 263 Z" clip-path="url(#clipPath2)"/>
      <text x="480.6484" xml:space="preserve" y="247.7139" clip-path="url(#clipPath2)" font-family="sans-serif" stroke="none">punten</text>
    </g>
    <g fill="rgb(232,238,247)" text-rendering="geometricPrecision" shape-rendering="geometricPrecision" transform="matrix(1,0,0,1,-124,-138)" stroke="rgb(232,238,247)">
      <path d="M379 263 L619 263 L619 303 L379 303 Z" stroke="none" clip-path="url(#clipPath2)"/>
    </g>
    <g text-rendering="geometricPrecision" stroke-miterlimit="1.45" shape-rendering="geometricPrecision" transform="matrix(1,0,0,1,-124,-138)" stroke-linecap="butt">
      <path fill="none" d="M379 263 L619 263 L619 303 L379 303 Z" clip-path="url(#clipPath2)"/>
      <text x="419.9512" xml:space="preserve" y="287.7139" clip-path="url(#clipPath2)" font-family="sans-serif" stroke="none">Ieder groepslid krijgt 3 punten</text>
    </g>
    <g fill="rgb(232,238,247)" text-rendering="geometricPrecision" shape-rendering="geometricPrecision" transform="matrix(1,0,0,1,-124,-138)" stroke="rgb(232,238,247)">
      <path d="M379 303 L619 303 L619 343 L379 343 Z" stroke="none" clip-path="url(#clipPath2)"/>
    </g>
    <g text-rendering="geometricPrecision" stroke-miterlimit="1.45" shape-rendering="geometricPrecision" transform="matrix(1,0,0,1,-124,-138)" stroke-linecap="butt">
      <path fill="none" d="M379 303 L619 303 L619 343 L379 343 Z" clip-path="url(#clipPath2)"/>
      <text x="426.625" xml:space="preserve" y="327.7139" clip-path="url(#clipPath2)" font-family="sans-serif" stroke="none">Ieder groepslid krijgt 1 punt</text>
    </g>
    <g fill="rgb(232,238,247)" text-rendering="geometricPrecision" shape-rendering="geometricPrecision" transform="matrix(1,0,0,1,-124,-138)" stroke="rgb(232,238,247)">
      <path d="M139 343 L379 343 L379 383 L139 383 Z" stroke="none" clip-path="url(#clipPath2)"/>
    </g>
    <g text-rendering="geometricPrecision" stroke-miterlimit="1.45" shape-rendering="geometricPrecision" transform="matrix(1,0,0,1,-124,-138)" stroke-linecap="butt">
      <path fill="none" d="M139 343 L379 343 L379 383 L139 383 Z" clip-path="url(#clipPath2)"/>
      <text x="171.6074" xml:space="preserve" y="360.3633" clip-path="url(#clipPath2)" font-family="sans-serif" stroke="none">sommige groepsleden hebben 1,</text>
      <text x="170.9277" xml:space="preserve" y="375.0645" clip-path="url(#clipPath2)" font-family="sans-serif" stroke="none">anderen hebben 0 opgeschreven</text>
    </g>
    <g fill="rgb(232,238,247)" text-rendering="geometricPrecision" shape-rendering="geometricPrecision" transform="matrix(1,0,0,1,-124,-138)" stroke="rgb(232,238,247)">
      <path d="M379 343 L619 343 L619 383 L379 383 Z" stroke="none" clip-path="url(#clipPath2)"/>
    </g>
    <g text-rendering="geometricPrecision" stroke-miterlimit="1.45" shape-rendering="geometricPrecision" transform="matrix(1,0,0,1,-124,-138)" stroke-linecap="butt">
      <path fill="none" d="M379 343 L619 343 L619 383 L379 383 Z" clip-path="url(#clipPath2)"/>
      <text x="384.918" xml:space="preserve" y="360.3633" clip-path="url(#clipPath2)" font-family="sans-serif" stroke="none">de groepsleden met een 1 krijgen 0 punten</text>
      <text x="384.918" xml:space="preserve" y="375.0645" clip-path="url(#clipPath2)" font-family="sans-serif" stroke="none">de groepsleden met een 0 krijgen 5 punten</text>
    </g>
  </g>
</svg>
