<?xml version="1.0" encoding="UTF-8"?><svg xmlns="http://www.w3.org/2000/svg" xmlns:xlink="http://www.w3.org/1999/xlink" fill-opacity="1" color-rendering="auto" color-interpolation="auto" text-rendering="auto" stroke="black" stroke-linecap="square" width="349" stroke-miterlimit="10" shape-rendering="auto" stroke-opacity="1" fill="black" stroke-dasharray="none" font-weight="normal" stroke-width="1" height="216" font-family="'Dialog'" font-style="normal" stroke-linejoin="miter" font-size="12px" stroke-dashoffset="0" image-rendering="auto">
  <!--Generated by ySVG 2.5-->
  <defs id="genericDefs"/>
  <g>
    <defs id="defs1">
      <clipPath clipPathUnits="userSpaceOnUse" id="clipPath1">
        <path d="M0 0 L349 0 L349 216 L0 216 L0 0 Z"/>
      </clipPath>
      <clipPath clipPathUnits="userSpaceOnUse" id="clipPath2">
        <path d="M124 111 L473 111 L473 327 L124 327 L124 111 Z"/>
      </clipPath>
      <clipPath clipPathUnits="userSpaceOnUse" id="clipPath3">
        <path d="M189.8477 -21.6494 L189.8477 327.3506 L-26.1523 327.3506 L-26.1523 -21.6494 L189.8477 -21.6494 Z"/>
      </clipPath>
    </defs>
    <g fill="white" text-rendering="geometricPrecision" shape-rendering="geometricPrecision" transform="translate(-124,-111)" stroke="white">
      <rect x="124" width="349" height="216" y="111" clip-path="url(#clipPath2)" stroke="none"/>
    </g>
    <g fill="rgb(232,238,247)" text-rendering="geometricPrecision" shape-rendering="geometricPrecision" transform="matrix(1,0,0,1,-124,-111)" stroke="rgb(232,238,247)">
      <path d="M139 126 L457 126 L457 174 L139 174 Z" stroke="none" clip-path="url(#clipPath2)"/>
    </g>
    <g text-rendering="geometricPrecision" stroke-miterlimit="1.45" shape-rendering="geometricPrecision" transform="matrix(1,0,0,1,-124,-111)" stroke-linecap="butt">
      <path fill="none" d="M139 126 L457 126 L457 174 L139 174 Z" clip-path="url(#clipPath2)"/>
      <text x="260.7539" font-size="20px" y="157.8564" clip-path="url(#clipPath2)" font-family="sans-serif" stroke="none" xml:space="preserve">0-1 Spel</text>
    </g>
    <g fill="rgb(232,238,247)" text-rendering="geometricPrecision" shape-rendering="geometricPrecision" transform="matrix(1,0,0,1,-124,-111)" stroke="rgb(232,238,247)">
      <path d="M139 174 L219 174 L219 223.75 L139 223.75 Z" stroke="none" clip-path="url(#clipPath2)"/>
    </g>
    <g text-rendering="geometricPrecision" stroke-miterlimit="1.45" shape-rendering="geometricPrecision" transform="matrix(1,0,0,1,-124,-111)" stroke-linecap="butt">
      <path fill="none" d="M139 174 L219 174 L219 223.75 L139 223.75 Z" clip-path="url(#clipPath2)"/>
    </g>
    <g fill="rgb(232,238,247)" text-rendering="geometricPrecision" shape-rendering="geometricPrecision" transform="matrix(1,0,0,1,-124,-111)" stroke="rgb(232,238,247)">
      <path d="M219 174 L457 174 L457 199 L219 199 Z" stroke="none" clip-path="url(#clipPath2)"/>
    </g>
    <g text-rendering="geometricPrecision" stroke-miterlimit="1.45" shape-rendering="geometricPrecision" transform="matrix(1,0,0,1,-124,-111)" stroke-linecap="butt">
      <path fill="none" d="M219 174 L457 174 L457 199 L219 199 Z" clip-path="url(#clipPath2)"/>
      <text x="306.6523" xml:space="preserve" y="191.2139" clip-path="url(#clipPath2)" font-family="sans-serif" stroke="none">Groepslid A</text>
    </g>
    <g fill="rgb(232,238,247)" text-rendering="geometricPrecision" shape-rendering="geometricPrecision" transform="matrix(1,0,0,1,-124,-111)" stroke="rgb(232,238,247)">
      <path d="M139 223.5 L171 223.5 L171 311.5 L139 311.5 Z" stroke="none" clip-path="url(#clipPath2)"/>
    </g>
    <g text-rendering="geometricPrecision" stroke-miterlimit="1.45" shape-rendering="geometricPrecision" transform="matrix(1,0,0,1,-124,-111)" stroke-linecap="butt">
      <path fill="none" d="M139 223.5 L171 223.5 L171 311.5 L139 311.5 Z" clip-path="url(#clipPath2)"/>
    </g>
    <g text-rendering="geometricPrecision" stroke-miterlimit="1.45" shape-rendering="geometricPrecision" font-family="sans-serif" transform="matrix(-0,-1,1,-0,21.6494,189.8477)" stroke-linecap="butt">
      <text x="2" xml:space="preserve" y="14.0645" clip-path="url(#clipPath3)" stroke="none">Groepslid B</text>
    </g>
    <g fill="rgb(232,238,247)" text-rendering="geometricPrecision" shape-rendering="geometricPrecision" transform="matrix(1,0,0,1,-124,-111)" stroke="rgb(232,238,247)">
      <path d="M219 198.5 L338 198.5 L338 223.5 L219 223.5 Z" stroke="none" clip-path="url(#clipPath2)"/>
    </g>
    <g text-rendering="geometricPrecision" stroke-miterlimit="1.45" shape-rendering="geometricPrecision" transform="matrix(1,0,0,1,-124,-111)" stroke-linecap="butt">
      <path fill="none" d="M219 198.5 L338 198.5 L338 223.5 L219 223.5 Z" clip-path="url(#clipPath2)"/>
      <text x="256.1611" xml:space="preserve" y="215.7139" clip-path="url(#clipPath2)" font-family="sans-serif" stroke="none">schrijft 0</text>
    </g>
    <g fill="rgb(232,238,247)" text-rendering="geometricPrecision" shape-rendering="geometricPrecision" transform="matrix(1,0,0,1,-124,-111)" stroke="rgb(232,238,247)">
      <path d="M338 198.5 L457 198.5 L457 223.5 L338 223.5 Z" stroke="none" clip-path="url(#clipPath2)"/>
    </g>
    <g text-rendering="geometricPrecision" stroke-miterlimit="1.45" shape-rendering="geometricPrecision" transform="matrix(1,0,0,1,-124,-111)" stroke-linecap="butt">
      <path fill="none" d="M338 198.5 L457 198.5 L457 223.5 L338 223.5 Z" clip-path="url(#clipPath2)"/>
      <text x="375.1611" xml:space="preserve" y="215.7139" clip-path="url(#clipPath2)" font-family="sans-serif" stroke="none">schrijft 1</text>
    </g>
    <g fill="rgb(232,238,247)" text-rendering="geometricPrecision" shape-rendering="geometricPrecision" transform="matrix(1,0,0,1,-124,-111)" stroke="rgb(232,238,247)">
      <path d="M219 223.5 L338 223.5 L338 267.5 L219 267.5 Z" stroke="none" clip-path="url(#clipPath2)"/>
    </g>
    <g text-rendering="geometricPrecision" stroke-miterlimit="1.45" shape-rendering="geometricPrecision" transform="matrix(1,0,0,1,-124,-111)" stroke-linecap="butt">
      <path fill="none" d="M219 223.5 L338 223.5 L338 267.5 L219 267.5 Z" clip-path="url(#clipPath2)"/>
      <text x="227.1367" xml:space="preserve" y="242.8633" clip-path="url(#clipPath2)" font-family="sans-serif" stroke="none">Groepslid A: 1 punt</text>
      <text x="227.1367" xml:space="preserve" y="257.5645" clip-path="url(#clipPath2)" font-family="sans-serif" stroke="none">Groepslid B: 1 punt</text>
    </g>
    <g fill="rgb(232,238,247)" text-rendering="geometricPrecision" shape-rendering="geometricPrecision" transform="matrix(1,0,0,1,-124,-111)" stroke="rgb(232,238,247)">
      <path d="M171 223.5 L219 223.5 L219 267.5 L171 267.5 Z" stroke="none" clip-path="url(#clipPath2)"/>
    </g>
    <g text-rendering="geometricPrecision" stroke-miterlimit="1.45" shape-rendering="geometricPrecision" transform="matrix(1,0,0,1,-124,-111)" stroke-linecap="butt">
      <path fill="none" d="M171 223.5 L219 223.5 L219 267.5 L171 267.5 Z" clip-path="url(#clipPath2)"/>
      <text x="172.6611" xml:space="preserve" y="250.2139" clip-path="url(#clipPath2)" font-family="sans-serif" stroke="none">schrijft 0</text>
    </g>
    <g fill="rgb(232,238,247)" text-rendering="geometricPrecision" shape-rendering="geometricPrecision" transform="matrix(1,0,0,1,-124,-111)" stroke="rgb(232,238,247)">
      <path d="M171 267.5 L219 267.5 L219 311.5 L171 311.5 Z" stroke="none" clip-path="url(#clipPath2)"/>
    </g>
    <g text-rendering="geometricPrecision" stroke-miterlimit="1.45" shape-rendering="geometricPrecision" transform="matrix(1,0,0,1,-124,-111)" stroke-linecap="butt">
      <path fill="none" d="M171 267.5 L219 267.5 L219 311.5 L171 311.5 Z" clip-path="url(#clipPath2)"/>
      <text x="172.6611" xml:space="preserve" y="294.2139" clip-path="url(#clipPath2)" font-family="sans-serif" stroke="none">schrijft 1</text>
    </g>
    <g fill="rgb(232,238,247)" text-rendering="geometricPrecision" shape-rendering="geometricPrecision" transform="matrix(1,0,0,1,-124,-111)" stroke="rgb(232,238,247)">
      <path d="M338 223.5 L457 223.5 L457 267.5 L338 267.5 Z" stroke="none" clip-path="url(#clipPath2)"/>
    </g>
    <g text-rendering="geometricPrecision" stroke-miterlimit="1.45" shape-rendering="geometricPrecision" transform="matrix(1,0,0,1,-124,-111)" stroke-linecap="butt">
      <path fill="none" d="M338 223.5 L457 223.5 L457 267.5 L338 267.5 Z" clip-path="url(#clipPath2)"/>
      <text x="339.4629" xml:space="preserve" y="242.8633" clip-path="url(#clipPath2)" font-family="sans-serif" stroke="none">Groepslid A: 0 punten</text>
      <text x="339.4629" xml:space="preserve" y="257.5645" clip-path="url(#clipPath2)" font-family="sans-serif" stroke="none">Groepslid B: 5 punten</text>
    </g>
    <g fill="rgb(232,238,247)" text-rendering="geometricPrecision" shape-rendering="geometricPrecision" transform="matrix(1,0,0,1,-124,-111)" stroke="rgb(232,238,247)">
      <path d="M219 267.5 L338 267.5 L338 311.5 L219 311.5 Z" stroke="none" clip-path="url(#clipPath2)"/>
    </g>
    <g text-rendering="geometricPrecision" stroke-miterlimit="1.45" shape-rendering="geometricPrecision" transform="matrix(1,0,0,1,-124,-111)" stroke-linecap="butt">
      <path fill="none" d="M219 267.5 L338 267.5 L338 311.5 L219 311.5 Z" clip-path="url(#clipPath2)"/>
      <text x="220.4629" xml:space="preserve" y="286.8633" clip-path="url(#clipPath2)" font-family="sans-serif" stroke="none">Groepslid A: 5 punten</text>
      <text x="220.4629" xml:space="preserve" y="301.5645" clip-path="url(#clipPath2)" font-family="sans-serif" stroke="none">Groepslid B: 0 punten</text>
    </g>
    <g fill="rgb(232,238,247)" text-rendering="geometricPrecision" shape-rendering="geometricPrecision" transform="matrix(1,0,0,1,-124,-111)" stroke="rgb(232,238,247)">
      <path d="M338 267.5 L457 267.5 L457 311.5 L338 311.5 Z" stroke="none" clip-path="url(#clipPath2)"/>
    </g>
    <g text-rendering="geometricPrecision" stroke-miterlimit="1.45" shape-rendering="geometricPrecision" transform="matrix(1,0,0,1,-124,-111)" stroke-linecap="butt">
      <path fill="none" d="M338 267.5 L457 267.5 L457 311.5 L338 311.5 Z" clip-path="url(#clipPath2)"/>
      <text x="339.4629" xml:space="preserve" y="286.8633" clip-path="url(#clipPath2)" font-family="sans-serif" stroke="none">Groepslid A: 3 punten</text>
      <text x="339.4629" xml:space="preserve" y="301.5645" clip-path="url(#clipPath2)" font-family="sans-serif" stroke="none">Groepslid B: 3 punten</text>
    </g>
  </g>
</svg>
