<?xml version="1.0" encoding="UTF-8"?><svg xmlns="http://www.w3.org/2000/svg" xmlns:xlink="http://www.w3.org/1999/xlink" fill-opacity="1" color-rendering="auto" color-interpolation="auto" text-rendering="auto" stroke="black" stroke-linecap="square" width="350" stroke-miterlimit="10" shape-rendering="auto" stroke-opacity="1" fill="black" stroke-dasharray="none" font-weight="normal" stroke-width="1" height="239" font-family="'Dialog'" font-style="normal" stroke-linejoin="miter" font-size="12px" stroke-dashoffset="0" image-rendering="auto">
  <!--Generated by ySVG 2.5-->
  <defs id="genericDefs"/>
  <g>
    <defs id="defs1">
      <clipPath clipPathUnits="userSpaceOnUse" id="clipPath1">
        <path d="M0 0 L350 0 L350 239 L0 239 L0 0 Z"/>
      </clipPath>
      <clipPath clipPathUnits="userSpaceOnUse" id="clipPath2">
        <path d="M124 119 L474 119 L474 358 L124 358 L124 119 Z"/>
      </clipPath>
    </defs>
    <g fill="white" text-rendering="geometricPrecision" shape-rendering="geometricPrecision" transform="translate(-124,-119)" stroke="white">
      <rect x="124" width="350" height="239" y="119" clip-path="url(#clipPath2)" stroke="none"/>
    </g>
    <g fill="rgb(232,238,247)" text-rendering="geometricPrecision" shape-rendering="geometricPrecision" transform="matrix(1,0,0,1,-124,-119)" stroke="rgb(232,238,247)">
      <path d="M139 134 L459 134 L459 174 L139 174 Z" stroke="none" clip-path="url(#clipPath2)"/>
    </g>
    <g text-rendering="geometricPrecision" stroke-miterlimit="1.45" shape-rendering="geometricPrecision" transform="matrix(1,0,0,1,-124,-119)" stroke-linecap="butt">
      <path fill="none" d="M139 134 L459 134 L459 174 L139 174 Z" clip-path="url(#clipPath2)"/>
      <text x="209.498" font-size="20px" y="161.8564" clip-path="url(#clipPath2)" font-family="sans-serif" stroke="none" xml:space="preserve">Steen papier schaar</text>
    </g>
    <g fill="rgb(232,238,247)" text-rendering="geometricPrecision" shape-rendering="geometricPrecision" transform="matrix(1,0,0,1,-124,-119)" stroke="rgb(232,238,247)">
      <path d="M139 174 L219 174 L219 223 L139 223 Z" stroke="none" clip-path="url(#clipPath2)"/>
    </g>
    <g text-rendering="geometricPrecision" stroke-miterlimit="1.45" shape-rendering="geometricPrecision" transform="matrix(1,0,0,1,-124,-119)" stroke-linecap="butt">
      <path fill="none" d="M139 174 L219 174 L219 223 L139 223 Z" clip-path="url(#clipPath2)"/>
      <text x="154.4873" font-size="18px" y="205.5708" clip-path="url(#clipPath2)" font-family="sans-serif" stroke="none" xml:space="preserve">speler</text>
    </g>
    <g fill="lime" text-rendering="geometricPrecision" shape-rendering="geometricPrecision" transform="matrix(1,0,0,1,-124,-119)" stroke="lime">
      <path d="M219 174 L459 174 L459 194 L219 194 Z" stroke="none" clip-path="url(#clipPath2)"/>
    </g>
    <g text-rendering="geometricPrecision" stroke-miterlimit="1.45" shape-rendering="geometricPrecision" transform="matrix(1,0,0,1,-124,-119)" stroke-linecap="butt">
      <path fill="none" d="M219 174 L459 174 L459 194 L219 194 Z" clip-path="url(#clipPath2)"/>
      <text x="334.998" xml:space="preserve" y="188.7139" clip-path="url(#clipPath2)" font-family="sans-serif" stroke="none">A</text>
    </g>
    <g fill="rgb(51,204,204)" text-rendering="geometricPrecision" shape-rendering="geometricPrecision" transform="matrix(1,0,0,1,-124,-119)" stroke="rgb(51,204,204)">
      <path d="M139 223 L171 223 L171 343 L139 343 Z" stroke="none" clip-path="url(#clipPath2)"/>
    </g>
    <g text-rendering="geometricPrecision" stroke-miterlimit="1.45" shape-rendering="geometricPrecision" transform="matrix(1,0,0,1,-124,-119)" stroke-linecap="butt">
      <path fill="none" d="M139 223 L171 223 L171 343 L139 343 Z" clip-path="url(#clipPath2)"/>
      <text x="150.998" xml:space="preserve" y="287.7139" clip-path="url(#clipPath2)" font-family="sans-serif" stroke="none">B</text>
    </g>
    <g fill="rgb(232,238,247)" text-rendering="geometricPrecision" shape-rendering="geometricPrecision" transform="matrix(1,0,0,1,-124,-119)" stroke="rgb(232,238,247)">
      <path d="M219 194 L299 194 L299 223 L219 223 Z" stroke="none" clip-path="url(#clipPath2)"/>
    </g>
    <g text-rendering="geometricPrecision" stroke-miterlimit="1.45" shape-rendering="geometricPrecision" transform="matrix(1,0,0,1,-124,-119)" stroke-linecap="butt">
      <path fill="none" d="M219 194 L299 194 L299 223 L219 223 Z" clip-path="url(#clipPath2)"/>
      <text x="244.3223" xml:space="preserve" y="213.2139" clip-path="url(#clipPath2)" font-family="sans-serif" stroke="none">steen</text>
    </g>
    <g fill="rgb(232,238,247)" text-rendering="geometricPrecision" shape-rendering="geometricPrecision" transform="matrix(1,0,0,1,-124,-119)" stroke="rgb(232,238,247)">
      <path d="M299 194 L379 194 L379 223 L299 223 Z" stroke="none" clip-path="url(#clipPath2)"/>
    </g>
    <g text-rendering="geometricPrecision" stroke-miterlimit="1.45" shape-rendering="geometricPrecision" transform="matrix(1,0,0,1,-124,-119)" stroke-linecap="butt">
      <path fill="none" d="M299 194 L379 194 L379 223 L299 223 Z" clip-path="url(#clipPath2)"/>
      <text x="322.3213" xml:space="preserve" y="213.2139" clip-path="url(#clipPath2)" font-family="sans-serif" stroke="none">papier</text>
    </g>
    <g fill="rgb(232,238,247)" text-rendering="geometricPrecision" shape-rendering="geometricPrecision" transform="matrix(1,0,0,1,-124,-119)" stroke="rgb(232,238,247)">
      <path d="M171 303 L219 303 L219 343 L171 343 Z" stroke="none" clip-path="url(#clipPath2)"/>
    </g>
    <g text-rendering="geometricPrecision" stroke-miterlimit="1.45" shape-rendering="geometricPrecision" transform="matrix(1,0,0,1,-124,-119)" stroke-linecap="butt">
      <path fill="none" d="M171 303 L219 303 L219 343 L171 343 Z" clip-path="url(#clipPath2)"/>
      <text x="176.9912" xml:space="preserve" y="327.7139" clip-path="url(#clipPath2)" font-family="sans-serif" stroke="none">schaar</text>
    </g>
    <g fill="rgb(232,238,247)" text-rendering="geometricPrecision" shape-rendering="geometricPrecision" transform="matrix(1,0,0,1,-124,-119)" stroke="rgb(232,238,247)">
      <path d="M379 194 L459 194 L459 223 L379 223 Z" stroke="none" clip-path="url(#clipPath2)"/>
    </g>
    <g text-rendering="geometricPrecision" stroke-miterlimit="1.45" shape-rendering="geometricPrecision" transform="matrix(1,0,0,1,-124,-119)" stroke-linecap="butt">
      <path fill="none" d="M379 194 L459 194 L459 223 L379 223 Z" clip-path="url(#clipPath2)"/>
      <text x="400.9912" xml:space="preserve" y="213.2139" clip-path="url(#clipPath2)" font-family="sans-serif" stroke="none">schaar</text>
    </g>
    <g fill="rgb(232,238,247)" text-rendering="geometricPrecision" shape-rendering="geometricPrecision" transform="matrix(1,0,0,1,-124,-119)" stroke="rgb(232,238,247)">
      <path d="M219 223 L299 223 L299 263 L219 263 Z" stroke="none" clip-path="url(#clipPath2)"/>
    </g>
    <g text-rendering="geometricPrecision" stroke-miterlimit="1.45" shape-rendering="geometricPrecision" transform="matrix(1,0,0,1,-124,-119)" stroke-linecap="butt">
      <path fill="none" d="M219 223 L299 223 L299 263 L219 263 Z" clip-path="url(#clipPath2)"/>
      <text x="234.3203" xml:space="preserve" y="247.7139" clip-path="url(#clipPath2)" font-family="sans-serif" stroke="none">gelijkspel</text>
    </g>
    <g fill="rgb(232,238,247)" text-rendering="geometricPrecision" shape-rendering="geometricPrecision" transform="matrix(1,0,0,1,-124,-119)" stroke="rgb(232,238,247)">
      <path d="M171 223 L219 223 L219 263 L171 263 Z" stroke="none" clip-path="url(#clipPath2)"/>
    </g>
    <g text-rendering="geometricPrecision" stroke-miterlimit="1.45" shape-rendering="geometricPrecision" transform="matrix(1,0,0,1,-124,-119)" stroke-linecap="butt">
      <path fill="none" d="M171 223 L219 223 L219 263 L171 263 Z" clip-path="url(#clipPath2)"/>
      <text x="180.3223" xml:space="preserve" y="247.7139" clip-path="url(#clipPath2)" font-family="sans-serif" stroke="none">steen</text>
    </g>
    <g fill="rgb(232,238,247)" text-rendering="geometricPrecision" shape-rendering="geometricPrecision" transform="matrix(1,0,0,1,-124,-119)" stroke="rgb(232,238,247)">
      <path d="M171 263 L219 263 L219 303 L171 303 Z" stroke="none" clip-path="url(#clipPath2)"/>
    </g>
    <g text-rendering="geometricPrecision" stroke-miterlimit="1.45" shape-rendering="geometricPrecision" transform="matrix(1,0,0,1,-124,-119)" stroke-linecap="butt">
      <path fill="none" d="M171 263 L219 263 L219 303 L171 303 Z" clip-path="url(#clipPath2)"/>
      <text x="178.3213" xml:space="preserve" y="287.7139" clip-path="url(#clipPath2)" font-family="sans-serif" stroke="none">papier</text>
    </g>
    <g fill="lime" text-rendering="geometricPrecision" shape-rendering="geometricPrecision" transform="matrix(1,0,0,1,-124,-119)" stroke="lime">
      <path d="M299 223 L379 223 L379 263 L299 263 Z" stroke="none" clip-path="url(#clipPath2)"/>
    </g>
    <g text-rendering="geometricPrecision" stroke-miterlimit="1.45" shape-rendering="geometricPrecision" transform="matrix(1,0,0,1,-124,-119)" stroke-linecap="butt">
      <path fill="none" d="M299 223 L379 223 L379 263 L299 263 Z" clip-path="url(#clipPath2)"/>
      <text x="308.3086" xml:space="preserve" y="240.3633" clip-path="url(#clipPath2)" font-family="sans-serif" stroke="none">A: 1 punt</text>
      <text x="308.3086" xml:space="preserve" y="255.0645" clip-path="url(#clipPath2)" font-family="sans-serif" stroke="none">B: 0 punten</text>
    </g>
    <g fill="rgb(51,204,204)" text-rendering="geometricPrecision" shape-rendering="geometricPrecision" transform="matrix(1,0,0,1,-124,-119)" stroke="rgb(51,204,204)">
      <path d="M379 223 L459 223 L459 263 L379 263 Z" stroke="none" clip-path="url(#clipPath2)"/>
    </g>
    <g text-rendering="geometricPrecision" stroke-miterlimit="1.45" shape-rendering="geometricPrecision" transform="matrix(1,0,0,1,-124,-119)" stroke-linecap="butt">
      <path fill="none" d="M379 223 L459 223 L459 263 L379 263 Z" clip-path="url(#clipPath2)"/>
      <text x="388.3086" xml:space="preserve" y="240.3633" clip-path="url(#clipPath2)" font-family="sans-serif" stroke="none">A: 0 punten</text>
      <text x="388.3086" xml:space="preserve" y="255.0645" clip-path="url(#clipPath2)" font-family="sans-serif" stroke="none">B: 1 punt</text>
    </g>
    <g fill="rgb(51,204,204)" text-rendering="geometricPrecision" shape-rendering="geometricPrecision" transform="matrix(1,0,0,1,-124,-119)" stroke="rgb(51,204,204)">
      <path d="M219 263 L299 263 L299 303 L219 303 Z" stroke="none" clip-path="url(#clipPath2)"/>
    </g>
    <g text-rendering="geometricPrecision" stroke-miterlimit="1.45" shape-rendering="geometricPrecision" transform="matrix(1,0,0,1,-124,-119)" stroke-linecap="butt">
      <path fill="none" d="M219 263 L299 263 L299 303 L219 303 Z" clip-path="url(#clipPath2)"/>
      <text x="228.3086" xml:space="preserve" y="280.3633" clip-path="url(#clipPath2)" font-family="sans-serif" stroke="none">A: 0 punten</text>
      <text x="228.3086" xml:space="preserve" y="295.0645" clip-path="url(#clipPath2)" font-family="sans-serif" stroke="none">B: 1 punt</text>
    </g>
    <g fill="rgb(232,238,247)" text-rendering="geometricPrecision" shape-rendering="geometricPrecision" transform="matrix(1,0,0,1,-124,-119)" stroke="rgb(232,238,247)">
      <path d="M299 263 L379 263 L379 303 L299 303 Z" stroke="none" clip-path="url(#clipPath2)"/>
    </g>
    <g text-rendering="geometricPrecision" stroke-miterlimit="1.45" shape-rendering="geometricPrecision" transform="matrix(1,0,0,1,-124,-119)" stroke-linecap="butt">
      <path fill="none" d="M299 263 L379 263 L379 303 L299 303 Z" clip-path="url(#clipPath2)"/>
      <text x="314.3203" xml:space="preserve" y="287.7139" clip-path="url(#clipPath2)" font-family="sans-serif" stroke="none">gelijkspel</text>
    </g>
    <g fill="lime" text-rendering="geometricPrecision" shape-rendering="geometricPrecision" transform="matrix(1,0,0,1,-124,-119)" stroke="lime">
      <path d="M379 263 L459 263 L459 303 L379 303 Z" stroke="none" clip-path="url(#clipPath2)"/>
    </g>
    <g text-rendering="geometricPrecision" stroke-miterlimit="1.45" shape-rendering="geometricPrecision" transform="matrix(1,0,0,1,-124,-119)" stroke-linecap="butt">
      <path fill="none" d="M379 263 L459 263 L459 303 L379 303 Z" clip-path="url(#clipPath2)"/>
      <text x="388.3086" xml:space="preserve" y="280.3633" clip-path="url(#clipPath2)" font-family="sans-serif" stroke="none">A: 1 punt</text>
      <text x="388.3086" xml:space="preserve" y="295.0645" clip-path="url(#clipPath2)" font-family="sans-serif" stroke="none">B: 0 punten</text>
    </g>
    <g fill="lime" text-rendering="geometricPrecision" shape-rendering="geometricPrecision" transform="matrix(1,0,0,1,-124,-119)" stroke="lime">
      <path d="M219 303 L299 303 L299 343 L219 343 Z" stroke="none" clip-path="url(#clipPath2)"/>
    </g>
    <g text-rendering="geometricPrecision" stroke-miterlimit="1.45" shape-rendering="geometricPrecision" transform="matrix(1,0,0,1,-124,-119)" stroke-linecap="butt">
      <path fill="none" d="M219 303 L299 303 L299 343 L219 343 Z" clip-path="url(#clipPath2)"/>
      <text x="228.3086" xml:space="preserve" y="320.3633" clip-path="url(#clipPath2)" font-family="sans-serif" stroke="none">A: 1 punt</text>
      <text x="228.3086" xml:space="preserve" y="335.0645" clip-path="url(#clipPath2)" font-family="sans-serif" stroke="none">B: 0 punten</text>
    </g>
    <g fill="rgb(51,204,204)" text-rendering="geometricPrecision" shape-rendering="geometricPrecision" transform="matrix(1,0,0,1,-124,-119)" stroke="rgb(51,204,204)">
      <path d="M299 303 L379 303 L379 343 L299 343 Z" stroke="none" clip-path="url(#clipPath2)"/>
    </g>
    <g text-rendering="geometricPrecision" stroke-miterlimit="1.45" shape-rendering="geometricPrecision" transform="matrix(1,0,0,1,-124,-119)" stroke-linecap="butt">
      <path fill="none" d="M299 303 L379 303 L379 343 L299 343 Z" clip-path="url(#clipPath2)"/>
      <text x="308.3086" xml:space="preserve" y="320.3633" clip-path="url(#clipPath2)" font-family="sans-serif" stroke="none">A: 0 punten</text>
      <text x="308.3086" xml:space="preserve" y="335.0645" clip-path="url(#clipPath2)" font-family="sans-serif" stroke="none">B: 1 punt</text>
    </g>
    <g fill="rgb(232,238,247)" text-rendering="geometricPrecision" shape-rendering="geometricPrecision" transform="matrix(1,0,0,1,-124,-119)" stroke="rgb(232,238,247)">
      <path d="M379 303 L459 303 L459 343 L379 343 Z" stroke="none" clip-path="url(#clipPath2)"/>
    </g>
    <g text-rendering="geometricPrecision" stroke-miterlimit="1.45" shape-rendering="geometricPrecision" transform="matrix(1,0,0,1,-124,-119)" stroke-linecap="butt">
      <path fill="none" d="M379 303 L459 303 L459 343 L379 343 Z" clip-path="url(#clipPath2)"/>
      <text x="394.3203" xml:space="preserve" y="327.7139" clip-path="url(#clipPath2)" font-family="sans-serif" stroke="none">gelijkspel</text>
    </g>
  </g>
</svg>
