<?xml version="1.0" encoding="UTF-8"?><svg xmlns="http://www.w3.org/2000/svg" xmlns:xlink="http://www.w3.org/1999/xlink" fill-opacity="1" color-rendering="auto" color-interpolation="auto" text-rendering="auto" stroke="black" stroke-linecap="square" width="518" stroke-miterlimit="10" shape-rendering="auto" stroke-opacity="1" fill="black" stroke-dasharray="none" font-weight="normal" stroke-width="1" height="179" font-family="'Dialog'" font-style="normal" stroke-linejoin="miter" font-size="12px" stroke-dashoffset="0" image-rendering="auto">
  <!--Generated by ySVG 2.5-->
  <defs id="genericDefs"/>
  <g>
    <defs id="defs1">
      <clipPath clipPathUnits="userSpaceOnUse" id="clipPath1">
        <path d="M0 0 L518 0 L518 179 L0 179 L0 0 Z"/>
      </clipPath>
      <clipPath clipPathUnits="userSpaceOnUse" id="clipPath2">
        <path d="M21 22 L539 22 L539 201 L21 201 L21 22 Z"/>
      </clipPath>
    </defs>
    <g fill="white" text-rendering="geometricPrecision" shape-rendering="geometricPrecision" transform="translate(-21,-22)" stroke="white">
      <rect x="21" width="518" height="179" y="22" clip-path="url(#clipPath2)" stroke="none"/>
    </g>
    <g fill="rgb(255,102,0)" text-rendering="geometricPrecision" shape-rendering="geometricPrecision" transform="matrix(1,0,0,1,-21,-22)" stroke="rgb(255,102,0)">
      <rect x="36" width="97" height="21" y="37" clip-path="url(#clipPath2)" stroke="none"/>
    </g>
    <g text-rendering="geometricPrecision" stroke-miterlimit="1.45" shape-rendering="geometricPrecision" transform="matrix(1,0,0,1,-21,-22)" stroke-linecap="butt">
      <rect fill="none" x="36" width="97" height="21" y="37" clip-path="url(#clipPath2)"/>
      <text x="70.1562" y="52.2139" clip-path="url(#clipPath2)" fill="white" font-family="sans-serif" stroke="none" xml:space="preserve">kind?</text>
    </g>
    <g fill="rgb(255,102,0)" text-rendering="geometricPrecision" shape-rendering="geometricPrecision" transform="matrix(1,0,0,1,-21,-22)" stroke="rgb(255,102,0)">
      <rect x="156" width="105" height="21" y="37" clip-path="url(#clipPath2)" stroke="none"/>
    </g>
    <g text-rendering="geometricPrecision" stroke-miterlimit="1.45" shape-rendering="geometricPrecision" transform="matrix(1,0,0,1,-21,-22)" stroke-linecap="butt">
      <rect fill="none" x="156" width="105" height="21" y="37" clip-path="url(#clipPath2)"/>
      <text x="222.9844" y="52.2139" clip-path="url(#clipPath2)" fill="white" font-family="sans-serif" stroke="none" xml:space="preserve">status</text>
    </g>
    <g fill="rgb(255,102,0)" text-rendering="geometricPrecision" shape-rendering="geometricPrecision" transform="matrix(1,0,0,1,-21,-22)" stroke="rgb(255,102,0)">
      <rect x="156" width="105" height="21" y="62" clip-path="url(#clipPath2)" stroke="none"/>
    </g>
    <g text-rendering="geometricPrecision" stroke-miterlimit="1.45" shape-rendering="geometricPrecision" transform="matrix(1,0,0,1,-21,-22)" stroke-linecap="butt">
      <rect fill="none" x="156" width="105" height="21" y="62" clip-path="url(#clipPath2)"/>
      <text x="161.8096" y="77.2139" clip-path="url(#clipPath2)" fill="white" font-family="sans-serif" stroke="none" xml:space="preserve">verantwoordelijk?</text>
    </g>
    <g fill="rgb(255,102,0)" text-rendering="geometricPrecision" shape-rendering="geometricPrecision" transform="matrix(1,0,0,1,-21,-22)" stroke="rgb(255,102,0)">
      <rect x="36" width="50" height="21" y="62" clip-path="url(#clipPath2)" stroke="none"/>
    </g>
    <g text-rendering="geometricPrecision" stroke-miterlimit="1.45" shape-rendering="geometricPrecision" transform="matrix(1,0,0,1,-21,-22)" stroke-linecap="butt">
      <rect fill="none" x="36" width="50" height="21" y="62" clip-path="url(#clipPath2)"/>
      <text x="42.9824" y="77.2139" clip-path="url(#clipPath2)" fill="white" font-family="sans-serif" stroke="none" xml:space="preserve">jongen</text>
    </g>
    <g fill="rgb(255,102,0)" text-rendering="geometricPrecision" shape-rendering="geometricPrecision" transform="matrix(1,0,0,1,-21,-22)" stroke="rgb(255,102,0)">
      <rect x="94" width="39" height="21" y="62" clip-path="url(#clipPath2)" stroke="none"/>
    </g>
    <g text-rendering="geometricPrecision" stroke-miterlimit="1.45" shape-rendering="geometricPrecision" transform="matrix(1,0,0,1,-21,-22)" stroke-linecap="butt">
      <rect fill="none" x="94" width="39" height="21" y="62" clip-path="url(#clipPath2)"/>
      <text x="96.1621" y="77.2139" clip-path="url(#clipPath2)" fill="white" font-family="sans-serif" stroke="none" xml:space="preserve">meisje</text>
    </g>
    <g fill="rgb(255,102,0)" text-rendering="geometricPrecision" shape-rendering="geometricPrecision" transform="matrix(1,0,0,1,-21,-22)" stroke="rgb(255,102,0)">
      <rect x="139" width="11" height="21" y="62" clip-path="url(#clipPath2)" stroke="none"/>
    </g>
    <g text-rendering="geometricPrecision" stroke-miterlimit="1.45" shape-rendering="geometricPrecision" transform="matrix(1,0,0,1,-21,-22)" stroke-linecap="butt">
      <rect fill="none" x="139" width="11" height="21" y="62" clip-path="url(#clipPath2)"/>
      <text x="140.9961" y="77.2139" clip-path="url(#clipPath2)" fill="white" font-family="sans-serif" stroke="none" xml:space="preserve">=</text>
    </g>
    <g fill="rgb(255,102,0)" text-rendering="geometricPrecision" shape-rendering="geometricPrecision" transform="matrix(1,0,0,1,-21,-22)" stroke="rgb(255,102,0)">
      <rect x="139" width="11" height="21" y="37" clip-path="url(#clipPath2)" stroke="none"/>
    </g>
    <g text-rendering="geometricPrecision" stroke-miterlimit="1.45" shape-rendering="geometricPrecision" transform="matrix(1,0,0,1,-21,-22)" stroke-linecap="butt">
      <rect fill="none" x="139" width="11" height="21" y="37" clip-path="url(#clipPath2)"/>
      <text x="162" xml:space="preserve" y="180.2139" clip-path="url(#clipPath2)" font-family="sans-serif" stroke="none">nee</text>
      <text x="68.3301" xml:space="preserve" y="180.2139" clip-path="url(#clipPath2)" font-family="sans-serif" stroke="none">ja</text>
      <text x="111.8301" xml:space="preserve" y="180.2139" clip-path="url(#clipPath2)" font-family="sans-serif" stroke="none">ja</text>
      <text x="140.9961" xml:space="preserve" y="180.2139" clip-path="url(#clipPath2)" font-family="sans-serif" stroke="none">=</text>
      <text x="162" xml:space="preserve" y="155.2139" clip-path="url(#clipPath2)" font-family="sans-serif" stroke="none">ja</text>
      <text x="68.3301" xml:space="preserve" y="155.2139" clip-path="url(#clipPath2)" font-family="sans-serif" stroke="none">ja</text>
      <text x="106.4893" xml:space="preserve" y="155.2139" clip-path="url(#clipPath2)" font-family="sans-serif" stroke="none">nee</text>
      <text x="140.9961" xml:space="preserve" y="155.2139" clip-path="url(#clipPath2)" font-family="sans-serif" stroke="none">=</text>
      <text x="162" xml:space="preserve" y="103.2139" clip-path="url(#clipPath2)" font-family="sans-serif" stroke="none">nee</text>
      <text x="62.9893" xml:space="preserve" y="103.2139" clip-path="url(#clipPath2)" font-family="sans-serif" stroke="none">nee</text>
      <text x="106.4893" xml:space="preserve" y="103.2139" clip-path="url(#clipPath2)" font-family="sans-serif" stroke="none">nee</text>
      <text x="140.9961" xml:space="preserve" y="103.2139" clip-path="url(#clipPath2)" font-family="sans-serif" stroke="none">=</text>
      <text x="162" xml:space="preserve" y="129.2139" clip-path="url(#clipPath2)" font-family="sans-serif" stroke="none">ja</text>
      <text x="62.9893" xml:space="preserve" y="129.2139" clip-path="url(#clipPath2)" font-family="sans-serif" stroke="none">nee</text>
      <text x="111.8301" xml:space="preserve" y="129.2139" clip-path="url(#clipPath2)" font-family="sans-serif" stroke="none">ja</text>
      <text x="140.9961" xml:space="preserve" y="129.2139" clip-path="url(#clipPath2)" font-family="sans-serif" stroke="none">=</text>
    </g>
    <g fill="rgb(255,102,0)" text-rendering="geometricPrecision" shape-rendering="geometricPrecision" transform="matrix(1,0,0,1,-21,-22)" stroke="rgb(255,102,0)">
      <rect x="419" width="33" height="21" y="62" clip-path="url(#clipPath2)" stroke="none"/>
    </g>
    <g text-rendering="geometricPrecision" stroke-miterlimit="1.45" shape-rendering="geometricPrecision" transform="matrix(1,0,0,1,-21,-22)" stroke-linecap="butt">
      <rect fill="none" x="419" width="33" height="21" y="62" clip-path="url(#clipPath2)"/>
      <text x="430.499" y="77.2139" clip-path="url(#clipPath2)" fill="white" font-family="sans-serif" stroke="none" xml:space="preserve">...</text>
    </g>
    <g fill="rgb(255,102,0)" text-rendering="geometricPrecision" shape-rendering="geometricPrecision" transform="matrix(1,0,0,1,-21,-22)" stroke="rgb(255,102,0)">
      <rect x="307" width="26" height="21" y="62" clip-path="url(#clipPath2)" stroke="none"/>
    </g>
    <g text-rendering="geometricPrecision" stroke-miterlimit="1.45" shape-rendering="geometricPrecision" transform="matrix(1,0,0,1,-21,-22)" stroke-linecap="butt">
      <rect fill="none" x="307" width="26" height="21" y="62" clip-path="url(#clipPath2)"/>
      <text x="313.6631" y="77.2139" clip-path="url(#clipPath2)" fill="white" font-family="sans-serif" stroke="none" xml:space="preserve">x1</text>
    </g>
    <g fill="rgb(255,102,0)" text-rendering="geometricPrecision" shape-rendering="geometricPrecision" transform="matrix(1,0,0,1,-21,-22)" stroke="rgb(255,102,0)">
      <rect x="363" width="33" height="21" y="62" clip-path="url(#clipPath2)" stroke="none"/>
    </g>
    <g text-rendering="geometricPrecision" stroke-miterlimit="1.45" shape-rendering="geometricPrecision" transform="matrix(1,0,0,1,-21,-22)" stroke-linecap="butt">
      <rect fill="none" x="363" width="33" height="21" y="62" clip-path="url(#clipPath2)"/>
      <text x="373.1631" y="77.2139" clip-path="url(#clipPath2)" fill="white" font-family="sans-serif" stroke="none" xml:space="preserve">x2</text>
    </g>
    <g fill="rgb(255,102,0)" text-rendering="geometricPrecision" shape-rendering="geometricPrecision" transform="matrix(1,0,0,1,-21,-22)" stroke="rgb(255,102,0)">
      <rect x="402" width="11" height="21" y="62" clip-path="url(#clipPath2)" stroke="none"/>
    </g>
    <g text-rendering="geometricPrecision" stroke-miterlimit="1.45" shape-rendering="geometricPrecision" transform="matrix(1,0,0,1,-21,-22)" stroke-linecap="butt">
      <rect fill="none" x="402" width="11" height="21" y="62" clip-path="url(#clipPath2)"/>
      <text x="403.9961" y="77.2139" clip-path="url(#clipPath2)" fill="white" font-family="sans-serif" stroke="none" xml:space="preserve">=</text>
      <text x="425" xml:space="preserve" y="180.2139" clip-path="url(#clipPath2)" font-family="sans-serif" stroke="none">0</text>
      <text x="316.6631" xml:space="preserve" y="180.2139" clip-path="url(#clipPath2)" font-family="sans-serif" stroke="none">1</text>
      <text x="376.1631" xml:space="preserve" y="180.2139" clip-path="url(#clipPath2)" font-family="sans-serif" stroke="none">1</text>
      <text x="403.9961" xml:space="preserve" y="180.2139" clip-path="url(#clipPath2)" font-family="sans-serif" stroke="none">=</text>
      <text x="425" xml:space="preserve" y="155.2139" clip-path="url(#clipPath2)" font-family="sans-serif" stroke="none">1</text>
      <text x="316.6631" xml:space="preserve" y="155.2139" clip-path="url(#clipPath2)" font-family="sans-serif" stroke="none">1</text>
      <text x="376.1631" xml:space="preserve" y="155.2139" clip-path="url(#clipPath2)" font-family="sans-serif" stroke="none">1</text>
      <text x="403.9961" xml:space="preserve" y="155.2139" clip-path="url(#clipPath2)" font-family="sans-serif" stroke="none">=</text>
      <text x="425" xml:space="preserve" y="103.2139" clip-path="url(#clipPath2)" font-family="sans-serif" stroke="none">0</text>
      <text x="316.6631" xml:space="preserve" y="103.2139" clip-path="url(#clipPath2)" font-family="sans-serif" stroke="none">0</text>
      <text x="376.1631" xml:space="preserve" y="103.2139" clip-path="url(#clipPath2)" font-family="sans-serif" stroke="none">0</text>
      <text x="403.9961" xml:space="preserve" y="103.2139" clip-path="url(#clipPath2)" font-family="sans-serif" stroke="none">=</text>
      <text x="425" xml:space="preserve" y="129.2139" clip-path="url(#clipPath2)" font-family="sans-serif" stroke="none">1</text>
      <text x="316.6631" xml:space="preserve" y="129.2139" clip-path="url(#clipPath2)" font-family="sans-serif" stroke="none">0</text>
      <text x="376.1631" xml:space="preserve" y="129.2139" clip-path="url(#clipPath2)" font-family="sans-serif" stroke="none">1</text>
      <text x="403.9961" xml:space="preserve" y="129.2139" clip-path="url(#clipPath2)" font-family="sans-serif" stroke="none">=</text>
    </g>
    <g fill="rgb(255,102,0)" text-rendering="geometricPrecision" shape-rendering="geometricPrecision" transform="matrix(1,0,0,1,-21,-22)" stroke="rgb(255,102,0)">
      <rect x="342.5" width="11" height="21" y="63" clip-path="url(#clipPath2)" stroke="none"/>
    </g>
    <g text-rendering="geometricPrecision" stroke-miterlimit="1.45" shape-rendering="geometricPrecision" transform="matrix(1,0,0,1,-21,-22)" stroke-linecap="butt">
      <rect fill="none" x="342.5" width="11" height="21" y="63" clip-path="url(#clipPath2)"/>
      <text x="343.8984" y="78.2139" clip-path="url(#clipPath2)" fill="white" font-family="sans-serif" stroke="none" xml:space="preserve">⊻</text>
      <text x="343.8984" xml:space="preserve" y="103.2139" clip-path="url(#clipPath2)" font-family="sans-serif" stroke="none">⊻</text>
      <text x="343.8984" xml:space="preserve" y="128.2139" clip-path="url(#clipPath2)" font-family="sans-serif" stroke="none">⊻</text>
      <text x="343.8984" xml:space="preserve" y="153.2139" clip-path="url(#clipPath2)" font-family="sans-serif" stroke="none">⊻</text>
      <text x="343.8984" xml:space="preserve" y="178.2139" clip-path="url(#clipPath2)" font-family="sans-serif" stroke="none">⊻</text>
      <path fill="none" d="M275 72.5 L293 72.5" stroke-width="7" clip-path="url(#clipPath2)"/>
      <path d="M261 72.5 L282 81.25 L276.75 72.5 L282 63.75 Z" stroke-width="7" clip-path="url(#clipPath2)" stroke="none"/>
      <path d="M307 72.5 L286 63.75 L291.25 72.5 L286 81.25 Z" stroke-width="7" clip-path="url(#clipPath2)" stroke="none"/>
    </g>
  </g>
</svg>
